NotoSansCanadianAboriginal-Regular.ufo
<glyph name="dotlessi" format="2">
  <advance width="258"/>
  <unicode hex="0131"/>
  <note>
dotlessi
</note>
  <outline>
    <contour>
      <point x="85" y="0" type="line"/>
      <point x="173" y="0" type="line"/>
      <point x="173" y="536" type="line"/>
      <point x="85" y="536" type="line"/>
    </contour>
  </outline>
</glyph>
<glyph name="caron" format="2">
  <advance width="418"/>
  <unicode hex="02C7"/>
  <note>
caron
</note>
  <outline>
    <contour>
      <point x="163" y="606" type="curve"/>
      <point x="253" y="606" type="line"/>
      <point x="277" y="651"/>
      <point x="340" y="715"/>
      <point x="378" y="753" type="curve"/>
      <point x="378" y="766" type="line"/>
      <point x="316" y="766" type="line"/>
      <point x="281" y="743"/>
      <point x="243" y="710"/>
      <point x="207" y="674" type="curve"/>
      <point x="174" y="710"/>
      <point x="135" y="743"/>
      <point x="100" y="766" type="curve"/>
      <point x="40" y="766" type="line"/>
      <point x="40" y="753" type="line"/>
      <point x="76" y="716"/>
      <point x="137" y="651"/>
    </contour>
  </outline>
</glyph>
<glyph name="breve" format="2">
  <advance width="391"/>
  <unicode hex="02D8"/>
  <note>
breve
</note>
  <outline>
    <contour>
      <point x="193" y="606" type="curve" smooth="yes"/>
      <point x="289" y="606"/>
      <point x="344" y="660"/>
      <point x="351" y="740" type="curve"/>
      <point x="296" y="740" type="line"/>
      <point x="289" y="688"/>
      <point x="247" y="677"/>
      <point x="195" y="677" type="curve" smooth="yes"/>
      <point x="134" y="677"/>
      <point x="100" y="685"/>
      <point x="94" y="740" type="curve"/>
      <point x="40" y="740" type="line"/>
      <point x="45" y="658"/>
      <point x="94" y="606"/>
    </contour>
  </outline>
</glyph>
<glyph name="dotaccent" format="2">
  <advance width="183"/>
  <unicode hex="02D9"/>
  <note>
dotaccent
</note>
  <outline>
    <contour>
      <point x="92" y="625" type="curve" smooth="yes"/>
      <point x="119" y="625"/>
      <point x="143" y="643"/>
      <point x="143" y="681" type="curve" smooth="yes"/>
      <point x="143" y="720"/>
      <point x="119" y="737"/>
      <point x="92" y="737" type="curve" smooth="yes"/>
      <point x="63" y="737"/>
      <point x="40" y="720"/>
      <point x="40" y="681" type="curve" smooth="yes"/>
      <point x="40" y="643"/>
      <point x="63" y="625"/>
    </contour>
  </outline>
</glyph>
<glyph name="ring" format="2">
  <advance width="300"/>
  <unicode hex="02DA"/>
  <note>
ring
</note>
  <outline>
    <contour>
      <point x="149" y="606" type="curve" smooth="yes"/>
      <point x="213" y="606"/>
      <point x="260" y="645"/>
      <point x="260" y="713" type="curve" smooth="yes"/>
      <point x="260" y="778"/>
      <point x="212" y="817"/>
      <point x="149" y="817" type="curve" smooth="yes"/>
      <point x="84" y="817"/>
      <point x="40" y="778"/>
      <point x="40" y="712" type="curve" smooth="yes"/>
      <point x="40" y="645"/>
      <point x="84" y="606"/>
    </contour>
    <contour>
      <point x="149" y="656" type="curve" smooth="yes"/>
      <point x="113" y="656"/>
      <point x="93" y="677"/>
      <point x="93" y="712" type="curve" smooth="yes"/>
      <point x="93" y="747"/>
      <point x="117" y="768"/>
      <point x="149" y="768" type="curve" smooth="yes"/>
      <point x="181" y="768"/>
      <point x="205" y="747"/>
      <point x="205" y="712" type="curve" smooth="yes"/>
      <point x="205" y="677"/>
      <point x="182" y="656"/>
    </contour>
  </outline>
</glyph>
<glyph name="ogonek" format="2">
  <advance width="245"/>
  <unicode hex="02DB"/>
  <note>
ogonek
</note>
  <outline>
    <contour>
      <point x="143" y="-220" type="curve" smooth="yes"/>
      <point x="169" y="-220"/>
      <point x="186" y="-216"/>
      <point x="205" y="-211" type="curve"/>
      <point x="205" y="-155" type="line"/>
      <point x="194" y="-157"/>
      <point x="179" y="-161"/>
      <point x="157" y="-161" type="curve" smooth="yes"/>
      <point x="129" y="-161"/>
      <point x="112" y="-146"/>
      <point x="112" y="-116" type="curve" smooth="yes"/>
      <point x="112" y="-75"/>
      <point x="135" y="-43"/>
      <point x="180" y="0" type="curve"/>
      <point x="132" y="15" type="line"/>
      <point x="92" y="-13"/>
      <point x="40" y="-69"/>
      <point x="40" y="-126" type="curve" smooth="yes"/>
      <point x="40" y="-185"/>
      <point x="72" y="-220"/>
    </contour>
  </outline>
</glyph>
<glyph name="uni0307" format="2">
  <unicode hex="0307"/>
  <note>
uni0307
</note>
  <outline>
    <contour>
      <point x="91" y="737" type="curve" smooth="yes"/>
      <point x="62" y="737"/>
      <point x="39" y="720"/>
      <point x="39" y="681" type="curve" smooth="yes"/>
      <point x="39" y="643"/>
      <point x="62" y="625"/>
      <point x="91" y="625" type="curve" smooth="yes"/>
      <point x="118" y="625"/>
      <point x="142" y="643"/>
      <point x="142" y="681" type="curve" smooth="yes"/>
      <point x="142" y="720"/>
      <point x="118" y="737"/>
    </contour>
  </outline>
</glyph>
<glyph name="uni1400" format="2">
  <advance width="446"/>
  <unicode hex="1400"/>
  <note>
uni1400
</note>
  <outline>
    <contour>
      <point x="39" y="406" type="line"/>
      <point x="407" y="406" type="line"/>
      <point x="407" y="474" type="line"/>
      <point x="39" y="474" type="line"/>
    </contour>
    <contour>
      <point x="39" y="260" type="line"/>
      <point x="407" y="260" type="line"/>
      <point x="407" y="327" type="line"/>
      <point x="39" y="327" type="line"/>
    </contour>
  </outline>
</glyph>
<glyph name="uni1401" format="2">
  <advance width="777"/>
  <unicode hex="1401"/>
  <note>
uni1401
</note>
  <outline>
    <contour>
      <point x="378" y="-12" type="line"/>
      <point x="398" y="-12" type="line"/>
      <point x="728" y="704" type="line"/>
      <point x="728" y="714" type="line"/>
      <point x="49" y="714" type="line"/>
      <point x="49" y="704" type="line"/>
    </contour>
    <contour>
      <point x="388" y="139" type="line"/>
      <point x="163" y="643" type="line"/>
      <point x="613" y="643" type="line"/>
    </contour>
  </outline>
</glyph>
<glyph name="uni1403" format="2">
  <advance width="777"/>
  <unicode hex="1403"/>
  <note>
uni1403
</note>
  <outline>
    <contour>
      <point x="49" y="0" type="line"/>
      <point x="728" y="0" type="line"/>
      <point x="728" y="10" type="line"/>
      <point x="398" y="726" type="line"/>
      <point x="378" y="726" type="line"/>
      <point x="49" y="10" type="line"/>
    </contour>
    <contour>
      <point x="163" y="71" type="line"/>
      <point x="388" y="575" type="line"/>
      <point x="613" y="71" type="line"/>
    </contour>
  </outline>
</glyph>
<glyph name="uni1405" format="2">
  <advance width="732"/>
  <unicode hex="1405"/>
  <note>
uni1405
</note>
  <outline>
    <contour>
      <point x="69" y="-10" type="line"/>
      <point x="79" y="-10" type="line"/>
      <point x="693" y="350" type="line"/>
      <point x="693" y="364" type="line"/>
      <point x="79" y="725" type="line"/>
      <point x="69" y="725" type="line"/>
    </contour>
    <contour>
      <point x="147" y="117" type="line"/>
      <point x="147" y="597" type="line"/>
      <point x="567" y="357" type="line"/>
    </contour>
  </outline>
</glyph>
<glyph name="uni140A" format="2">
  <advance width="732"/>
  <unicode hex="140A"/>
  <note>
uni140A
</note>
  <outline>
    <contour>
      <point x="653" y="-10" type="line"/>
      <point x="663" y="-10" type="line"/>
      <point x="663" y="725" type="line"/>
      <point x="653" y="725" type="line"/>
      <point x="39" y="364" type="line"/>
      <point x="39" y="350" type="line"/>
    </contour>
    <contour>
      <point x="584" y="117" type="line"/>
      <point x="165" y="357" type="line"/>
      <point x="584" y="597" type="line"/>
    </contour>
  </outline>
</glyph>
<glyph name="uni141C" format="2">
  <advance width="591"/>
  <unicode hex="141C"/>
  <note>
uni141C
</note>
  <outline>
    <contour>
      <point x="183" y="334" type="curve" smooth="yes"/>
      <point x="226" y="334"/>
      <point x="264" y="358"/>
      <point x="295" y="407" type="curve"/>
      <point x="327" y="358"/>
      <point x="366" y="334"/>
      <point x="412" y="334" type="curve" smooth="yes"/>
      <point x="505" y="334"/>
      <point x="552" y="405"/>
      <point x="552" y="545" type="curve" smooth="yes"/>
      <point x="552" y="714" type="line"/>
      <point x="477" y="714" type="line"/>
      <point x="477" y="557" type="line" smooth="yes"/>
      <point x="477" y="478"/>
      <point x="466" y="402"/>
      <point x="408" y="402" type="curve" smooth="yes"/>
      <point x="345" y="402"/>
      <point x="333" y="477"/>
      <point x="333" y="557" type="curve" smooth="yes"/>
      <point x="333" y="714" type="line"/>
      <point x="258" y="714" type="line"/>
      <point x="258" y="557" type="line" smooth="yes"/>
      <point x="258" y="481"/>
      <point x="247" y="402"/>
      <point x="188" y="402" type="curve" smooth="yes"/>
      <point x="140" y="402"/>
      <point x="114" y="453"/>
      <point x="114" y="540" type="curve" smooth="yes"/>
      <point x="114" y="714" type="line"/>
      <point x="39" y="714" type="line"/>
      <point x="39" y="543" type="line" smooth="yes"/>
      <point x="39" y="405"/>
      <point x="87" y="334"/>
    </contour>
  </outline>
</glyph>
<glyph name="uni141D" format="2">
  <advance width="554"/>
  <unicode hex="141D"/>
  <note>
uni141D
</note>
  <outline>
    <contour>
      <point x="405" y="507" type="curve" smooth="yes"/>
      <point x="464" y="507"/>
      <point x="515" y="554"/>
      <point x="515" y="616" type="curve" smooth="yes"/>
      <point x="515" y="677"/>
      <point x="465" y="726"/>
      <point x="405" y="726" type="curve" smooth="yes"/>
      <point x="342" y="726"/>
      <point x="295" y="675"/>
      <point x="295" y="616" type="curve" smooth="yes"/>
      <point x="295" y="555"/>
      <point x="344" y="507"/>
    </contour>
    <contour>
      <point x="148" y="332" type="curve" smooth="yes"/>
      <point x="208" y="332"/>
      <point x="258" y="379"/>
      <point x="258" y="441" type="curve" smooth="yes"/>
      <point x="258" y="502"/>
      <point x="209" y="551"/>
      <point x="148" y="551" type="curve" smooth="yes"/>
      <point x="86" y="551"/>
      <point x="39" y="500"/>
      <point x="39" y="441" type="curve" smooth="yes"/>
      <point x="39" y="380"/>
      <point x="87" y="332"/>
    </contour>
    <contour>
      <point x="148" y="384" type="curve" smooth="yes"/>
      <point x="117" y="384"/>
      <point x="91" y="410"/>
      <point x="91" y="441" type="curve" smooth="yes"/>
      <point x="91" y="473"/>
      <point x="117" y="499"/>
      <point x="148" y="499" type="curve" smooth="yes"/>
      <point x="180" y="499"/>
      <point x="206" y="473"/>
      <point x="206" y="441" type="curve" smooth="yes"/>
      <point x="206" y="410"/>
      <point x="180" y="384"/>
    </contour>
    <contour>
      <point x="405" y="559" type="curve" smooth="yes"/>
      <point x="374" y="559"/>
      <point x="348" y="585"/>
      <point x="348" y="616" type="curve" smooth="yes"/>
      <point x="348" y="648"/>
      <point x="373" y="673"/>
      <point x="405" y="673" type="curve" smooth="yes"/>
      <point x="437" y="673"/>
      <point x="462" y="648"/>
      <point x="462" y="616" type="curve" smooth="yes"/>
      <point x="462" y="584"/>
      <point x="437" y="559"/>
    </contour>
  </outline>
</glyph>
<glyph name="uni141E" format="2">
  <advance width="491"/>
  <unicode hex="141E"/>
  <note>
uni141E
</note>
  <outline>
    <contour>
      <point x="29" y="342" type="line"/>
      <point x="462" y="342" type="line"/>
      <point x="462" y="364" type="line"/>
      <point x="256" y="736" type="line"/>
      <point x="235" y="736" type="line"/>
      <point x="29" y="364" type="line"/>
    </contour>
    <contour>
      <point x="136" y="409" type="line"/>
      <point x="245" y="606" type="line"/>
      <point x="355" y="409" type="line"/>
    </contour>
  </outline>
</glyph>
<glyph name="uni141F" format="2">
  <advance width="317"/>
  <unicode hex="141F"/>
  <note>
uni141F
</note>
  <outline>
    <contour>
      <point x="29" y="342" type="line"/>
      <point x="112" y="342" type="line"/>
      <point x="288" y="714" type="line"/>
      <point x="204" y="714" type="line"/>
    </contour>
  </outline>
</glyph>
<glyph name="uni1421" format="2">
  <advance width="404"/>
  <unicode hex="1421"/>
  <note>
uni1421
</note>
  <outline>
    <contour>
      <point x="201" y="383" type="curve" smooth="yes"/>
      <point x="313" y="383"/>
      <point x="365" y="437"/>
      <point x="365" y="567" type="curve" smooth="yes"/>
      <point x="365" y="714" type="line"/>
      <point x="290" y="714" type="line"/>
      <point x="290" y="574" type="line" smooth="yes"/>
      <point x="290" y="488"/>
      <point x="261" y="451"/>
      <point x="201" y="451" type="curve" smooth="yes"/>
      <point x="142" y="451"/>
      <point x="114" y="490"/>
      <point x="114" y="574" type="curve" smooth="yes"/>
      <point x="114" y="714" type="line"/>
      <point x="39" y="714" type="line"/>
      <point x="39" y="567" type="line" smooth="yes"/>
      <point x="39" y="438"/>
      <point x="91" y="383"/>
    </contour>
  </outline>
</glyph>
<glyph name="uni1422" format="2">
  <advance width="404"/>
  <unicode hex="1422"/>
  <note>
uni1422
</note>
  <outline>
    <contour>
      <point x="39" y="391" type="line"/>
      <point x="114" y="391" type="line"/>
      <point x="114" y="530" type="line" smooth="yes"/>
      <point x="114" y="615"/>
      <point x="142" y="654"/>
      <point x="201" y="654" type="curve" smooth="yes"/>
      <point x="261" y="654"/>
      <point x="290" y="616"/>
      <point x="290" y="530" type="curve" smooth="yes"/>
      <point x="290" y="391" type="line"/>
      <point x="365" y="391" type="line"/>
      <point x="365" y="537" type="line" smooth="yes"/>
      <point x="365" y="667"/>
      <point x="314" y="721"/>
      <point x="201" y="721" type="curve" smooth="yes"/>
      <point x="91" y="721"/>
      <point x="39" y="667"/>
      <point x="39" y="537" type="curve" smooth="yes"/>
    </contour>
  </outline>
</glyph>
<glyph name="uni1423" format="2">
  <advance width="363"/>
  <unicode hex="1423"/>
  <note>
uni1423
</note>
  <outline>
    <contour>
      <point x="39" y="342" type="line"/>
      <point x="92" y="342" type="line" smooth="yes"/>
      <point x="256" y="342"/>
      <point x="324" y="400"/>
      <point x="324" y="537" type="curve" smooth="yes"/>
      <point x="324" y="659"/>
      <point x="250" y="714"/>
      <point x="102" y="714" type="curve" smooth="yes"/>
      <point x="39" y="714" type="line"/>
      <point x="39" y="646" type="line"/>
      <point x="103" y="646" type="line" smooth="yes"/>
      <point x="207" y="646"/>
      <point x="249" y="611"/>
      <point x="249" y="537" type="curve" smooth="yes"/>
      <point x="249" y="447"/>
      <point x="215" y="409"/>
      <point x="84" y="409" type="curve" smooth="yes"/>
      <point x="39" y="409" type="line"/>
    </contour>
  </outline>
</glyph>
<glyph name="uni1424" format="2">
  <advance width="421"/>
  <unicode hex="1424"/>
  <note>
uni1424
</note>
  <outline>
    <contour>
      <point x="210" y="383" type="curve" smooth="yes"/>
      <point x="306" y="383"/>
      <point x="382" y="459"/>
      <point x="382" y="552" type="curve" smooth="yes"/>
      <point x="382" y="646"/>
      <point x="304" y="721"/>
      <point x="210" y="721" type="curve" smooth="yes"/>
      <point x="118" y="721"/>
      <point x="39" y="646"/>
      <point x="39" y="552" type="curve" smooth="yes"/>
      <point x="39" y="459"/>
      <point x="116" y="383"/>
    </contour>
    <contour>
      <point x="210" y="453" type="curve" smooth="yes"/>
      <point x="156" y="453"/>
      <point x="114" y="499"/>
      <point x="114" y="553" type="curve" smooth="yes"/>
      <point x="114" y="608"/>
      <point x="158" y="652"/>
      <point x="210" y="652" type="curve" smooth="yes"/>
      <point x="263" y="652"/>
      <point x="307" y="607"/>
      <point x="307" y="553" type="curve" smooth="yes"/>
      <point x="307" y="500"/>
      <point x="264" y="453"/>
    </contour>
  </outline>
</glyph>
<glyph name="uni1425" format="2">
  <advance width="461"/>
  <unicode hex="1425"/>
  <note>
uni1425
</note>
  <outline>
    <contour>
      <point x="178" y="342" type="line"/>
      <point x="261" y="342" type="line"/>
      <point x="437" y="714" type="line"/>
      <point x="353" y="714" type="line"/>
    </contour>
    <contour>
      <point x="24" y="342" type="line"/>
      <point x="107" y="342" type="line"/>
      <point x="283" y="714" type="line"/>
      <point x="199" y="714" type="line"/>
    </contour>
  </outline>
</glyph>
<glyph name="uni1426" format="2">
  <advance width="305"/>
  <unicode hex="1426"/>
  <note>
uni1426
</note>
  <outline>
    <contour>
      <point x="190" y="342" type="line"/>
      <point x="266" y="342" type="line"/>
      <point x="266" y="714" type="line"/>
      <point x="190" y="714" type="line"/>
    </contour>
    <contour>
      <point x="39" y="342" type="line"/>
      <point x="114" y="342" type="line"/>
      <point x="114" y="714" type="line"/>
      <point x="39" y="714" type="line"/>
    </contour>
  </outline>
</glyph>
<glyph name="uni1427" format="2">
  <advance width="216"/>
  <unicode hex="1427"/>
  <note>
uni1427
</note>
  <outline>
    <contour>
      <point x="108" y="300" type="curve" smooth="yes"/>
      <point x="141" y="300"/>
      <point x="167" y="327"/>
      <point x="167" y="359" type="curve" smooth="yes"/>
      <point x="167" y="392"/>
      <point x="141" y="418"/>
      <point x="108" y="418" type="curve" smooth="yes"/>
      <point x="75" y="418"/>
      <point x="49" y="392"/>
      <point x="49" y="359" type="curve" smooth="yes"/>
      <point x="49" y="327"/>
      <point x="75" y="300"/>
    </contour>
  </outline>
</glyph>
<glyph name="uni1428" format="2">
  <advance width="446"/>
  <unicode hex="1428"/>
  <note>
uni1428
</note>
  <outline>
    <contour>
      <point x="39" y="500" type="line"/>
      <point x="407" y="500" type="line"/>
      <point x="407" y="568" type="line"/>
      <point x="39" y="568" type="line"/>
    </contour>
  </outline>
</glyph>
<glyph name="uni1429" format="2">
  <advance width="446"/>
  <unicode hex="1429"/>
  <note>
uni1429
</note>
  <outline>
    <contour>
      <point x="186" y="342" type="line"/>
      <point x="261" y="342" type="line"/>
      <point x="261" y="500" type="line"/>
      <point x="407" y="500" type="line"/>
      <point x="407" y="568" type="line"/>
      <point x="261" y="568" type="line"/>
      <point x="261" y="714" type="line"/>
      <point x="186" y="714" type="line"/>
      <point x="186" y="568" type="line"/>
      <point x="39" y="568" type="line"/>
      <point x="39" y="500" type="line"/>
      <point x="186" y="500" type="line"/>
    </contour>
  </outline>
</glyph>
<glyph name="uni142A" format="2">
  <advance width="427"/>
  <unicode hex="142A"/>
  <note>
uni142A
</note>
  <outline>
    <contour>
      <point x="176" y="342" type="line"/>
      <point x="251" y="342" type="line"/>
      <point x="251" y="646" type="line"/>
      <point x="388" y="646" type="line"/>
      <point x="388" y="714" type="line"/>
      <point x="39" y="714" type="line"/>
      <point x="39" y="646" type="line"/>
      <point x="176" y="646" type="line"/>
    </contour>
  </outline>
</glyph>
<glyph name="uni142F" format="2">
  <advance width="777"/>
  <unicode hex="142F"/>
  <note>
uni142F
</note>
  <outline>
    <contour>
      <point x="378" y="-12" type="line"/>
      <point x="398" y="-12" type="line"/>
      <point x="728" y="704" type="line"/>
      <point x="728" y="714" type="line"/>
      <point x="645" y="714" type="line"/>
      <point x="388" y="139" type="line"/>
      <point x="132" y="714" type="line"/>
      <point x="49" y="714" type="line"/>
      <point x="49" y="704" type="line"/>
    </contour>
  </outline>
</glyph>
<glyph name="uni1431" format="2">
  <advance width="777"/>
  <unicode hex="1431"/>
  <note>
uni1431
</note>
  <outline>
    <contour>
      <point x="49" y="0" type="line"/>
      <point x="132" y="0" type="line"/>
      <point x="388" y="575" type="line"/>
      <point x="645" y="0" type="line"/>
      <point x="728" y="0" type="line"/>
      <point x="728" y="10" type="line"/>
      <point x="398" y="726" type="line"/>
      <point x="378" y="726" type="line"/>
      <point x="49" y="10" type="line"/>
    </contour>
  </outline>
</glyph>
<glyph name="uni1438" format="2">
  <advance width="712"/>
  <unicode hex="1438"/>
  <note>
uni1438
</note>
  <outline>
    <contour>
      <point x="653" y="-10" type="line"/>
      <point x="663" y="-10" type="line"/>
      <point x="663" y="74" type="line"/>
      <point x="165" y="357" type="line"/>
      <point x="663" y="641" type="line"/>
      <point x="663" y="725" type="line"/>
      <point x="653" y="725" type="line"/>
      <point x="39" y="364" type="line"/>
      <point x="39" y="350" type="line"/>
    </contour>
  </outline>
</glyph>
<glyph name="uni1449" format="2">
  <advance width="370"/>
  <unicode hex="1449"/>
  <note>
uni1449
</note>
  <outline>
    <contour>
      <point x="331" y="332" type="line"/>
      <point x="331" y="415" type="line"/>
      <point x="145" y="529" type="line"/>
      <point x="331" y="644" type="line"/>
      <point x="331" y="727" type="line"/>
      <point x="29" y="536" type="line"/>
      <point x="29" y="523" type="line"/>
    </contour>
  </outline>
</glyph>
<glyph name="uni144A" format="2">
  <advance width="193"/>
  <unicode hex="144A"/>
  <note>
uni144A
</note>
  <outline>
    <contour>
      <point x="59" y="342" type="line"/>
      <point x="134" y="342" type="line"/>
      <point x="134" y="714" type="line"/>
      <point x="59" y="714" type="line"/>
    </contour>
  </outline>
</glyph>
<glyph name="uni144B" format="2">
	<advance width="352"/>
	<unicode hex="144B"/>
	<note>
		uni144B
	</note>
	<outline>
		<contour>
			<point x="114" y="171" type="line"/>
			<point x="114" y="544" type="line"/>
			<point x="39" y="544" type="line"/>
			<point x="39" y="171" type="line"/>
		</contour>
		<contour>
			<point x="313" y="171" type="line"/>
			<point x="313" y="320" type="line" smooth="yes"/>
			<point x="313" y="402"/>
			<point x="272" y="438"/>
			<point x="202" y="438" type="curve" smooth="yes"/>
			<point x="148" y="438"/>
			<point x="104" y="412"/>
			<point x="104" y="412" type="curve"/>
			<point x="95" y="340" type="line"/>
			<point x="95" y="340"/>
			<point x="134" y="368"/>
			<point x="180" y="368" type="curve" smooth="yes"/>
			<point x="220" y="368"/>
			<point x="238" y="352"/>
			<point x="238" y="302" type="curve" smooth="yes"/>
			<point x="238" y="171" type="line"/>
		</contour>
	</outline>
</glyph>
<glyph name="uni144C" format="2">
  <advance width="766"/>
  <unicode hex="144C"/>
  <note>
uni144C
</note>
  <outline>
    <contour>
      <point x="380" y="-12" type="curve" smooth="yes"/>
      <point x="630" y="-12"/>
      <point x="697" y="119"/>
      <point x="697" y="388" type="curve" smooth="yes"/>
      <point x="697" y="714" type="line"/>
      <point x="619" y="714" type="line"/>
      <point x="619" y="393" type="line" smooth="yes"/>
      <point x="619" y="176"/>
      <point x="582" y="59"/>
      <point x="380" y="59" type="curve" smooth="yes"/>
      <point x="185" y="59"/>
      <point x="146" y="173"/>
      <point x="146" y="393" type="curve" smooth="yes"/>
      <point x="146" y="714" type="line"/>
      <point x="68" y="714" type="line"/>
      <point x="68" y="388" type="line" smooth="yes"/>
      <point x="68" y="128"/>
      <point x="134" y="-12"/>
    </contour>
  </outline>
</glyph>
<glyph name="uni144E" format="2">
  <advance width="766"/>
  <unicode hex="144E"/>
  <note>
uni144E
</note>
  <outline>
    <contour>
      <point x="68" y="0" type="line"/>
      <point x="146" y="0" type="line"/>
      <point x="146" y="321" type="line" smooth="yes"/>
      <point x="146" y="541"/>
      <point x="185" y="655"/>
      <point x="380" y="655" type="curve" smooth="yes"/>
      <point x="582" y="655"/>
      <point x="619" y="538"/>
      <point x="619" y="321" type="curve" smooth="yes"/>
      <point x="619" y="0" type="line"/>
      <point x="697" y="0" type="line"/>
      <point x="697" y="326" type="line" smooth="yes"/>
      <point x="697" y="595"/>
      <point x="630" y="726"/>
      <point x="380" y="726" type="curve" smooth="yes"/>
      <point x="134" y="726"/>
      <point x="68" y="586"/>
      <point x="68" y="326" type="curve" smooth="yes"/>
    </contour>
  </outline>
</glyph>
<glyph name="uni1450" format="2">
  <advance width="682"/>
  <unicode hex="1450"/>
  <note>
uni1450
</note>
  <outline>
    <contour>
      <point x="49" y="0" type="line"/>
      <point x="185" y="0" type="line" smooth="yes"/>
      <point x="462" y="0"/>
      <point x="613" y="87"/>
      <point x="613" y="357" type="curve" smooth="yes"/>
      <point x="613" y="627"/>
      <point x="462" y="714"/>
      <point x="185" y="714" type="curve" smooth="yes"/>
      <point x="49" y="714" type="line"/>
      <point x="49" y="643" type="line"/>
      <point x="195" y="643" type="line" smooth="yes"/>
      <point x="439" y="643"/>
      <point x="533" y="572"/>
      <point x="533" y="357" type="curve" smooth="yes"/>
      <point x="533" y="142"/>
      <point x="439" y="71"/>
      <point x="195" y="71" type="curve" smooth="yes"/>
      <point x="49" y="71" type="line"/>
    </contour>
  </outline>
</glyph>
<glyph name="uni1455" format="2">
  <advance width="682"/>
  <unicode hex="1455"/>
  <note>
uni1455
</note>
  <outline>
    <contour>
      <point x="497" y="0" type="curve" smooth="yes"/>
      <point x="633" y="0" type="line"/>
      <point x="633" y="71" type="line"/>
      <point x="487" y="71" type="line" smooth="yes"/>
      <point x="243" y="71"/>
      <point x="149" y="142"/>
      <point x="149" y="357" type="curve" smooth="yes"/>
      <point x="149" y="572"/>
      <point x="243" y="643"/>
      <point x="487" y="643" type="curve" smooth="yes"/>
      <point x="633" y="643" type="line"/>
      <point x="633" y="714" type="line"/>
      <point x="497" y="714" type="line" smooth="yes"/>
      <point x="220" y="714"/>
      <point x="69" y="627"/>
      <point x="69" y="357" type="curve" smooth="yes"/>
      <point x="69" y="87"/>
      <point x="220" y="0"/>
    </contour>
  </outline>
</glyph>
<glyph name="uni1466" format="2">
  <advance width="310"/>
  <unicode hex="1466"/>
  <note>
uni1466
</note>
  <outline>
    <contour>
      <point x="271" y="342" type="curve"/>
      <point x="271" y="409" type="line"/>
      <point x="147" y="411"/>
      <point x="114" y="449"/>
      <point x="114" y="537" type="curve" smooth="yes"/>
      <point x="114" y="611"/>
      <point x="157" y="646"/>
      <point x="271" y="646" type="curve"/>
      <point x="271" y="714" type="line"/>
      <point x="113" y="714"/>
      <point x="39" y="657"/>
      <point x="39" y="537" type="curve" smooth="yes"/>
      <point x="39" y="400"/>
      <point x="106" y="342"/>
    </contour>
  </outline>
</glyph>
<glyph name="uni146D" format="2">
  <advance width="592"/>
  <unicode hex="146D"/>
  <note>
uni146D
</note>
  <outline>
    <contour>
      <point x="68" y="0" type="line"/>
      <point x="146" y="0" type="line"/>
      <point x="146" y="260" type="line"/>
      <point x="191" y="226"/>
      <point x="239" y="213"/>
      <point x="299" y="213" type="curve" smooth="yes"/>
      <point x="442" y="213"/>
      <point x="533" y="313"/>
      <point x="533" y="472" type="curve" smooth="yes"/>
      <point x="533" y="633"/>
      <point x="450" y="726"/>
      <point x="301" y="726" type="curve" smooth="yes"/>
      <point x="150" y="726"/>
      <point x="68" y="636"/>
      <point x="68" y="458" type="curve" smooth="yes"/>
    </contour>
    <contour>
      <point x="290" y="284" type="curve" smooth="yes"/>
      <point x="209" y="284"/>
      <point x="146" y="352"/>
      <point x="146" y="440" type="curve" smooth="yes"/>
      <point x="146" y="492" type="line" smooth="yes"/>
      <point x="146" y="584"/>
      <point x="208" y="655"/>
      <point x="299" y="655" type="curve" smooth="yes"/>
      <point x="398" y="655"/>
      <point x="455" y="588"/>
      <point x="455" y="476" type="curve" smooth="yes"/>
      <point x="455" y="354"/>
      <point x="397" y="284"/>
    </contour>
  </outline>
</glyph>
<glyph name="uni146F" format="2">
  <advance width="592"/>
  <unicode hex="146F"/>
  <note>
uni146F
</note>
  <outline>
    <contour>
      <point x="291" y="-12" type="curve" smooth="yes"/>
      <point x="442" y="-12"/>
      <point x="523" y="78"/>
      <point x="523" y="255" type="curve" smooth="yes"/>
      <point x="523" y="714" type="line"/>
      <point x="445" y="714" type="line"/>
      <point x="445" y="454" type="line"/>
      <point x="400" y="488"/>
      <point x="353" y="500"/>
      <point x="292" y="500" type="curve" smooth="yes"/>
      <point x="149" y="500"/>
      <point x="59" y="401"/>
      <point x="59" y="242" type="curve" smooth="yes"/>
      <point x="59" y="81"/>
      <point x="142" y="-12"/>
    </contour>
    <contour>
      <point x="292" y="59" type="curve" smooth="yes"/>
      <point x="193" y="59"/>
      <point x="137" y="127"/>
      <point x="137" y="238" type="curve" smooth="yes"/>
      <point x="137" y="360"/>
      <point x="195" y="430"/>
      <point x="302" y="430" type="curve" smooth="yes"/>
      <point x="382" y="430"/>
      <point x="445" y="362"/>
      <point x="445" y="273" type="curve" smooth="yes"/>
      <point x="445" y="222" type="line" smooth="yes"/>
      <point x="445" y="130"/>
      <point x="384" y="59"/>
    </contour>
  </outline>
</glyph>
<glyph name="uni1472" format="2">
  <advance width="592"/>
  <unicode hex="1472"/>
  <note>
uni1472
</note>
  <outline>
    <contour>
      <point x="301" y="-12" type="curve" smooth="yes"/>
      <point x="450" y="-12"/>
      <point x="533" y="81"/>
      <point x="533" y="242" type="curve" smooth="yes"/>
      <point x="533" y="399"/>
      <point x="444" y="500"/>
      <point x="299" y="500" type="curve" smooth="yes"/>
      <point x="239" y="500"/>
      <point x="191" y="488"/>
      <point x="146" y="454" type="curve"/>
      <point x="146" y="714" type="line"/>
      <point x="68" y="714" type="line"/>
      <point x="68" y="255" type="line" smooth="yes"/>
      <point x="68" y="79"/>
      <point x="149" y="-12"/>
    </contour>
    <contour>
      <point x="299" y="59" type="curve" smooth="yes"/>
      <point x="209" y="59"/>
      <point x="146" y="129"/>
      <point x="146" y="222" type="curve" smooth="yes"/>
      <point x="146" y="273" type="line" smooth="yes"/>
      <point x="146" y="362"/>
      <point x="209" y="430"/>
      <point x="290" y="430" type="curve" smooth="yes"/>
      <point x="397" y="430"/>
      <point x="455" y="360"/>
      <point x="455" y="238" type="curve" smooth="yes"/>
      <point x="455" y="126"/>
      <point x="398" y="59"/>
    </contour>
  </outline>
</glyph>
<glyph name="uni1483" format="2">
  <advance width="391"/>
  <unicode hex="1483"/>
  <note>
uni1483
</note>
  <outline>
    <contour>
      <point x="205" y="334" type="curve" smooth="yes"/>
      <point x="289" y="334"/>
      <point x="352" y="393"/>
      <point x="352" y="472" type="curve" smooth="yes"/>
      <point x="352" y="554"/>
      <point x="292" y="609"/>
      <point x="206" y="609" type="curve" smooth="yes"/>
      <point x="176" y="609"/>
      <point x="152" y="604"/>
      <point x="134" y="592" type="curve"/>
      <point x="134" y="714" type="line"/>
      <point x="59" y="714" type="line"/>
      <point x="59" y="501" type="line" smooth="yes"/>
      <point x="59" y="396"/>
      <point x="108" y="334"/>
    </contour>
    <contour>
      <point x="205" y="402" type="curve" smooth="yes"/>
      <point x="158" y="402"/>
      <point x="134" y="423"/>
      <point x="134" y="475" type="curve" smooth="yes"/>
      <point x="134" y="516"/>
      <point x="162" y="543"/>
      <point x="205" y="543" type="curve" smooth="yes"/>
      <point x="253" y="543"/>
      <point x="277" y="519"/>
      <point x="277" y="471" type="curve" smooth="yes"/>
      <point x="277" y="424"/>
      <point x="247" y="402"/>
    </contour>
  </outline>
</glyph>
<glyph name="uni1484" format="2">
  <advance width="391"/>
  <unicode hex="1484"/>
  <note>
uni1484
</note>
  <outline>
    <contour>
      <point x="186" y="334" type="curve" smooth="yes"/>
      <point x="283" y="334"/>
      <point x="333" y="396"/>
      <point x="333" y="501" type="curve" smooth="yes"/>
      <point x="333" y="714" type="line"/>
      <point x="257" y="714" type="line"/>
      <point x="257" y="592" type="line"/>
      <point x="239" y="604"/>
      <point x="215" y="609"/>
      <point x="185" y="609" type="curve" smooth="yes"/>
      <point x="99" y="609"/>
      <point x="39" y="554"/>
      <point x="39" y="472" type="curve" smooth="yes"/>
      <point x="39" y="392"/>
      <point x="102" y="334"/>
    </contour>
    <contour>
      <point x="186" y="402" type="curve" smooth="yes"/>
      <point x="145" y="402"/>
      <point x="114" y="424"/>
      <point x="114" y="471" type="curve" smooth="yes"/>
      <point x="114" y="519"/>
      <point x="138" y="543"/>
      <point x="186" y="543" type="curve" smooth="yes"/>
      <point x="229" y="543"/>
      <point x="257" y="516"/>
      <point x="257" y="475" type="curve" smooth="yes"/>
      <point x="257" y="423"/>
      <point x="233" y="402"/>
    </contour>
  </outline>
</glyph>
<glyph name="uni1489" format="2">
  <advance width="633"/>
  <unicode hex="1489"/>
  <note>
uni1489
</note>
  <outline>
    <contour>
      <point x="486" y="0" type="line"/>
      <point x="564" y="0" type="line"/>
      <point x="564" y="378" type="line" smooth="yes"/>
      <point x="564" y="606"/>
      <point x="517" y="726"/>
      <point x="313" y="726" type="curve" smooth="yes"/>
      <point x="117" y="726"/>
      <point x="59" y="629"/>
      <point x="59" y="429" type="curve" smooth="yes"/>
      <point x="59" y="411" type="line"/>
      <point x="137" y="411" type="line"/>
      <point x="137" y="429" type="line" smooth="yes"/>
      <point x="137" y="606"/>
      <point x="185" y="655"/>
      <point x="313" y="655" type="curve" smooth="yes"/>
      <point x="456" y="655"/>
      <point x="486" y="567"/>
      <point x="486" y="405" type="curve" smooth="yes"/>
    </contour>
  </outline>
</glyph>
<glyph name="uni148B" format="2">
  <advance width="633"/>
  <unicode hex="148B"/>
  <note>
uni148B
</note>
  <outline>
    <contour>
      <point x="69" y="0" type="line"/>
      <point x="147" y="0" type="line"/>
      <point x="147" y="405" type="line" smooth="yes"/>
      <point x="147" y="567"/>
      <point x="177" y="655"/>
      <point x="320" y="655" type="curve" smooth="yes"/>
      <point x="448" y="655"/>
      <point x="496" y="606"/>
      <point x="496" y="429" type="curve" smooth="yes"/>
      <point x="496" y="411" type="line"/>
      <point x="574" y="411" type="line"/>
      <point x="574" y="429" type="line" smooth="yes"/>
      <point x="574" y="629"/>
      <point x="516" y="726"/>
      <point x="320" y="726" type="curve" smooth="yes"/>
      <point x="116" y="726"/>
      <point x="69" y="606"/>
      <point x="69" y="378" type="curve" smooth="yes"/>
    </contour>
  </outline>
</glyph>
<glyph name="uni148D" format="2">
  <advance width="633"/>
  <unicode hex="148D"/>
  <note>
uni148D
</note>
  <outline>
    <contour>
      <point x="313" y="-12" type="curve" smooth="yes"/>
      <point x="517" y="-12"/>
      <point x="564" y="108"/>
      <point x="564" y="336" type="curve" smooth="yes"/>
      <point x="564" y="714" type="line"/>
      <point x="486" y="714" type="line"/>
      <point x="486" y="309" type="line" smooth="yes"/>
      <point x="486" y="147"/>
      <point x="456" y="59"/>
      <point x="313" y="59" type="curve" smooth="yes"/>
      <point x="185" y="59"/>
      <point x="137" y="108"/>
      <point x="137" y="285" type="curve" smooth="yes"/>
      <point x="137" y="303" type="line"/>
      <point x="59" y="303" type="line"/>
      <point x="59" y="285" type="line" smooth="yes"/>
      <point x="59" y="85"/>
      <point x="117" y="-12"/>
    </contour>
  </outline>
</glyph>
<glyph name="uni1490" format="2">
  <advance width="633"/>
  <unicode hex="1490"/>
  <note>
uni1490
</note>
  <outline>
    <contour>
      <point x="320" y="-12" type="curve" smooth="yes"/>
      <point x="516" y="-12"/>
      <point x="574" y="85"/>
      <point x="574" y="285" type="curve" smooth="yes"/>
      <point x="574" y="303" type="line"/>
      <point x="496" y="303" type="line"/>
      <point x="496" y="285" type="line" smooth="yes"/>
      <point x="496" y="108"/>
      <point x="448" y="59"/>
      <point x="320" y="59" type="curve" smooth="yes"/>
      <point x="177" y="59"/>
      <point x="147" y="147"/>
      <point x="147" y="309" type="curve" smooth="yes"/>
      <point x="147" y="714" type="line"/>
      <point x="69" y="714" type="line"/>
      <point x="69" y="336" type="line" smooth="yes"/>
      <point x="69" y="108"/>
      <point x="116" y="-12"/>
    </contour>
  </outline>
</glyph>
<glyph name="uni14A1" format="2">
  <advance width="381"/>
  <unicode hex="14A1"/>
  <note>
uni14A1
</note>
  <outline>
    <contour>
      <point x="195" y="334" type="curve" smooth="yes"/>
      <point x="287" y="334"/>
      <point x="342" y="393"/>
      <point x="342" y="495" type="curve" smooth="yes"/>
      <point x="342" y="520" type="line"/>
      <point x="267" y="520" type="line"/>
      <point x="267" y="498" type="line" smooth="yes"/>
      <point x="267" y="434"/>
      <point x="241" y="402"/>
      <point x="195" y="402" type="curve" smooth="yes"/>
      <point x="147" y="402"/>
      <point x="124" y="431"/>
      <point x="124" y="510" type="curve" smooth="yes"/>
      <point x="124" y="714" type="line"/>
      <point x="49" y="714" type="line"/>
      <point x="49" y="501" type="line" smooth="yes"/>
      <point x="49" y="396"/>
      <point x="98" y="334"/>
    </contour>
  </outline>
</glyph>
<glyph name="uni14A2" format="2">
  <advance width="381"/>
  <unicode hex="14A2"/>
  <note>
uni14A2
</note>
  <outline>
    <contour>
      <point x="196" y="334" type="curve" smooth="yes"/>
      <point x="293" y="334"/>
      <point x="342" y="396"/>
      <point x="342" y="501" type="curve" smooth="yes"/>
      <point x="342" y="714" type="line"/>
      <point x="267" y="714" type="line"/>
      <point x="267" y="510" type="line" smooth="yes"/>
      <point x="267" y="430"/>
      <point x="244" y="402"/>
      <point x="196" y="402" type="curve" smooth="yes"/>
      <point x="149" y="402"/>
      <point x="124" y="435"/>
      <point x="124" y="498" type="curve" smooth="yes"/>
      <point x="124" y="520" type="line"/>
      <point x="49" y="520" type="line"/>
      <point x="49" y="495" type="line" smooth="yes"/>
      <point x="49" y="393"/>
      <point x="104" y="334"/>
    </contour>
  </outline>
</glyph>
<glyph name="uni14A3" format="2">
  <advance width="591"/>
  <unicode hex="14A3"/>
  <note>
uni14A3
</note>
  <outline>
    <contour>
      <point x="445" y="0" type="line"/>
      <point x="523" y="0" type="line"/>
      <point x="523" y="714" type="line"/>
      <point x="49" y="714" type="line"/>
      <point x="49" y="643" type="line"/>
      <point x="445" y="643" type="line"/>
    </contour>
  </outline>
</glyph>
<glyph name="uni14A5" format="2">
  <advance width="591"/>
  <unicode hex="14A5"/>
  <note>
uni14A5
</note>
  <outline>
    <contour>
      <point x="68" y="0" type="line"/>
      <point x="146" y="0" type="line"/>
      <point x="146" y="643" type="line"/>
      <point x="542" y="643" type="line"/>
      <point x="542" y="714" type="line"/>
      <point x="68" y="714" type="line"/>
    </contour>
  </outline>
</glyph>
<glyph name="uni14BC" format="2">
  <advance width="363"/>
  <unicode hex="14BC"/>
  <note>
uni14BC
</note>
  <outline>
    <contour>
      <point x="271" y="342" type="curve" smooth="yes"/>
      <point x="324" y="342" type="line"/>
      <point x="324" y="409" type="line"/>
      <point x="279" y="409" type="line" smooth="yes"/>
      <point x="149" y="409"/>
      <point x="114" y="447"/>
      <point x="114" y="537" type="curve" smooth="yes"/>
      <point x="114" y="611"/>
      <point x="157" y="646"/>
      <point x="260" y="646" type="curve" smooth="yes"/>
      <point x="324" y="646" type="line"/>
      <point x="324" y="714" type="line"/>
      <point x="262" y="714" type="line" smooth="yes"/>
      <point x="114" y="714"/>
      <point x="39" y="659"/>
      <point x="39" y="537" type="curve" smooth="yes"/>
      <point x="39" y="400"/>
      <point x="108" y="342"/>
    </contour>
  </outline>
</glyph>
<glyph name="uni14BD" format="2">
  <advance width="354"/>
  <unicode hex="14BD"/>
  <note>
uni14BD
</note>
  <outline>
    <contour>
      <point x="39" y="342" type="line"/>
      <point x="315" y="342" type="line"/>
      <point x="315" y="714" type="line"/>
      <point x="240" y="714" type="line"/>
      <point x="240" y="409" type="line"/>
      <point x="39" y="409" type="line"/>
    </contour>
  </outline>
</glyph>
<glyph name="uni14BE" format="2">
  <advance width="370"/>
  <unicode hex="14BE"/>
  <note>
uni14BE
</note>
  <outline>
    <contour>
      <point x="48" y="342" type="line"/>
      <point x="331" y="342" type="line"/>
      <point x="331" y="409" type="line"/>
      <point x="173" y="409" type="line"/>
      <point x="274" y="501" type="line" smooth="yes"/>
      <point x="317" y="540"/>
      <point x="330" y="564"/>
      <point x="330" y="609" type="curve" smooth="yes"/>
      <point x="330" y="673"/>
      <point x="268" y="721"/>
      <point x="188" y="721" type="curve" smooth="yes"/>
      <point x="100" y="721"/>
      <point x="43" y="675"/>
      <point x="39" y="593" type="curve"/>
      <point x="111" y="593" type="line"/>
      <point x="111" y="632"/>
      <point x="139" y="654"/>
      <point x="187" y="654" type="curve" smooth="yes"/>
      <point x="224" y="654"/>
      <point x="254" y="635"/>
      <point x="254" y="606" type="curve" smooth="yes"/>
      <point x="254" y="568"/>
      <point x="214" y="532"/>
      <point x="161" y="484" type="curve" smooth="yes"/>
      <point x="48" y="383" type="line"/>
    </contour>
  </outline>
</glyph>
<glyph name="uni14BF" format="2">
  <advance width="585"/>
  <unicode hex="14BF"/>
  <note>
uni14BF
</note>
  <outline>
    <contour>
      <point x="74" y="0" type="line"/>
      <point x="526" y="0" type="line"/>
      <point x="526" y="71" type="line"/>
      <point x="196" y="71" type="line"/>
      <point x="343" y="201" type="line" smooth="yes"/>
      <point x="495" y="335"/>
      <point x="526" y="411"/>
      <point x="526" y="511" type="curve" smooth="yes"/>
      <point x="526" y="644"/>
      <point x="438" y="726"/>
      <point x="290" y="726" type="curve" smooth="yes"/>
      <point x="147" y="726"/>
      <point x="59" y="657"/>
      <point x="59" y="532" type="curve"/>
      <point x="137" y="532" type="line"/>
      <point x="137" y="612"/>
      <point x="193" y="655"/>
      <point x="289" y="655" type="curve" smooth="yes"/>
      <point x="385" y="655"/>
      <point x="446" y="598"/>
      <point x="446" y="507" type="curve" smooth="yes"/>
      <point x="446" y="398"/>
      <point x="374" y="324"/>
      <point x="263" y="224" type="curve" smooth="yes"/>
      <point x="74" y="55" type="line"/>
    </contour>
  </outline>
</glyph>
<glyph name="uni14C2" format="2">
  <advance width="904"/>
  <unicode hex="14C2"/>
  <note>
uni14C2
</note>
  <outline>
    <contour>
      <point x="311" y="-12" type="curve" smooth="yes"/>
      <point x="458" y="-12"/>
      <point x="564" y="91"/>
      <point x="564" y="233" type="curve" smooth="yes"/>
      <point x="564" y="323"/>
      <point x="546" y="372"/>
      <point x="495" y="430" type="curve"/>
      <point x="855" y="430" type="line"/>
      <point x="855" y="500" type="line"/>
      <point x="320" y="500" type="line" smooth="yes"/>
      <point x="161" y="500"/>
      <point x="59" y="404"/>
      <point x="59" y="246" type="curve" smooth="yes"/>
      <point x="59" y="88"/>
      <point x="156" y="-12"/>
    </contour>
    <contour>
      <point x="307" y="59" type="curve" smooth="yes"/>
      <point x="204" y="59"/>
      <point x="137" y="135"/>
      <point x="137" y="248" type="curve" smooth="yes"/>
      <point x="137" y="359"/>
      <point x="212" y="430"/>
      <point x="311" y="430" type="curve" smooth="yes"/>
      <point x="420" y="430"/>
      <point x="486" y="354"/>
      <point x="486" y="235" type="curve" smooth="yes"/>
      <point x="486" y="129"/>
      <point x="408" y="59"/>
    </contour>
  </outline>
</glyph>
<glyph name="uni14C4" format="2">
  <advance width="904"/>
  <unicode hex="14C4"/>
  <note>
uni14C4
</note>
  <outline>
    <contour>
      <point x="49" y="0" type="line"/>
      <point x="584" y="0" type="line" smooth="yes"/>
      <point x="743" y="0"/>
      <point x="846" y="96"/>
      <point x="846" y="254" type="curve" smooth="yes"/>
      <point x="846" y="412"/>
      <point x="748" y="513"/>
      <point x="594" y="513" type="curve" smooth="yes"/>
      <point x="447" y="513"/>
      <point x="340" y="410"/>
      <point x="340" y="268" type="curve" smooth="yes"/>
      <point x="340" y="178"/>
      <point x="359" y="129"/>
      <point x="410" y="71" type="curve"/>
      <point x="49" y="71" type="line"/>
    </contour>
    <contour>
      <point x="593" y="71" type="curve" smooth="yes"/>
      <point x="484" y="71"/>
      <point x="418" y="147"/>
      <point x="418" y="266" type="curve" smooth="yes"/>
      <point x="418" y="371"/>
      <point x="497" y="442"/>
      <point x="598" y="442" type="curve" smooth="yes"/>
      <point x="701" y="442"/>
      <point x="768" y="366"/>
      <point x="768" y="253" type="curve" smooth="yes"/>
      <point x="768" y="142"/>
      <point x="692" y="71"/>
    </contour>
  </outline>
</glyph>
<glyph name="uni14C7" format="2">
  <advance width="904"/>
  <unicode hex="14C7"/>
  <note>
uni14C7
</note>
  <outline>
    <contour>
      <point x="320" y="0" type="curve" smooth="yes"/>
      <point x="855" y="0" type="line"/>
      <point x="855" y="71" type="line"/>
      <point x="495" y="71" type="line"/>
      <point x="545" y="128"/>
      <point x="564" y="175"/>
      <point x="564" y="268" type="curve" smooth="yes"/>
      <point x="564" y="410"/>
      <point x="458" y="513"/>
      <point x="311" y="513" type="curve" smooth="yes"/>
      <point x="157" y="513"/>
      <point x="59" y="412"/>
      <point x="59" y="254" type="curve" smooth="yes"/>
      <point x="59" y="96"/>
      <point x="161" y="0"/>
    </contour>
    <contour>
      <point x="311" y="71" type="curve" smooth="yes"/>
      <point x="212" y="71"/>
      <point x="137" y="142"/>
      <point x="137" y="253" type="curve" smooth="yes"/>
      <point x="137" y="368"/>
      <point x="205" y="442"/>
      <point x="307" y="442" type="curve" smooth="yes"/>
      <point x="408" y="442"/>
      <point x="486" y="371"/>
      <point x="486" y="266" type="curve" smooth="yes"/>
      <point x="486" y="147"/>
      <point x="420" y="71"/>
    </contour>
  </outline>
</glyph>
<glyph name="uni14D0" format="2">
  <advance width="579"/>
  <unicode hex="14D0"/>
  <note>
uni14D0
</note>
  <outline>
    <contour>
      <point x="194" y="391" type="curve" smooth="yes"/>
      <point x="555" y="391" type="line"/>
      <point x="555" y="458" type="line"/>
      <point x="327" y="458" type="line"/>
      <point x="348" y="487"/>
      <point x="358" y="520"/>
      <point x="358" y="558" type="curve" smooth="yes"/>
      <point x="358" y="647"/>
      <point x="289" y="719"/>
      <point x="199" y="719" type="curve" smooth="yes"/>
      <point x="109" y="719"/>
      <point x="39" y="647"/>
      <point x="39" y="558" type="curve" smooth="yes"/>
      <point x="39" y="468"/>
      <point x="108" y="391"/>
    </contour>
    <contour>
      <point x="199" y="466" type="curve" smooth="yes"/>
      <point x="152" y="466"/>
      <point x="114" y="507"/>
      <point x="114" y="560" type="curve" smooth="yes"/>
      <point x="114" y="611"/>
      <point x="151" y="651"/>
      <point x="199" y="651" type="curve" smooth="yes"/>
      <point x="247" y="651"/>
      <point x="283" y="610"/>
      <point x="283" y="560" type="curve" smooth="yes"/>
      <point x="283" y="508"/>
      <point x="246" y="466"/>
    </contour>
  </outline>
</glyph>
<glyph name="uni14D1" format="2">
	<advance width="424"/>
	<unicode hex="14D1"/>
	<note>
		uni14D1
	</note>
	<outline>
		<contour>
			<point x="39" y="544" type="line"/>
			<point x="39" y="349" type="line" smooth="yes"/>
			<point x="39" y="219"/>
			<point x="101" y="165"/>
			<point x="211" y="165" type="curve" smooth="yes"/>
			<point x="324" y="165"/>
			<point x="385" y="219"/>
			<point x="385" y="349" type="curve" smooth="yes"/>
			<point x="385" y="544" type="line"/>
			<point x="310" y="544" type="line"/>
			<point x="310" y="356" type="line" smooth="yes"/>
			<point x="310" y="270"/>
			<point x="281" y="232"/>
			<point x="211" y="232" type="curve" smooth="yes"/>
			<point x="142" y="232"/>
			<point x="114" y="271"/>
			<point x="114" y="356" type="curve" smooth="yes"/>
			<point x="114" y="544" type="line"/>
		</contour>
	</outline>
</glyph>
<glyph name="uni14D2" format="2">
  <advance width="579"/>
  <unicode hex="14D2"/>
  <note>
uni14D2
</note>
  <outline>
    <contour>
      <point x="24" y="391" type="line"/>
      <point x="385" y="391" type="line" smooth="yes"/>
      <point x="471" y="391"/>
      <point x="540" y="469"/>
      <point x="540" y="558" type="curve" smooth="yes"/>
      <point x="540" y="646"/>
      <point x="470" y="719"/>
      <point x="380" y="719" type="curve" smooth="yes"/>
      <point x="291" y="719"/>
      <point x="221" y="647"/>
      <point x="221" y="558" type="curve" smooth="yes"/>
      <point x="221" y="520"/>
      <point x="231" y="487"/>
      <point x="252" y="458" type="curve"/>
      <point x="24" y="458" type="line"/>
    </contour>
    <contour>
      <point x="380" y="466" type="curve" smooth="yes"/>
      <point x="332" y="466"/>
      <point x="296" y="509"/>
      <point x="296" y="560" type="curve" smooth="yes"/>
      <point x="296" y="611"/>
      <point x="332" y="651"/>
      <point x="380" y="651" type="curve" smooth="yes"/>
      <point x="428" y="651"/>
      <point x="465" y="611"/>
      <point x="465" y="560" type="curve" smooth="yes"/>
      <point x="465" y="507"/>
      <point x="427" y="466"/>
    </contour>
  </outline>
</glyph>
<glyph name="uni14D3" format="2">
  <advance width="885"/>
  <unicode hex="14D3"/>
  <note>
uni14D3
</note>
  <outline>
    <contour>
      <point x="475" y="0" type="line"/>
      <point x="574" y="0" type="line" smooth="yes"/>
      <point x="726" y="0"/>
      <point x="826" y="99"/>
      <point x="826" y="249" type="curve" smooth="yes"/>
      <point x="826" y="417"/>
      <point x="734" y="500"/>
      <point x="551" y="500" type="curve" smooth="yes"/>
      <point x="49" y="500" type="line"/>
      <point x="49" y="430" type="line"/>
      <point x="541" y="430" type="line" smooth="yes"/>
      <point x="681" y="430"/>
      <point x="748" y="375"/>
      <point x="748" y="250" type="curve" smooth="yes"/>
      <point x="748" y="144"/>
      <point x="680" y="71"/>
      <point x="578" y="71" type="curve" smooth="yes"/>
      <point x="475" y="71" type="line"/>
    </contour>
  </outline>
</glyph>
<glyph name="uni14D5" format="2">
  <advance width="885"/>
  <unicode hex="14D5"/>
  <note>
uni14D5
</note>
  <outline>
    <contour>
      <point x="311" y="0" type="curve" smooth="yes"/>
      <point x="410" y="0" type="line"/>
      <point x="410" y="71" type="line"/>
      <point x="307" y="71" type="line" smooth="yes"/>
      <point x="204" y="71"/>
      <point x="137" y="143"/>
      <point x="137" y="250" type="curve" smooth="yes"/>
      <point x="137" y="375"/>
      <point x="204" y="430"/>
      <point x="344" y="430" type="curve" smooth="yes"/>
      <point x="836" y="430" type="line"/>
      <point x="836" y="500" type="line"/>
      <point x="333" y="500" type="line" smooth="yes"/>
      <point x="150" y="500"/>
      <point x="59" y="417"/>
      <point x="59" y="249" type="curve" smooth="yes"/>
      <point x="59" y="99"/>
      <point x="160" y="0"/>
    </contour>
  </outline>
</glyph>
<glyph name="uni14D7" format="2">
  <advance width="885"/>
  <unicode hex="14D7"/>
  <note>
uni14D7
</note>
  <outline>
    <contour>
      <point x="49" y="0" type="line"/>
      <point x="551" y="0" type="line" smooth="yes"/>
      <point x="734" y="0"/>
      <point x="826" y="84"/>
      <point x="826" y="252" type="curve" smooth="yes"/>
      <point x="826" y="402"/>
      <point x="725" y="500"/>
      <point x="574" y="500" type="curve" smooth="yes"/>
      <point x="475" y="500" type="line"/>
      <point x="475" y="430" type="line"/>
      <point x="578" y="430" type="line" smooth="yes"/>
      <point x="681" y="430"/>
      <point x="748" y="357"/>
      <point x="748" y="250" type="curve" smooth="yes"/>
      <point x="748" y="126"/>
      <point x="681" y="71"/>
      <point x="541" y="71" type="curve" smooth="yes"/>
      <point x="49" y="71" type="line"/>
    </contour>
  </outline>
</glyph>
<glyph name="uni14DA" format="2">
  <advance width="885"/>
  <unicode hex="14DA"/>
  <note>
uni14DA
</note>
  <outline>
    <contour>
      <point x="333" y="0" type="curve" smooth="yes"/>
      <point x="836" y="0" type="line"/>
      <point x="836" y="71" type="line"/>
      <point x="344" y="71" type="line" smooth="yes"/>
      <point x="204" y="71"/>
      <point x="137" y="126"/>
      <point x="137" y="250" type="curve" smooth="yes"/>
      <point x="137" y="356"/>
      <point x="205" y="430"/>
      <point x="307" y="430" type="curve" smooth="yes"/>
      <point x="410" y="430" type="line"/>
      <point x="410" y="500" type="line"/>
      <point x="311" y="500" type="line" smooth="yes"/>
      <point x="159" y="500"/>
      <point x="59" y="402"/>
      <point x="59" y="252" type="curve" smooth="yes"/>
      <point x="59" y="84"/>
      <point x="150" y="0"/>
    </contour>
  </outline>
</glyph>
<glyph name="uni14EA" format="2">
  <advance width="522"/>
  <unicode hex="14EA"/>
  <note>
uni14EA
</note>
  <outline>
    <contour>
      <point x="210" y="391" type="curve" smooth="yes"/>
      <point x="483" y="391" type="line"/>
      <point x="483" y="458" type="line"/>
      <point x="211" y="458" type="line" smooth="yes"/>
      <point x="150" y="458"/>
      <point x="114" y="496"/>
      <point x="114" y="557" type="curve" smooth="yes"/>
      <point x="114" y="609"/>
      <point x="152" y="646"/>
      <point x="208" y="646" type="curve" smooth="yes"/>
      <point x="230" y="646" type="line"/>
      <point x="230" y="714" type="line"/>
      <point x="204" y="714" type="line" smooth="yes"/>
      <point x="106" y="714"/>
      <point x="39" y="651"/>
      <point x="39" y="557" type="curve" smooth="yes"/>
      <point x="39" y="452"/>
      <point x="104" y="391"/>
    </contour>
  </outline>
</glyph>
<glyph name="uni14EB" format="2">
  <advance width="358"/>
  <unicode hex="14EB"/>
  <note>
uni14EB
</note>
  <outline>
    <contour>
      <point x="305" y="315" type="line"/>
      <point x="319" y="315" type="line"/>
      <point x="319" y="373" type="line"/>
      <point x="128" y="432" type="line"/>
      <point x="319" y="499" type="line"/>
      <point x="319" y="549" type="line"/>
      <point x="128" y="611" type="line"/>
      <point x="319" y="669" type="line"/>
      <point x="319" y="726" type="line"/>
      <point x="304" y="726" type="line"/>
      <point x="39" y="637" type="line"/>
      <point x="39" y="585" type="line"/>
      <point x="215" y="523" type="line"/>
      <point x="39" y="459" type="line"/>
      <point x="39" y="408" type="line"/>
    </contour>
  </outline>
</glyph>
<glyph name="uni14EC" format="2">
  <advance width="619"/>
  <unicode hex="14EC"/>
  <note>
uni14EC
</note>
  <outline>
    <contour>
      <point x="550" y="-12" type="line"/>
      <point x="560" y="-12" type="line"/>
      <point x="560" y="64" type="line"/>
      <point x="161" y="193" type="line"/>
      <point x="560" y="335" type="line"/>
      <point x="560" y="379" type="line"/>
      <point x="161" y="521" type="line"/>
      <point x="560" y="649" type="line"/>
      <point x="560" y="726" type="line"/>
      <point x="550" y="726" type="line"/>
      <point x="59" y="561" type="line"/>
      <point x="59" y="486" type="line"/>
      <point x="419" y="357" type="line"/>
      <point x="59" y="228" type="line"/>
      <point x="59" y="153" type="line"/>
    </contour>
  </outline>
</glyph>
<glyph name="uni14ED" format="2">
  <advance width="578"/>
  <unicode hex="14ED"/>
  <note>
uni14ED
</note>
  <outline>
    <contour>
      <point x="431" y="0" type="line"/>
      <point x="509" y="0" type="line"/>
      <point x="509" y="327" type="line"/>
      <point x="431" y="327" type="line" smooth="yes"/>
      <point x="228" y="327"/>
      <point x="137" y="421"/>
      <point x="137" y="647" type="curve" smooth="yes"/>
      <point x="137" y="714" type="line"/>
      <point x="59" y="714" type="line"/>
      <point x="59" y="629" type="line" smooth="yes"/>
      <point x="59" y="391"/>
      <point x="184" y="256"/>
      <point x="411" y="256" type="curve" smooth="yes"/>
      <point x="431" y="256" type="line"/>
    </contour>
  </outline>
</glyph>
<glyph name="uni14EF" format="2">
  <advance width="577"/>
  <unicode hex="14EF"/>
  <note>
uni14EF
</note>
  <outline>
    <contour>
      <point x="68" y="0" type="line"/>
      <point x="146" y="0" type="line"/>
      <point x="146" y="256" type="line"/>
      <point x="167" y="256" type="line" smooth="yes"/>
      <point x="394" y="256"/>
      <point x="519" y="391"/>
      <point x="519" y="629" type="curve" smooth="yes"/>
      <point x="519" y="714" type="line"/>
      <point x="440" y="714" type="line"/>
      <point x="440" y="647" type="line" smooth="yes"/>
      <point x="440" y="420"/>
      <point x="348" y="327"/>
      <point x="146" y="327" type="curve" smooth="yes"/>
      <point x="68" y="327" type="line"/>
    </contour>
  </outline>
</glyph>
<glyph name="uni14F1" format="2">
  <advance width="578"/>
  <unicode hex="14F1"/>
  <note>
uni14F1
</note>
  <outline>
    <contour>
      <point x="59" y="0" type="line"/>
      <point x="137" y="0" type="line"/>
      <point x="137" y="67" type="line" smooth="yes"/>
      <point x="137" y="293"/>
      <point x="229" y="387"/>
      <point x="431" y="387" type="curve" smooth="yes"/>
      <point x="509" y="387" type="line"/>
      <point x="509" y="714" type="line"/>
      <point x="431" y="714" type="line"/>
      <point x="431" y="458" type="line"/>
      <point x="411" y="458" type="line" smooth="yes"/>
      <point x="184" y="458"/>
      <point x="59" y="323"/>
      <point x="59" y="85" type="curve" smooth="yes"/>
    </contour>
  </outline>
</glyph>
<glyph name="uni14F4" format="2">
  <advance width="577"/>
  <unicode hex="14F4"/>
  <note>
uni14F4
</note>
  <outline>
    <contour>
      <point x="440" y="0" type="line"/>
      <point x="519" y="0" type="line"/>
      <point x="519" y="85" type="line" smooth="yes"/>
      <point x="519" y="323"/>
      <point x="394" y="458"/>
      <point x="167" y="458" type="curve" smooth="yes"/>
      <point x="146" y="458" type="line"/>
      <point x="146" y="714" type="line"/>
      <point x="68" y="714" type="line"/>
      <point x="68" y="387" type="line"/>
      <point x="146" y="387" type="line" smooth="yes"/>
      <point x="349" y="387"/>
      <point x="440" y="293"/>
      <point x="440" y="67" type="curve" smooth="yes"/>
    </contour>
  </outline>
</glyph>
<glyph name="uni1505" format="2">
  <advance width="352"/>
  <unicode hex="1505"/>
  <note>
uni1505
</note>
  <outline>
    <contour>
      <point x="237" y="342" type="line"/>
      <point x="313" y="342" type="line"/>
      <point x="313" y="395" type="line" smooth="yes"/>
      <point x="313" y="525"/>
      <point x="257" y="585"/>
      <point x="130" y="585" type="curve" smooth="yes"/>
      <point x="114" y="585" type="line"/>
      <point x="114" y="714" type="line"/>
      <point x="39" y="714" type="line"/>
      <point x="39" y="518" type="line"/>
      <point x="96" y="518" type="line" smooth="yes"/>
      <point x="202" y="518"/>
      <point x="237" y="496"/>
      <point x="237" y="383" type="curve" smooth="yes"/>
    </contour>
  </outline>
</glyph>
<glyph name="uni1506" format="2">
	<advance width="362"/>
	<unicode hex="1506"/>
	<note>
		uni1506
	</note>
	<outline>
		<contour>
			<point x="179" y="165" type="curve" smooth="yes"/>
			<point x="267" y="165"/>
			<point x="323" y="206"/>
			<point x="323" y="275" type="curve" smooth="yes"/>
			<point x="323" y="351"/>
			<point x="255" y="371"/>
			<point x="190" y="391" type="curve" smooth="yes"/>
			<point x="149" y="404"/>
			<point x="115" y="414"/>
			<point x="115" y="443" type="curve" smooth="yes"/>
			<point x="115" y="468"/>
			<point x="141" y="484"/>
			<point x="183" y="484" type="curve" smooth="yes"/>
			<point x="217" y="484"/>
			<point x="239" y="474"/>
			<point x="254" y="453" type="curve"/>
			<point x="323" y="485" type="line"/>
			<point x="296" y="527"/>
			<point x="251" y="551"/>
			<point x="183" y="551" type="curve" smooth="yes"/>
			<point x="95" y="551"/>
			<point x="39" y="510"/>
			<point x="39" y="442" type="curve" smooth="yes"/>
			<point x="39" y="363"/>
			<point x="114" y="344"/>
			<point x="177" y="324" type="curve" smooth="yes"/>
			<point x="218" y="311"/>
			<point x="247" y="302"/>
			<point x="247" y="274" type="curve" smooth="yes"/>
			<point x="247" y="248"/>
			<point x="221" y="232"/>
			<point x="179" y="232" type="curve" smooth="yes"/>
			<point x="145" y="232"/>
			<point x="123" y="242"/>
			<point x="108" y="263" type="curve"/>
			<point x="39" y="231" type="line"/>
			<point x="66" y="189"/>
			<point x="111" y="165"/>
		</contour>
	</outline>
</glyph>
<glyph name="uni1507" format="2">
  <advance width="352"/>
  <unicode hex="1507"/>
  <note>
uni1507
</note>
  <outline>
    <contour>
      <point x="39" y="342" type="line"/>
      <point x="114" y="342" type="line"/>
      <point x="114" y="383" type="line" smooth="yes"/>
      <point x="114" y="494"/>
      <point x="147" y="518"/>
      <point x="256" y="518" type="curve" smooth="yes"/>
      <point x="313" y="518" type="line"/>
      <point x="313" y="714" type="line"/>
      <point x="237" y="714" type="line"/>
      <point x="237" y="585" type="line"/>
      <point x="222" y="585" type="line" smooth="yes"/>
      <point x="95" y="585"/>
      <point x="39" y="526"/>
      <point x="39" y="395" type="curve" smooth="yes"/>
    </contour>
  </outline>
</glyph>
<glyph name="uni1508" format="2">
  <advance width="430"/>
  <unicode hex="1508"/>
  <note>
uni1508
</note>
  <outline>
    <contour>
      <point x="213" y="342" type="curve" smooth="yes"/>
      <point x="391" y="342" type="line"/>
      <point x="391" y="409" type="line"/>
      <point x="211" y="409" type="line" smooth="yes"/>
      <point x="146" y="409"/>
      <point x="114" y="448"/>
      <point x="114" y="513" type="curve" smooth="yes"/>
      <point x="114" y="702" type="line"/>
      <point x="39" y="702" type="line"/>
      <point x="39" y="515" type="line" smooth="yes"/>
      <point x="39" y="400"/>
      <point x="98" y="342"/>
    </contour>
  </outline>
</glyph>
<glyph name="uni1509" format="2">
  <advance width="352"/>
  <unicode hex="1509"/>
  <note>
uni1509
</note>
  <outline>
    <contour>
      <point x="192" y="260" type="curve" smooth="yes"/>
      <point x="269" y="260"/>
      <point x="313" y="312"/>
      <point x="313" y="403" type="curve" smooth="yes"/>
      <point x="313" y="516"/>
      <point x="241" y="585"/>
      <point x="122" y="585" type="curve" smooth="yes"/>
      <point x="114" y="585" type="line"/>
      <point x="114" y="714" type="line"/>
      <point x="39" y="714" type="line"/>
      <point x="39" y="518" type="line"/>
      <point x="102" y="518" type="line" smooth="yes"/>
      <point x="202" y="518"/>
      <point x="239" y="486"/>
      <point x="239" y="401" type="curve" smooth="yes"/>
      <point x="239" y="355"/>
      <point x="223" y="328"/>
      <point x="197" y="328" type="curve" smooth="yes"/>
      <point x="177" y="328"/>
      <point x="166" y="343"/>
      <point x="166" y="366" type="curve" smooth="yes"/>
      <point x="166" y="400"/>
      <point x="195" y="419"/>
      <point x="254" y="419" type="curve" smooth="yes"/>
      <point x="265" y="419" type="line"/>
      <point x="265" y="481" type="line"/>
      <point x="254" y="481" type="line" smooth="yes"/>
      <point x="133" y="481"/>
      <point x="90" y="425"/>
      <point x="90" y="369" type="curve" smooth="yes"/>
      <point x="90" y="307"/>
      <point x="133" y="260"/>
    </contour>
  </outline>
</glyph>
<glyph name="uni150A" format="2">
  <advance width="352"/>
  <unicode hex="150A"/>
  <note>
uni150A
</note>
  <outline>
    <contour>
      <point x="160" y="260" type="curve" smooth="yes"/>
      <point x="219" y="260"/>
      <point x="262" y="307"/>
      <point x="262" y="369" type="curve" smooth="yes"/>
      <point x="262" y="425"/>
      <point x="219" y="481"/>
      <point x="98" y="481" type="curve" smooth="yes"/>
      <point x="87" y="481" type="line"/>
      <point x="87" y="419" type="line"/>
      <point x="98" y="419" type="line" smooth="yes"/>
      <point x="157" y="419"/>
      <point x="186" y="400"/>
      <point x="186" y="366" type="curve" smooth="yes"/>
      <point x="186" y="343"/>
      <point x="175" y="328"/>
      <point x="155" y="328" type="curve" smooth="yes"/>
      <point x="129" y="328"/>
      <point x="113" y="355"/>
      <point x="113" y="401" type="curve" smooth="yes"/>
      <point x="113" y="486"/>
      <point x="150" y="518"/>
      <point x="250" y="518" type="curve" smooth="yes"/>
      <point x="313" y="518" type="line"/>
      <point x="313" y="714" type="line"/>
      <point x="238" y="714" type="line"/>
      <point x="238" y="585" type="line"/>
      <point x="230" y="585" type="line" smooth="yes"/>
      <point x="111" y="585"/>
      <point x="39" y="516"/>
      <point x="39" y="403" type="curve" smooth="yes"/>
      <point x="39" y="312"/>
      <point x="83" y="260"/>
    </contour>
  </outline>
</glyph>
<glyph name="uni150B" format="2">
  <advance width="347"/>
  <unicode hex="150B"/>
  <note>
uni150B
</note>
  <outline>
    <contour>
      <point x="211" y="349" type="line"/>
      <point x="287" y="349" type="line"/>
      <point x="287" y="382" type="line" smooth="yes"/>
      <point x="287" y="503"/>
      <point x="245" y="556"/>
      <point x="163" y="556" type="curve" smooth="yes"/>
      <point x="137" y="556" type="line"/>
      <point x="137" y="665" type="line"/>
      <point x="62" y="665" type="line"/>
      <point x="62" y="488" type="line"/>
      <point x="138" y="488" type="line" smooth="yes"/>
      <point x="192" y="488"/>
      <point x="211" y="465"/>
      <point x="211" y="383" type="curve" smooth="yes"/>
    </contour>
    <contour>
      <point x="249" y="192" type="curve" smooth="yes"/>
      <point x="281" y="192"/>
      <point x="308" y="218"/>
      <point x="308" y="251" type="curve" smooth="yes"/>
      <point x="308" y="284"/>
      <point x="281" y="310"/>
      <point x="249" y="310" type="curve" smooth="yes"/>
      <point x="216" y="310"/>
      <point x="189" y="284"/>
      <point x="189" y="251" type="curve" smooth="yes"/>
      <point x="189" y="218"/>
      <point x="216" y="192"/>
    </contour>
    <contour>
      <point x="98" y="704" type="curve" smooth="yes"/>
      <point x="131" y="704"/>
      <point x="157" y="730"/>
      <point x="157" y="763" type="curve" smooth="yes"/>
      <point x="157" y="796"/>
      <point x="131" y="822"/>
      <point x="98" y="822" type="curve" smooth="yes"/>
      <point x="65" y="822"/>
      <point x="39" y="796"/>
      <point x="39" y="763" type="curve" smooth="yes"/>
      <point x="39" y="730"/>
      <point x="65" y="704"/>
    </contour>
  </outline>
</glyph>
<glyph name="uni150C" format="2">
  <advance width="712"/>
  <unicode hex="150C"/>
  <note>
uni150C
</note>
  <outline>
    <contour>
      <point x="653" y="-10" type="line"/>
      <point x="663" y="-10" type="line"/>
      <point x="663" y="74" type="line"/>
      <point x="165" y="357" type="line"/>
      <point x="663" y="641" type="line"/>
      <point x="663" y="725" type="line"/>
      <point x="653" y="725" type="line"/>
      <point x="39" y="364" type="line"/>
      <point x="39" y="350" type="line"/>
    </contour>
    <contour>
      <point x="107" y="500" type="curve" smooth="yes"/>
      <point x="140" y="500"/>
      <point x="167" y="526"/>
      <point x="167" y="559" type="curve" smooth="yes"/>
      <point x="167" y="592"/>
      <point x="140" y="618"/>
      <point x="107" y="618" type="curve" smooth="yes"/>
      <point x="75" y="618"/>
      <point x="48" y="592"/>
      <point x="48" y="559" type="curve" smooth="yes"/>
      <point x="48" y="526"/>
      <point x="75" y="500"/>
    </contour>
    <contour>
      <point x="294" y="613" type="line"/>
      <point x="369" y="613" type="line"/>
      <point x="369" y="646" type="line" smooth="yes"/>
      <point x="369" y="767"/>
      <point x="327" y="819"/>
      <point x="245" y="819" type="curve" smooth="yes"/>
      <point x="220" y="819" type="line"/>
      <point x="220" y="929" type="line"/>
      <point x="145" y="929" type="line"/>
      <point x="145" y="752" type="line"/>
      <point x="221" y="752" type="line" smooth="yes"/>
      <point x="275" y="752"/>
      <point x="294" y="729"/>
      <point x="294" y="647" type="curve" smooth="yes"/>
    </contour>
    <contour>
      <point x="511" y="732" type="curve" smooth="yes"/>
      <point x="543" y="732"/>
      <point x="570" y="759"/>
      <point x="570" y="792" type="curve" smooth="yes"/>
      <point x="570" y="824"/>
      <point x="543" y="851"/>
      <point x="511" y="851" type="curve" smooth="yes"/>
      <point x="478" y="851"/>
      <point x="452" y="824"/>
      <point x="452" y="792" type="curve" smooth="yes"/>
      <point x="452" y="759"/>
      <point x="478" y="732"/>
    </contour>
  </outline>
</glyph>
<glyph name="uni1510" format="2">
  <advance width="845"/>
  <unicode hex="1510"/>
  <note>
uni1510
</note>
  <outline>
    <contour>
      <point x="579" y="-12" type="curve" smooth="yes"/>
      <point x="718" y="-12"/>
      <point x="786" y="66"/>
      <point x="786" y="236" type="curve" smooth="yes"/>
      <point x="786" y="282" type="line"/>
      <point x="708" y="282" type="line"/>
      <point x="708" y="233" type="line" smooth="yes"/>
      <point x="708" y="108"/>
      <point x="667" y="59"/>
      <point x="577" y="59" type="curve" smooth="yes"/>
      <point x="497" y="59"/>
      <point x="461" y="107"/>
      <point x="461" y="235" type="curve" smooth="yes"/>
      <point x="461" y="481" type="line" smooth="yes"/>
      <point x="461" y="647"/>
      <point x="397" y="726"/>
      <point x="266" y="726" type="curve" smooth="yes"/>
      <point x="127" y="726"/>
      <point x="59" y="648"/>
      <point x="59" y="478" type="curve" smooth="yes"/>
      <point x="59" y="432" type="line"/>
      <point x="137" y="432" type="line"/>
      <point x="137" y="481" type="line" smooth="yes"/>
      <point x="137" y="606"/>
      <point x="178" y="655"/>
      <point x="268" y="655" type="curve" smooth="yes"/>
      <point x="348" y="655"/>
      <point x="383" y="606"/>
      <point x="383" y="479" type="curve" smooth="yes"/>
      <point x="383" y="233" type="line" smooth="yes"/>
      <point x="383" y="66"/>
      <point x="447" y="-12"/>
    </contour>
  </outline>
</glyph>
<glyph name="uni1511" format="2">
  <advance width="845"/>
  <unicode hex="1511"/>
  <note>
uni1511
</note>
  <outline>
    <contour>
      <point x="266" y="-12" type="curve" smooth="yes"/>
      <point x="397" y="-12"/>
      <point x="461" y="66"/>
      <point x="461" y="233" type="curve" smooth="yes"/>
      <point x="461" y="479" type="line" smooth="yes"/>
      <point x="461" y="606"/>
      <point x="496" y="655"/>
      <point x="577" y="655" type="curve" smooth="yes"/>
      <point x="667" y="655"/>
      <point x="708" y="606"/>
      <point x="708" y="481" type="curve" smooth="yes"/>
      <point x="708" y="432" type="line"/>
      <point x="786" y="432" type="line"/>
      <point x="786" y="478" type="line" smooth="yes"/>
      <point x="786" y="648"/>
      <point x="718" y="726"/>
      <point x="579" y="726" type="curve" smooth="yes"/>
      <point x="447" y="726"/>
      <point x="383" y="647"/>
      <point x="383" y="481" type="curve" smooth="yes"/>
      <point x="383" y="235" type="line" smooth="yes"/>
      <point x="383" y="108"/>
      <point x="349" y="59"/>
      <point x="268" y="59" type="curve" smooth="yes"/>
      <point x="178" y="59"/>
      <point x="137" y="108"/>
      <point x="137" y="233" type="curve" smooth="yes"/>
      <point x="137" y="282" type="line"/>
      <point x="59" y="282" type="line"/>
      <point x="59" y="236" type="line" smooth="yes"/>
      <point x="59" y="66"/>
      <point x="127" y="-12"/>
    </contour>
  </outline>
</glyph>
<glyph name="uni1513" format="2">
  <advance width="985"/>
  <unicode hex="1513"/>
  <note>
uni1513
</note>
  <outline>
    <contour>
      <point x="199" y="-17" type="curve"/>
      <point x="235" y="45" type="line"/>
      <point x="178" y="89"/>
      <point x="139" y="153"/>
      <point x="139" y="233" type="curve" smooth="yes"/>
      <point x="139" y="308"/>
      <point x="173" y="354"/>
      <point x="240" y="354" type="curve" smooth="yes"/>
      <point x="325" y="354"/>
      <point x="385" y="281"/>
      <point x="466" y="179" type="curve" smooth="yes"/>
      <point x="556" y="66"/>
      <point x="635" y="-12"/>
      <point x="745" y="-12" type="curve" smooth="yes"/>
      <point x="853" y="-12"/>
      <point x="926" y="63"/>
      <point x="926" y="179" type="curve" smooth="yes"/>
      <point x="926" y="282"/>
      <point x="868" y="376"/>
      <point x="785" y="429" type="curve"/>
      <point x="749" y="368" type="line"/>
      <point x="801" y="335"/>
      <point x="846" y="262"/>
      <point x="846" y="179" type="curve" smooth="yes"/>
      <point x="846" y="106"/>
      <point x="812" y="59"/>
      <point x="745" y="59" type="curve" smooth="yes"/>
      <point x="658" y="59"/>
      <point x="595" y="138"/>
      <point x="521" y="231" type="curve" smooth="yes"/>
      <point x="412" y="368"/>
      <point x="335" y="425"/>
      <point x="240" y="425" type="curve" smooth="yes"/>
      <point x="130" y="425"/>
      <point x="59" y="350"/>
      <point x="59" y="232" type="curve" smooth="yes"/>
      <point x="59" y="134"/>
      <point x="107" y="48"/>
    </contour>
  </outline>
</glyph>
<glyph name="uni1515" format="2">
  <advance width="985"/>
  <unicode hex="1515"/>
  <note>
uni1515
</note>
  <outline>
    <contour>
      <point x="786" y="-17" type="line"/>
      <point x="879" y="49"/>
      <point x="926" y="135"/>
      <point x="926" y="232" type="curve" smooth="yes"/>
      <point x="926" y="350"/>
      <point x="855" y="425"/>
      <point x="745" y="425" type="curve" smooth="yes"/>
      <point x="651" y="425"/>
      <point x="577" y="371"/>
      <point x="466" y="233" type="curve" smooth="yes"/>
      <point x="387" y="135"/>
      <point x="324" y="59"/>
      <point x="240" y="59" type="curve" smooth="yes"/>
      <point x="175" y="59"/>
      <point x="139" y="105"/>
      <point x="139" y="179" type="curve" smooth="yes"/>
      <point x="139" y="261"/>
      <point x="184" y="334"/>
      <point x="236" y="368" type="curve"/>
      <point x="200" y="429" type="line"/>
      <point x="117" y="376"/>
      <point x="59" y="281"/>
      <point x="59" y="178" type="curve" smooth="yes"/>
      <point x="59" y="63"/>
      <point x="132" y="-12"/>
      <point x="240" y="-12" type="curve" smooth="yes"/>
      <point x="356" y="-12"/>
      <point x="437" y="74"/>
      <point x="520" y="179" type="curve" smooth="yes"/>
      <point x="588" y="264"/>
      <point x="654" y="354"/>
      <point x="746" y="354" type="curve" smooth="yes"/>
      <point x="810" y="354"/>
      <point x="846" y="310"/>
      <point x="846" y="233" type="curve" smooth="yes"/>
      <point x="846" y="153"/>
      <point x="807" y="88"/>
      <point x="750" y="45" type="curve"/>
    </contour>
  </outline>
</glyph>
<glyph name="uni1525" format="2">
  <advance width="625"/>
  <unicode hex="1525"/>
  <note>
uni1525
</note>
  <outline>
    <contour>
      <point x="495" y="373" type="line"/>
      <point x="551" y="420"/>
      <point x="586" y="494"/>
      <point x="586" y="572" type="curve" smooth="yes"/>
      <point x="586" y="661"/>
      <point x="539" y="721"/>
      <point x="464" y="721" type="curve" smooth="yes"/>
      <point x="400" y="721"/>
      <point x="354" y="677"/>
      <point x="292" y="583" type="curve" smooth="yes"/>
      <point x="247" y="515"/>
      <point x="204" y="451"/>
      <point x="161" y="451" type="curve" smooth="yes"/>
      <point x="133" y="451"/>
      <point x="114" y="478"/>
      <point x="114" y="533" type="curve" smooth="yes"/>
      <point x="114" y="594"/>
      <point x="137" y="642"/>
      <point x="168" y="673" type="curve"/>
      <point x="130" y="732" type="line"/>
      <point x="76" y="689"/>
      <point x="39" y="613"/>
      <point x="39" y="535" type="curve" smooth="yes"/>
      <point x="39" y="445"/>
      <point x="89" y="383"/>
      <point x="160" y="383" type="curve" smooth="yes"/>
      <point x="242" y="383"/>
      <point x="297" y="464"/>
      <point x="339" y="528" type="curve" smooth="yes"/>
      <point x="383" y="595"/>
      <point x="423" y="654"/>
      <point x="465" y="654" type="curve" smooth="yes"/>
      <point x="496" y="654"/>
      <point x="511" y="623"/>
      <point x="511" y="574" type="curve" smooth="yes"/>
      <point x="511" y="514"/>
      <point x="489" y="463"/>
      <point x="457" y="433" type="curve"/>
    </contour>
  </outline>
</glyph>
<glyph name="uni1526" format="2">
  <advance width="562"/>
  <unicode hex="1526"/>
  <note>
uni1526
</note>
  <outline>
    <contour>
      <point x="425" y="0" type="line"/>
      <point x="503" y="0" type="line"/>
      <point x="503" y="335" type="line"/>
      <point x="165" y="335" type="line"/>
      <point x="448" y="682" type="line"/>
      <point x="392" y="726" type="line"/>
      <point x="39" y="292" type="line"/>
      <point x="39" y="265" type="line"/>
      <point x="425" y="265" type="line"/>
    </contour>
  </outline>
</glyph>
<glyph name="uni1528" format="2">
  <advance width="562"/>
  <unicode hex="1528"/>
  <note>
uni1528
</note>
  <outline>
    <contour>
      <point x="59" y="0" type="line"/>
      <point x="137" y="0" type="line"/>
      <point x="137" y="265" type="line"/>
      <point x="523" y="265" type="line"/>
      <point x="523" y="292" type="line"/>
      <point x="170" y="726" type="line"/>
      <point x="114" y="682" type="line"/>
      <point x="397" y="335" type="line"/>
      <point x="59" y="335" type="line"/>
    </contour>
  </outline>
</glyph>
<glyph name="uni152A" format="2">
  <advance width="562"/>
  <unicode hex="152A"/>
  <note>
uni152A
</note>
  <outline>
    <contour>
      <point x="392" y="-12" type="line"/>
      <point x="448" y="32" type="line"/>
      <point x="165" y="378" type="line"/>
      <point x="503" y="378" type="line"/>
      <point x="503" y="714" type="line"/>
      <point x="425" y="714" type="line"/>
      <point x="425" y="449" type="line"/>
      <point x="39" y="449" type="line"/>
      <point x="39" y="422" type="line"/>
    </contour>
  </outline>
</glyph>
<glyph name="uni152D" format="2">
  <advance width="562"/>
  <unicode hex="152D"/>
  <note>
uni152D
</note>
  <outline>
    <contour>
      <point x="170" y="-12" type="line"/>
      <point x="523" y="422" type="line"/>
      <point x="523" y="449" type="line"/>
      <point x="137" y="449" type="line"/>
      <point x="137" y="714" type="line"/>
      <point x="59" y="714" type="line"/>
      <point x="59" y="378" type="line"/>
      <point x="397" y="378" type="line"/>
      <point x="114" y="32" type="line"/>
    </contour>
  </outline>
</glyph>
<glyph name="uni153E" format="2">
  <advance width="344"/>
  <unicode hex="153E"/>
  <note>
uni153E
</note>
  <outline>
    <contour>
      <point x="117" y="326" type="line"/>
      <point x="305" y="552" type="line"/>
      <point x="305" y="582" type="line"/>
      <point x="124" y="582" type="line"/>
      <point x="124" y="714" type="line"/>
      <point x="49" y="714" type="line"/>
      <point x="49" y="514" type="line"/>
      <point x="179" y="514" type="line"/>
      <point x="60" y="370" type="line"/>
    </contour>
  </outline>
</glyph>
<glyph name="uni153F" format="2">
  <advance width="550"/>
  <unicode hex="153F"/>
  <note>
uni153F
</note>
  <outline>
    <contour>
      <point x="39" y="342" type="line"/>
      <point x="104" y="342" type="line"/>
      <point x="152" y="594" type="line"/>
      <point x="260" y="342" type="line"/>
      <point x="292" y="342" type="line"/>
      <point x="397" y="597" type="line"/>
      <point x="447" y="342" type="line"/>
      <point x="511" y="342" type="line"/>
      <point x="511" y="361" type="line"/>
      <point x="438" y="714" type="line"/>
      <point x="377" y="714" type="line"/>
      <point x="277" y="458" type="line"/>
      <point x="171" y="714" type="line"/>
      <point x="110" y="714" type="line"/>
      <point x="39" y="359" type="line"/>
    </contour>
  </outline>
</glyph>
<glyph name="uni1540" format="2">
  <advance width="378"/>
  <unicode hex="1540"/>
  <note>
uni1540
</note>
  <outline>
    <contour>
      <point x="151" y="205" type="line"/>
      <point x="227" y="205" type="line"/>
      <point x="227" y="333" type="line"/>
      <point x="339" y="333" type="line"/>
      <point x="339" y="400" type="line"/>
      <point x="227" y="400" type="line"/>
      <point x="227" y="529" type="line"/>
      <point x="151" y="529" type="line"/>
      <point x="151" y="400" type="line"/>
      <point x="39" y="400" type="line"/>
      <point x="39" y="333" type="line"/>
      <point x="151" y="333" type="line"/>
    </contour>
  </outline>
</glyph>
<glyph name="uni1541" format="2">
  <advance width="398"/>
  <unicode hex="1541"/>
  <note>
uni1541
</note>
  <outline>
    <contour>
      <point x="276" y="213" type="line"/>
      <point x="359" y="213" type="line"/>
      <point x="123" y="536" type="line"/>
      <point x="39" y="536" type="line"/>
    </contour>
    <contour>
      <point x="39" y="213" type="line"/>
      <point x="122" y="213" type="line"/>
      <point x="359" y="536" type="line"/>
      <point x="275" y="536" type="line"/>
    </contour>
  </outline>
</glyph>
<glyph name="uni1542" format="2">
  <advance width="895"/>
  <unicode hex="1542"/>
  <note>
uni1542
</note>
  <outline>
    <contour>
      <point x="324" y="-12" type="curve" smooth="yes"/>
      <point x="490" y="-12"/>
      <point x="588" y="84"/>
      <point x="588" y="243" type="curve" smooth="yes"/>
      <point x="588" y="430" type="line"/>
      <point x="846" y="430" type="line"/>
      <point x="846" y="500" type="line"/>
      <point x="510" y="500" type="line"/>
      <point x="510" y="245" type="line" smooth="yes"/>
      <point x="510" y="126"/>
      <point x="443" y="59"/>
      <point x="324" y="59" type="curve" smooth="yes"/>
      <point x="205" y="59"/>
      <point x="137" y="126"/>
      <point x="137" y="245" type="curve" smooth="yes"/>
      <point x="137" y="500" type="line"/>
      <point x="59" y="500" type="line"/>
      <point x="59" y="243" type="line" smooth="yes"/>
      <point x="59" y="83"/>
      <point x="159" y="-12"/>
    </contour>
  </outline>
</glyph>
<glyph name="uni1543" format="2">
  <advance width="895"/>
  <unicode hex="1543"/>
  <note>
uni1543
</note>
  <outline>
    <contour>
      <point x="571" y="-12" type="curve" smooth="yes"/>
      <point x="737" y="-12"/>
      <point x="836" y="83"/>
      <point x="836" y="243" type="curve" smooth="yes"/>
      <point x="836" y="500" type="line"/>
      <point x="758" y="500" type="line"/>
      <point x="758" y="245" type="line" smooth="yes"/>
      <point x="758" y="126"/>
      <point x="690" y="59"/>
      <point x="571" y="59" type="curve" smooth="yes"/>
      <point x="452" y="59"/>
      <point x="384" y="126"/>
      <point x="384" y="245" type="curve" smooth="yes"/>
      <point x="384" y="500" type="line"/>
      <point x="49" y="500" type="line"/>
      <point x="49" y="430" type="line"/>
      <point x="306" y="430" type="line"/>
      <point x="306" y="243" type="line" smooth="yes"/>
      <point x="306" y="84"/>
      <point x="405" y="-12"/>
    </contour>
  </outline>
</glyph>
<glyph name="uni1544" format="2">
  <advance width="895"/>
  <unicode hex="1544"/>
  <note>
uni1544
</note>
  <outline>
    <contour>
      <point x="49" y="0" type="line"/>
      <point x="384" y="0" type="line"/>
      <point x="384" y="256" type="line" smooth="yes"/>
      <point x="384" y="375"/>
      <point x="452" y="442"/>
      <point x="571" y="442" type="curve" smooth="yes"/>
      <point x="690" y="442"/>
      <point x="758" y="375"/>
      <point x="758" y="256" type="curve" smooth="yes"/>
      <point x="758" y="0" type="line"/>
      <point x="836" y="0" type="line"/>
      <point x="836" y="257" type="line" smooth="yes"/>
      <point x="836" y="418"/>
      <point x="735" y="513"/>
      <point x="571" y="513" type="curve" smooth="yes"/>
      <point x="405" y="513"/>
      <point x="306" y="416"/>
      <point x="306" y="258" type="curve" smooth="yes"/>
      <point x="306" y="71" type="line"/>
      <point x="49" y="71" type="line"/>
    </contour>
  </outline>
</glyph>
<glyph name="uni1546" format="2">
  <advance width="895"/>
  <unicode hex="1546"/>
  <note>
uni1546
</note>
  <outline>
    <contour>
      <point x="59" y="0" type="line"/>
      <point x="137" y="0" type="line"/>
      <point x="137" y="256" type="line" smooth="yes"/>
      <point x="137" y="375"/>
      <point x="205" y="442"/>
      <point x="324" y="442" type="curve" smooth="yes"/>
      <point x="443" y="442"/>
      <point x="510" y="375"/>
      <point x="510" y="256" type="curve" smooth="yes"/>
      <point x="510" y="0" type="line"/>
      <point x="846" y="0" type="line"/>
      <point x="846" y="71" type="line"/>
      <point x="588" y="71" type="line"/>
      <point x="588" y="258" type="line" smooth="yes"/>
      <point x="588" y="416"/>
      <point x="490" y="513"/>
      <point x="324" y="513" type="curve" smooth="yes"/>
      <point x="158" y="513"/>
      <point x="59" y="417"/>
      <point x="59" y="257" type="curve" smooth="yes"/>
    </contour>
  </outline>
</glyph>
<glyph name="uni1548" format="2">
  <advance width="582"/>
  <unicode hex="1548"/>
  <note>
uni1548
</note>
  <outline>
    <contour>
      <point x="68" y="0" type="line"/>
      <point x="146" y="0" type="line"/>
      <point x="146" y="254" type="line"/>
      <point x="290" y="254" type="line" smooth="yes"/>
      <point x="444" y="254"/>
      <point x="533" y="338"/>
      <point x="533" y="483" type="curve" smooth="yes"/>
      <point x="533" y="632"/>
      <point x="444" y="714"/>
      <point x="290" y="714" type="curve" smooth="yes"/>
      <point x="68" y="714" type="line"/>
      <point x="68" y="643" type="line"/>
      <point x="280" y="643" type="line" smooth="yes"/>
      <point x="397" y="643"/>
      <point x="455" y="590"/>
      <point x="455" y="483" type="curve" smooth="yes"/>
      <point x="455" y="379"/>
      <point x="396" y="325"/>
      <point x="280" y="325" type="curve" smooth="yes"/>
      <point x="68" y="325" type="line"/>
    </contour>
  </outline>
</glyph>
<glyph name="uni154A" format="2">
  <advance width="582"/>
  <unicode hex="154A"/>
  <note>
uni154A
</note>
  <outline>
    <contour>
      <point x="68" y="0" type="line"/>
      <point x="290" y="0" type="line" smooth="yes"/>
      <point x="444" y="0"/>
      <point x="533" y="83"/>
      <point x="533" y="231" type="curve" smooth="yes"/>
      <point x="533" y="375"/>
      <point x="444" y="460"/>
      <point x="290" y="460" type="curve" smooth="yes"/>
      <point x="146" y="460" type="line"/>
      <point x="146" y="714" type="line"/>
      <point x="68" y="714" type="line"/>
      <point x="68" y="389" type="line"/>
      <point x="280" y="389" type="line" smooth="yes"/>
      <point x="396" y="389"/>
      <point x="455" y="334"/>
      <point x="455" y="231" type="curve" smooth="yes"/>
      <point x="455" y="124"/>
      <point x="397" y="71"/>
      <point x="280" y="71" type="curve" smooth="yes"/>
      <point x="68" y="71" type="line"/>
    </contour>
  </outline>
</glyph>
<glyph name="uni154B" format="2">
  <advance width="583"/>
  <unicode hex="154B"/>
  <note>
uni154B
</note>
  <outline>
    <contour>
      <point x="436" y="0" type="line"/>
      <point x="514" y="0" type="line"/>
      <point x="514" y="325" type="line"/>
      <point x="302" y="325" type="line" smooth="yes"/>
      <point x="186" y="325"/>
      <point x="127" y="379"/>
      <point x="127" y="483" type="curve" smooth="yes"/>
      <point x="127" y="590"/>
      <point x="185" y="643"/>
      <point x="302" y="643" type="curve" smooth="yes"/>
      <point x="514" y="643" type="line"/>
      <point x="514" y="714" type="line"/>
      <point x="292" y="714" type="line" smooth="yes"/>
      <point x="138" y="714"/>
      <point x="49" y="631"/>
      <point x="49" y="483" type="curve" smooth="yes"/>
      <point x="49" y="338"/>
      <point x="138" y="254"/>
      <point x="292" y="254" type="curve" smooth="yes"/>
      <point x="436" y="254" type="line"/>
    </contour>
  </outline>
</glyph>
<glyph name="uni154D" format="2">
  <advance width="583"/>
  <unicode hex="154D"/>
  <note>
uni154D
</note>
  <outline>
    <contour>
      <point x="292" y="0" type="curve" smooth="yes"/>
      <point x="514" y="0" type="line"/>
      <point x="514" y="71" type="line"/>
      <point x="302" y="71" type="line" smooth="yes"/>
      <point x="185" y="71"/>
      <point x="127" y="124"/>
      <point x="127" y="231" type="curve" smooth="yes"/>
      <point x="127" y="334"/>
      <point x="186" y="389"/>
      <point x="302" y="389" type="curve" smooth="yes"/>
      <point x="514" y="389" type="line"/>
      <point x="514" y="714" type="line"/>
      <point x="436" y="714" type="line"/>
      <point x="436" y="460" type="line"/>
      <point x="292" y="460" type="line" smooth="yes"/>
      <point x="138" y="460"/>
      <point x="49" y="376"/>
      <point x="49" y="231" type="curve" smooth="yes"/>
      <point x="49" y="82"/>
      <point x="138" y="0"/>
    </contour>
  </outline>
</glyph>
<glyph name="uni1550" format="2">
  <advance width="340"/>
  <unicode hex="1550"/>
  <note>
uni1550
</note>
  <outline>
    <contour>
      <point x="216" y="342" type="line"/>
      <point x="291" y="342" type="line"/>
      <point x="291" y="533" type="line"/>
      <point x="199" y="533" type="line" smooth="yes"/>
      <point x="128" y="533"/>
      <point x="114" y="552"/>
      <point x="114" y="590" type="curve" smooth="yes"/>
      <point x="114" y="627"/>
      <point x="131" y="646"/>
      <point x="199" y="646" type="curve" smooth="yes"/>
      <point x="291" y="646" type="line"/>
      <point x="291" y="714" type="line"/>
      <point x="190" y="714" type="line" smooth="yes"/>
      <point x="95" y="714"/>
      <point x="39" y="669"/>
      <point x="39" y="590" type="curve" smooth="yes"/>
      <point x="39" y="508"/>
      <point x="94" y="466"/>
      <point x="190" y="466" type="curve" smooth="yes"/>
      <point x="216" y="466" type="line"/>
    </contour>
  </outline>
</glyph>
<glyph name="uni1551" format="2">
  <advance width="388"/>
  <unicode hex="1551"/>
  <note>
uni1551
</note>
  <outline>
    <contour>
      <point x="39" y="315" type="line"/>
      <point x="53" y="315" type="line"/>
      <point x="319" y="408" type="line"/>
      <point x="319" y="459" type="line"/>
      <point x="143" y="523" type="line"/>
      <point x="319" y="585" type="line"/>
      <point x="319" y="637" type="line"/>
      <point x="54" y="726" type="line"/>
      <point x="39" y="726" type="line"/>
      <point x="39" y="669" type="line"/>
      <point x="230" y="611" type="line"/>
      <point x="39" y="549" type="line"/>
      <point x="39" y="499" type="line"/>
      <point x="230" y="432" type="line"/>
      <point x="39" y="373" type="line"/>
    </contour>
  </outline>
</glyph>
<glyph name="uni1552" format="2">
  <advance width="618"/>
  <unicode hex="1552"/>
  <note>
uni1552
</note>
  <outline>
    <contour>
      <point x="59" y="-12" type="line"/>
      <point x="68" y="-12" type="line"/>
      <point x="560" y="153" type="line"/>
      <point x="560" y="228" type="line"/>
      <point x="199" y="357" type="line"/>
      <point x="560" y="486" type="line"/>
      <point x="560" y="561" type="line"/>
      <point x="68" y="726" type="line"/>
      <point x="59" y="726" type="line"/>
      <point x="59" y="649" type="line"/>
      <point x="457" y="521" type="line"/>
      <point x="59" y="379" type="line"/>
      <point x="59" y="335" type="line"/>
      <point x="457" y="193" type="line"/>
      <point x="59" y="64" type="line"/>
    </contour>
  </outline>
</glyph>
<glyph name="uni1553" format="2">
  <advance width="788"/>
  <unicode hex="1553"/>
  <note>
uni1553
</note>
  <outline>
    <contour>
      <point x="346" y="-12" type="line"/>
      <point x="365" y="-12" type="line"/>
      <point x="749" y="704" type="line"/>
      <point x="749" y="714" type="line"/>
      <point x="669" y="714" type="line"/>
      <point x="352" y="125" type="line"/>
      <point x="187" y="406" type="line" smooth="yes"/>
      <point x="152" y="465"/>
      <point x="137" y="511"/>
      <point x="137" y="550" type="curve" smooth="yes"/>
      <point x="137" y="613"/>
      <point x="177" y="655"/>
      <point x="243" y="655" type="curve" smooth="yes"/>
      <point x="308" y="655"/>
      <point x="350" y="614"/>
      <point x="350" y="546" type="curve" smooth="yes"/>
      <point x="350" y="462"/>
      <point x="287" y="424"/>
      <point x="180" y="424" type="curve" smooth="yes"/>
      <point x="153" y="424" type="line"/>
      <point x="153" y="353" type="line"/>
      <point x="185" y="353" type="line" smooth="yes"/>
      <point x="343" y="353"/>
      <point x="428" y="428"/>
      <point x="428" y="543" type="curve" smooth="yes"/>
      <point x="428" y="647"/>
      <point x="359" y="726"/>
      <point x="242" y="726" type="curve" smooth="yes"/>
      <point x="127" y="726"/>
      <point x="59" y="650"/>
      <point x="59" y="549" type="curve" smooth="yes"/>
      <point x="59" y="485"/>
      <point x="86" y="431"/>
      <point x="128" y="360" type="curve" smooth="yes"/>
    </contour>
  </outline>
</glyph>
<glyph name="uni1555" format="2">
  <advance width="788"/>
  <unicode hex="1555"/>
  <note>
uni1555
</note>
  <outline>
    <contour>
      <point x="242" y="-12" type="curve" smooth="yes"/>
      <point x="359" y="-12"/>
      <point x="428" y="67"/>
      <point x="428" y="171" type="curve" smooth="yes"/>
      <point x="428" y="286"/>
      <point x="343" y="361"/>
      <point x="185" y="361" type="curve" smooth="yes"/>
      <point x="153" y="361" type="line"/>
      <point x="153" y="290" type="line"/>
      <point x="180" y="290" type="line" smooth="yes"/>
      <point x="287" y="290"/>
      <point x="350" y="252"/>
      <point x="350" y="168" type="curve" smooth="yes"/>
      <point x="350" y="100"/>
      <point x="308" y="59"/>
      <point x="243" y="59" type="curve" smooth="yes"/>
      <point x="177" y="59"/>
      <point x="137" y="101"/>
      <point x="137" y="164" type="curve" smooth="yes"/>
      <point x="137" y="203"/>
      <point x="152" y="249"/>
      <point x="187" y="308" type="curve" smooth="yes"/>
      <point x="352" y="589" type="line"/>
      <point x="669" y="0" type="line"/>
      <point x="749" y="0" type="line"/>
      <point x="749" y="10" type="line"/>
      <point x="365" y="726" type="line"/>
      <point x="346" y="726" type="line"/>
      <point x="128" y="354" type="line" smooth="yes"/>
      <point x="86" y="283"/>
      <point x="59" y="229"/>
      <point x="59" y="165" type="curve" smooth="yes"/>
      <point x="59" y="64"/>
      <point x="127" y="-12"/>
    </contour>
  </outline>
</glyph>
<glyph name="uni1557" format="2">
  <advance width="797"/>
  <unicode hex="1557"/>
  <note>
uni1557
</note>
  <outline>
    <contour>
      <point x="66" y="-12" type="line"/>
      <point x="76" y="-12" type="line"/>
      <point x="758" y="405" type="line"/>
      <point x="758" y="424" type="line"/>
      <point x="420" y="654" type="line" smooth="yes"/>
      <point x="342" y="706"/>
      <point x="286" y="726"/>
      <point x="233" y="726" type="curve" smooth="yes"/>
      <point x="123" y="726"/>
      <point x="49" y="658"/>
      <point x="49" y="545" type="curve" smooth="yes"/>
      <point x="49" y="429"/>
      <point x="119" y="361"/>
      <point x="237" y="361" type="curve" smooth="yes"/>
      <point x="352" y="361"/>
      <point x="430" y="437"/>
      <point x="430" y="597" type="curve" smooth="yes"/>
      <point x="430" y="630" type="line"/>
      <point x="354" y="630" type="line"/>
      <point x="354" y="609" type="line" smooth="yes"/>
      <point x="354" y="497"/>
      <point x="315" y="432"/>
      <point x="234" y="432" type="curve" smooth="yes"/>
      <point x="169" y="432"/>
      <point x="127" y="477"/>
      <point x="127" y="543" type="curve" smooth="yes"/>
      <point x="127" y="614"/>
      <point x="165" y="655"/>
      <point x="233" y="655" type="curve" smooth="yes"/>
      <point x="277" y="655"/>
      <point x="328" y="636"/>
      <point x="387" y="592" type="curve"/>
      <point x="633" y="423" type="line"/>
      <point x="66" y="67" type="line"/>
    </contour>
  </outline>
</glyph>
<glyph name="uni1559" format="2">
  <advance width="797"/>
  <unicode hex="1559"/>
  <note>
uni1559
</note>
  <outline>
    <contour>
      <point x="721" y="-12" type="line"/>
      <point x="731" y="-12" type="line"/>
      <point x="731" y="67" type="line"/>
      <point x="164" y="423" type="line"/>
      <point x="410" y="592" type="line"/>
      <point x="469" y="636"/>
      <point x="520" y="655"/>
      <point x="564" y="655" type="curve" smooth="yes"/>
      <point x="632" y="655"/>
      <point x="670" y="614"/>
      <point x="670" y="543" type="curve" smooth="yes"/>
      <point x="670" y="477"/>
      <point x="628" y="432"/>
      <point x="563" y="432" type="curve" smooth="yes"/>
      <point x="482" y="432"/>
      <point x="443" y="497"/>
      <point x="443" y="609" type="curve" smooth="yes"/>
      <point x="443" y="635" type="line"/>
      <point x="367" y="635" type="line"/>
      <point x="367" y="597" type="line" smooth="yes"/>
      <point x="367" y="437"/>
      <point x="445" y="361"/>
      <point x="560" y="361" type="curve" smooth="yes"/>
      <point x="678" y="361"/>
      <point x="748" y="429"/>
      <point x="748" y="545" type="curve" smooth="yes"/>
      <point x="748" y="658"/>
      <point x="674" y="726"/>
      <point x="564" y="726" type="curve" smooth="yes"/>
      <point x="511" y="726"/>
      <point x="454" y="707"/>
      <point x="377" y="654" type="curve" smooth="yes"/>
      <point x="39" y="424" type="line"/>
      <point x="39" y="405" type="line"/>
    </contour>
  </outline>
</glyph>
<glyph name="uni155D" format="2">
  <advance width="521"/>
  <unicode hex="155D"/>
  <note>
uni155D
</note>
  <outline>
    <contour>
      <point x="430" y="315" type="line"/>
      <point x="449" y="315" type="line"/>
      <point x="449" y="381" type="line"/>
      <point x="150" y="531" type="line"/>
      <point x="298" y="633" type="line" smooth="yes"/>
      <point x="323" y="650"/>
      <point x="342" y="660"/>
      <point x="365" y="660" type="curve" smooth="yes"/>
      <point x="394" y="660"/>
      <point x="411" y="643"/>
      <point x="411" y="614" type="curve" smooth="yes"/>
      <point x="411" y="589"/>
      <point x="393" y="569"/>
      <point x="365" y="569" type="curve" smooth="yes"/>
      <point x="329" y="569"/>
      <point x="313" y="598"/>
      <point x="313" y="658" type="curve" smooth="yes"/>
      <point x="313" y="669" type="line"/>
      <point x="246" y="639" type="line"/>
      <point x="246" y="636" type="line" smooth="yes"/>
      <point x="246" y="562"/>
      <point x="290" y="503"/>
      <point x="364" y="503" type="curve" smooth="yes"/>
      <point x="427" y="503"/>
      <point x="482" y="553"/>
      <point x="482" y="615" type="curve" smooth="yes"/>
      <point x="482" y="680"/>
      <point x="430" y="726"/>
      <point x="365" y="726" type="curve" smooth="yes"/>
      <point x="332" y="726"/>
      <point x="290" y="710"/>
      <point x="255" y="685" type="curve" smooth="yes"/>
      <point x="39" y="531" type="line"/>
      <point x="39" y="515" type="line"/>
    </contour>
  </outline>
</glyph>
<glyph name="uni155E" format="2">
  <advance width="766"/>
  <unicode hex="155E"/>
  <note>
uni155E
</note>
  <outline>
    <contour>
      <point x="383" y="-12" type="curve" smooth="yes"/>
      <point x="630" y="-12"/>
      <point x="697" y="123"/>
      <point x="697" y="388" type="curve" smooth="yes"/>
      <point x="697" y="714" type="line"/>
      <point x="619" y="714" type="line"/>
      <point x="619" y="393" type="line" smooth="yes"/>
      <point x="619" y="176"/>
      <point x="584" y="59"/>
      <point x="383" y="59" type="curve" smooth="yes"/>
      <point x="194" y="59"/>
      <point x="146" y="163"/>
      <point x="146" y="374" type="curve" smooth="yes"/>
      <point x="146" y="449" type="line" smooth="yes"/>
      <point x="146" y="564"/>
      <point x="155" y="655"/>
      <point x="252" y="655" type="curve" smooth="yes"/>
      <point x="313" y="655"/>
      <point x="352" y="619"/>
      <point x="352" y="547" type="curve" smooth="yes"/>
      <point x="352" y="462"/>
      <point x="297" y="422"/>
      <point x="178" y="422" type="curve" smooth="yes"/>
      <point x="130" y="422" type="line"/>
      <point x="130" y="352" type="line"/>
      <point x="182" y="352" type="line" smooth="yes"/>
      <point x="346" y="352"/>
      <point x="430" y="422"/>
      <point x="430" y="548" type="curve" smooth="yes"/>
      <point x="430" y="662"/>
      <point x="361" y="726"/>
      <point x="252" y="726" type="curve" smooth="yes"/>
      <point x="129" y="726"/>
      <point x="68" y="644"/>
      <point x="68" y="460" type="curve" smooth="yes"/>
      <point x="68" y="388" type="line" smooth="yes"/>
      <point x="68" y="126"/>
      <point x="134" y="-12"/>
    </contour>
  </outline>
</glyph>
<glyph name="uni155F" format="2">
  <advance width="766"/>
  <unicode hex="155F"/>
  <note>
uni155F
</note>
  <outline>
    <contour>
      <point x="382" y="-12" type="curve" smooth="yes"/>
      <point x="631" y="-12"/>
      <point x="697" y="126"/>
      <point x="697" y="388" type="curve" smooth="yes"/>
      <point x="697" y="460" type="line" smooth="yes"/>
      <point x="697" y="644"/>
      <point x="636" y="726"/>
      <point x="513" y="726" type="curve" smooth="yes"/>
      <point x="404" y="726"/>
      <point x="335" y="662"/>
      <point x="335" y="548" type="curve" smooth="yes"/>
      <point x="335" y="422"/>
      <point x="419" y="352"/>
      <point x="583" y="352" type="curve" smooth="yes"/>
      <point x="635" y="352" type="line"/>
      <point x="635" y="422" type="line"/>
      <point x="587" y="422" type="line" smooth="yes"/>
      <point x="468" y="422"/>
      <point x="413" y="462"/>
      <point x="413" y="547" type="curve" smooth="yes"/>
      <point x="413" y="619"/>
      <point x="452" y="655"/>
      <point x="513" y="655" type="curve" smooth="yes"/>
      <point x="610" y="655"/>
      <point x="619" y="564"/>
      <point x="619" y="449" type="curve" smooth="yes"/>
      <point x="619" y="374" type="line" smooth="yes"/>
      <point x="619" y="163"/>
      <point x="571" y="59"/>
      <point x="382" y="59" type="curve" smooth="yes"/>
      <point x="181" y="59"/>
      <point x="146" y="176"/>
      <point x="146" y="393" type="curve" smooth="yes"/>
      <point x="146" y="714" type="line"/>
      <point x="68" y="714" type="line"/>
      <point x="68" y="388" type="line" smooth="yes"/>
      <point x="68" y="123"/>
      <point x="135" y="-12"/>
    </contour>
  </outline>
</glyph>
<glyph name="uni1560" format="2">
  <advance width="766"/>
  <unicode hex="1560"/>
  <note>
uni1560
</note>
  <outline>
    <contour>
      <point x="252" y="-12" type="curve" smooth="yes"/>
      <point x="361" y="-12"/>
      <point x="430" y="52"/>
      <point x="430" y="166" type="curve" smooth="yes"/>
      <point x="430" y="292"/>
      <point x="346" y="362"/>
      <point x="182" y="362" type="curve" smooth="yes"/>
      <point x="130" y="362" type="line"/>
      <point x="130" y="292" type="line"/>
      <point x="178" y="292" type="line" smooth="yes"/>
      <point x="297" y="292"/>
      <point x="352" y="252"/>
      <point x="352" y="167" type="curve" smooth="yes"/>
      <point x="352" y="95"/>
      <point x="313" y="59"/>
      <point x="252" y="59" type="curve" smooth="yes"/>
      <point x="155" y="59"/>
      <point x="146" y="150"/>
      <point x="146" y="265" type="curve" smooth="yes"/>
      <point x="146" y="340" type="line" smooth="yes"/>
      <point x="146" y="551"/>
      <point x="194" y="655"/>
      <point x="383" y="655" type="curve" smooth="yes"/>
      <point x="584" y="655"/>
      <point x="619" y="538"/>
      <point x="619" y="321" type="curve" smooth="yes"/>
      <point x="619" y="0" type="line"/>
      <point x="697" y="0" type="line"/>
      <point x="697" y="326" type="line" smooth="yes"/>
      <point x="697" y="591"/>
      <point x="630" y="726"/>
      <point x="383" y="726" type="curve" smooth="yes"/>
      <point x="134" y="726"/>
      <point x="68" y="588"/>
      <point x="68" y="326" type="curve" smooth="yes"/>
      <point x="68" y="254" type="line" smooth="yes"/>
      <point x="68" y="70"/>
      <point x="129" y="-12"/>
    </contour>
  </outline>
</glyph>
<glyph name="uni1561" format="2">
  <advance width="766"/>
  <unicode hex="1561"/>
  <note>
uni1561
</note>
  <outline>
    <contour>
      <point x="513" y="-12" type="curve" smooth="yes"/>
      <point x="636" y="-12"/>
      <point x="697" y="70"/>
      <point x="697" y="254" type="curve" smooth="yes"/>
      <point x="697" y="326" type="line" smooth="yes"/>
      <point x="697" y="588"/>
      <point x="631" y="726"/>
      <point x="382" y="726" type="curve" smooth="yes"/>
      <point x="135" y="726"/>
      <point x="68" y="591"/>
      <point x="68" y="326" type="curve" smooth="yes"/>
      <point x="68" y="0" type="line"/>
      <point x="146" y="0" type="line"/>
      <point x="146" y="321" type="line" smooth="yes"/>
      <point x="146" y="538"/>
      <point x="181" y="655"/>
      <point x="382" y="655" type="curve" smooth="yes"/>
      <point x="571" y="655"/>
      <point x="619" y="551"/>
      <point x="619" y="340" type="curve" smooth="yes"/>
      <point x="619" y="265" type="line" smooth="yes"/>
      <point x="619" y="150"/>
      <point x="610" y="59"/>
      <point x="513" y="59" type="curve" smooth="yes"/>
      <point x="452" y="59"/>
      <point x="413" y="95"/>
      <point x="413" y="167" type="curve" smooth="yes"/>
      <point x="413" y="252"/>
      <point x="468" y="292"/>
      <point x="587" y="292" type="curve" smooth="yes"/>
      <point x="635" y="292" type="line"/>
      <point x="635" y="362" type="line"/>
      <point x="583" y="362" type="line" smooth="yes"/>
      <point x="419" y="362"/>
      <point x="335" y="292"/>
      <point x="335" y="166" type="curve" smooth="yes"/>
      <point x="335" y="52"/>
      <point x="404" y="-12"/>
    </contour>
  </outline>
</glyph>
<glyph name="uni1564" format="2">
  <advance width="737"/>
  <unicode hex="1564"/>
  <note>
uni1564
</note>
  <outline>
    <contour>
      <point x="73" y="0" type="line"/>
      <point x="220" y="0" type="line" smooth="yes"/>
      <point x="526" y="0"/>
      <point x="678" y="67"/>
      <point x="678" y="356" type="curve" smooth="yes"/>
      <point x="678" y="592"/>
      <point x="576" y="714"/>
      <point x="316" y="714" type="curve" smooth="yes"/>
      <point x="125" y="714"/>
      <point x="49" y="648"/>
      <point x="49" y="530" type="curve" smooth="yes"/>
      <point x="49" y="421"/>
      <point x="115" y="353"/>
      <point x="241" y="353" type="curve" smooth="yes"/>
      <point x="364" y="353"/>
      <point x="433" y="418"/>
      <point x="433" y="600" type="curve" smooth="yes"/>
      <point x="433" y="659" type="line"/>
      <point x="355" y="659" type="line"/>
      <point x="355" y="602" type="line" smooth="yes"/>
      <point x="355" y="473"/>
      <point x="321" y="423"/>
      <point x="241" y="423" type="curve" smooth="yes"/>
      <point x="165" y="423"/>
      <point x="127" y="468"/>
      <point x="127" y="536" type="curve" smooth="yes"/>
      <point x="127" y="620"/>
      <point x="185" y="643"/>
      <point x="323" y="643" type="curve" smooth="yes"/>
      <point x="355" y="643" type="line" smooth="yes"/>
      <point x="528" y="643"/>
      <point x="600" y="540"/>
      <point x="600" y="358" type="curve" smooth="yes"/>
      <point x="600" y="122"/>
      <point x="479" y="71"/>
      <point x="220" y="71" type="curve" smooth="yes"/>
      <point x="73" y="71" type="line"/>
    </contour>
  </outline>
</glyph>
<glyph name="uni1566" format="2">
  <advance width="737"/>
  <unicode hex="1566"/>
  <note>
uni1566
</note>
  <outline>
    <contour>
      <point x="517" y="0" type="curve" smooth="yes"/>
      <point x="664" y="0" type="line"/>
      <point x="664" y="71" type="line"/>
      <point x="517" y="71" type="line" smooth="yes"/>
      <point x="258" y="71"/>
      <point x="137" y="122"/>
      <point x="137" y="358" type="curve" smooth="yes"/>
      <point x="137" y="540"/>
      <point x="209" y="643"/>
      <point x="382" y="643" type="curve" smooth="yes"/>
      <point x="414" y="643" type="line" smooth="yes"/>
      <point x="552" y="643"/>
      <point x="610" y="620"/>
      <point x="610" y="536" type="curve" smooth="yes"/>
      <point x="610" y="468"/>
      <point x="572" y="423"/>
      <point x="496" y="423" type="curve" smooth="yes"/>
      <point x="416" y="423"/>
      <point x="382" y="473"/>
      <point x="382" y="602" type="curve" smooth="yes"/>
      <point x="382" y="659" type="line"/>
      <point x="304" y="659" type="line"/>
      <point x="304" y="600" type="line" smooth="yes"/>
      <point x="304" y="418"/>
      <point x="373" y="353"/>
      <point x="496" y="353" type="curve" smooth="yes"/>
      <point x="622" y="353"/>
      <point x="688" y="421"/>
      <point x="688" y="530" type="curve" smooth="yes"/>
      <point x="688" y="648"/>
      <point x="612" y="714"/>
      <point x="421" y="714" type="curve" smooth="yes"/>
      <point x="161" y="714"/>
      <point x="59" y="592"/>
      <point x="59" y="356" type="curve" smooth="yes"/>
      <point x="59" y="67"/>
      <point x="211" y="0"/>
    </contour>
  </outline>
</glyph>
<glyph name="uni156A" format="2">
  <advance width="462"/>
  <unicode hex="156A"/>
  <note>
uni156A
</note>
  <outline>
    <contour>
      <point x="311" y="342" type="curve" smooth="yes"/>
      <point x="415" y="342" type="line"/>
      <point x="415" y="415" type="line"/>
      <point x="311" y="415" type="line" smooth="yes"/>
      <point x="186" y="415"/>
      <point x="124" y="422"/>
      <point x="124" y="522" type="curve" smooth="yes"/>
      <point x="124" y="624"/>
      <point x="173" y="654"/>
      <point x="277" y="654" type="curve" smooth="yes"/>
      <point x="286" y="654" type="line" smooth="yes"/>
      <point x="328" y="654"/>
      <point x="348" y="642"/>
      <point x="348" y="614" type="curve" smooth="yes"/>
      <point x="348" y="588"/>
      <point x="331" y="570"/>
      <point x="302" y="570" type="curve" smooth="yes"/>
      <point x="268" y="570"/>
      <point x="251" y="594"/>
      <point x="251" y="640" type="curve" smooth="yes"/>
      <point x="251" y="673" type="line"/>
      <point x="184" y="673" type="line"/>
      <point x="184" y="654" type="line" smooth="yes"/>
      <point x="184" y="549"/>
      <point x="217" y="503"/>
      <point x="304" y="503" type="curve" smooth="yes"/>
      <point x="372" y="503"/>
      <point x="423" y="549"/>
      <point x="423" y="614" type="curve" smooth="yes"/>
      <point x="423" y="679"/>
      <point x="368" y="721"/>
      <point x="284" y="721" type="curve" smooth="yes"/>
      <point x="136" y="721"/>
      <point x="49" y="647"/>
      <point x="49" y="522" type="curve" smooth="yes"/>
      <point x="49" y="397"/>
      <point x="114" y="342"/>
    </contour>
  </outline>
</glyph>
<glyph name="uni156B" format="2">
  <advance width="766"/>
  <unicode hex="156B"/>
  <note>
uni156B
</note>
  <outline>
    <contour>
      <point x="383" y="-12" type="curve" smooth="yes"/>
      <point x="630" y="-12"/>
      <point x="697" y="122"/>
      <point x="697" y="388" type="curve" smooth="yes"/>
      <point x="697" y="714" type="line"/>
      <point x="619" y="714" type="line"/>
      <point x="619" y="393" type="line" smooth="yes"/>
      <point x="619" y="177"/>
      <point x="582" y="59"/>
      <point x="381" y="59" type="curve" smooth="yes"/>
      <point x="185" y="59"/>
      <point x="146" y="172"/>
      <point x="146" y="393" type="curve" smooth="yes"/>
      <point x="146" y="714" type="line"/>
      <point x="68" y="714" type="line"/>
      <point x="68" y="388" type="line" smooth="yes"/>
      <point x="68" y="125"/>
      <point x="134" y="-12"/>
    </contour>
    <contour>
      <point x="340" y="359" type="line"/>
      <point x="418" y="359" type="line"/>
      <point x="418" y="714" type="line"/>
      <point x="340" y="714" type="line"/>
    </contour>
  </outline>
</glyph>
<glyph name="uni156C" format="2">
  <advance width="766"/>
  <unicode hex="156C"/>
  <note>
uni156C
</note>
  <outline>
    <contour>
      <point x="68" y="0" type="line"/>
      <point x="146" y="0" type="line"/>
      <point x="146" y="321" type="line" smooth="yes"/>
      <point x="146" y="542"/>
      <point x="185" y="655"/>
      <point x="381" y="655" type="curve" smooth="yes"/>
      <point x="582" y="655"/>
      <point x="619" y="537"/>
      <point x="619" y="321" type="curve" smooth="yes"/>
      <point x="619" y="0" type="line"/>
      <point x="697" y="0" type="line"/>
      <point x="697" y="326" type="line" smooth="yes"/>
      <point x="697" y="592"/>
      <point x="630" y="726"/>
      <point x="383" y="726" type="curve" smooth="yes"/>
      <point x="134" y="726"/>
      <point x="68" y="589"/>
      <point x="68" y="326" type="curve" smooth="yes"/>
    </contour>
    <contour>
      <point x="340" y="0" type="line"/>
      <point x="418" y="0" type="line"/>
      <point x="418" y="355" type="line"/>
      <point x="340" y="355" type="line"/>
    </contour>
  </outline>
</glyph>
<glyph name="uni156D" format="2">
  <advance width="682"/>
  <unicode hex="156D"/>
  <note>
uni156D
</note>
  <outline>
    <contour>
      <point x="49" y="0" type="line"/>
      <point x="195" y="0" type="line" smooth="yes"/>
      <point x="502" y="0"/>
      <point x="613" y="67"/>
      <point x="613" y="357" type="curve" smooth="yes"/>
      <point x="613" y="648"/>
      <point x="500" y="714"/>
      <point x="195" y="714" type="curve" smooth="yes"/>
      <point x="49" y="714" type="line"/>
      <point x="49" y="643" type="line"/>
      <point x="195" y="643" type="line" smooth="yes"/>
      <point x="455" y="643"/>
      <point x="533" y="603"/>
      <point x="533" y="357" type="curve" smooth="yes"/>
      <point x="533" y="111"/>
      <point x="463" y="71"/>
      <point x="195" y="71" type="curve" smooth="yes"/>
      <point x="49" y="71" type="line"/>
    </contour>
    <contour>
      <point x="49" y="322" type="line"/>
      <point x="363" y="322" type="line"/>
      <point x="363" y="393" type="line"/>
      <point x="49" y="393" type="line"/>
    </contour>
  </outline>
</glyph>
<glyph name="uni156E" format="2">
  <advance width="682"/>
  <unicode hex="156E"/>
  <note>
uni156E
</note>
  <outline>
    <contour>
      <point x="487" y="0" type="curve" smooth="yes"/>
      <point x="633" y="0" type="line"/>
      <point x="633" y="71" type="line"/>
      <point x="487" y="71" type="line" smooth="yes"/>
      <point x="223" y="71"/>
      <point x="149" y="112"/>
      <point x="149" y="357" type="curve" smooth="yes"/>
      <point x="149" y="602"/>
      <point x="227" y="643"/>
      <point x="487" y="643" type="curve" smooth="yes"/>
      <point x="633" y="643" type="line"/>
      <point x="633" y="714" type="line"/>
      <point x="487" y="714" type="line" smooth="yes"/>
      <point x="186" y="714"/>
      <point x="68" y="647"/>
      <point x="68" y="357" type="curve" smooth="yes"/>
      <point x="68" y="65"/>
      <point x="182" y="0"/>
    </contour>
    <contour>
      <point x="318" y="322" type="line"/>
      <point x="633" y="322" type="line"/>
      <point x="633" y="393" type="line"/>
      <point x="318" y="393" type="line"/>
    </contour>
  </outline>
</glyph>
<glyph name="uni156F" format="2">
  <advance width="869"/>
  <unicode hex="156F"/>
  <note>
uni156F
</note>
  <outline>
    <contour>
      <point x="557" y="374" type="line"/>
      <point x="645" y="487" type="line"/>
      <point x="732" y="374" type="line"/>
      <point x="792" y="411" type="line"/>
      <point x="708" y="523" type="line"/>
      <point x="830" y="597" type="line"/>
      <point x="791" y="652" type="line"/>
      <point x="682" y="586" type="line"/>
      <point x="682" y="714" type="line"/>
      <point x="607" y="714" type="line"/>
      <point x="607" y="586" type="line"/>
      <point x="498" y="652" type="line"/>
      <point x="459" y="597" type="line"/>
      <point x="581" y="523" type="line"/>
      <point x="497" y="411" type="line"/>
    </contour>
    <contour>
      <point x="137" y="374" type="line"/>
      <point x="225" y="487" type="line"/>
      <point x="312" y="374" type="line"/>
      <point x="373" y="411" type="line"/>
      <point x="289" y="523" type="line"/>
      <point x="410" y="597" type="line"/>
      <point x="371" y="652" type="line"/>
      <point x="262" y="586" type="line"/>
      <point x="262" y="714" type="line"/>
      <point x="187" y="714" type="line"/>
      <point x="187" y="586" type="line"/>
      <point x="78" y="652" type="line"/>
      <point x="39" y="597" type="line"/>
      <point x="161" y="523" type="line"/>
      <point x="77" y="411" type="line"/>
    </contour>
  </outline>
</glyph>
<glyph name="uni1570" format="2">
  <advance width="766"/>
  <unicode hex="1570"/>
  <note>
uni1570
</note>
  <outline>
    <contour>
      <point x="380" y="-12" type="curve" smooth="yes"/>
      <point x="660" y="-12"/>
      <point x="697" y="188"/>
      <point x="697" y="512" type="curve" smooth="yes"/>
      <point x="697" y="714" type="line"/>
      <point x="619" y="714" type="line"/>
      <point x="619" y="517" type="line" smooth="yes"/>
      <point x="619" y="237"/>
      <point x="604" y="59"/>
      <point x="380" y="59" type="curve" smooth="yes"/>
      <point x="167" y="59"/>
      <point x="146" y="231"/>
      <point x="146" y="517" type="curve" smooth="yes"/>
      <point x="146" y="714" type="line"/>
      <point x="68" y="714" type="line"/>
      <point x="68" y="512" type="line" smooth="yes"/>
      <point x="68" y="192"/>
      <point x="107" y="-12"/>
    </contour>
    <contour>
      <point x="382" y="359" type="curve" smooth="yes"/>
      <point x="502" y="359"/>
      <point x="531" y="439"/>
      <point x="531" y="573" type="curve" smooth="yes"/>
      <point x="531" y="714" type="line"/>
      <point x="456" y="714" type="line"/>
      <point x="456" y="568" type="line" smooth="yes"/>
      <point x="456" y="483"/>
      <point x="447" y="426"/>
      <point x="382" y="426" type="curve" smooth="yes"/>
      <point x="327" y="426"/>
      <point x="310" y="461"/>
      <point x="310" y="568" type="curve" smooth="yes"/>
      <point x="310" y="714" type="line"/>
      <point x="234" y="714" type="line"/>
      <point x="234" y="573" type="line" smooth="yes"/>
      <point x="234" y="444"/>
      <point x="261" y="359"/>
    </contour>
  </outline>
</glyph>
<glyph name="uni1571" format="2">
  <advance width="766"/>
  <unicode hex="1571"/>
  <note>
uni1571
</note>
  <outline>
    <contour>
      <point x="68" y="0" type="line"/>
      <point x="146" y="0" type="line"/>
      <point x="146" y="197" type="line" smooth="yes"/>
      <point x="146" y="481"/>
      <point x="164" y="655"/>
      <point x="380" y="655" type="curve" smooth="yes"/>
      <point x="602" y="655"/>
      <point x="619" y="480"/>
      <point x="619" y="197" type="curve" smooth="yes"/>
      <point x="619" y="0" type="line"/>
      <point x="697" y="0" type="line"/>
      <point x="697" y="202" type="line" smooth="yes"/>
      <point x="697" y="524"/>
      <point x="660" y="726"/>
      <point x="380" y="726" type="curve" smooth="yes"/>
      <point x="107" y="726"/>
      <point x="68" y="525"/>
      <point x="68" y="202" type="curve" smooth="yes"/>
    </contour>
    <contour>
      <point x="234" y="0" type="line"/>
      <point x="310" y="0" type="line"/>
      <point x="310" y="146" type="line" smooth="yes"/>
      <point x="310" y="253"/>
      <point x="327" y="288"/>
      <point x="382" y="288" type="curve" smooth="yes"/>
      <point x="446" y="288"/>
      <point x="456" y="234"/>
      <point x="456" y="146" type="curve" smooth="yes"/>
      <point x="456" y="0" type="line"/>
      <point x="531" y="0" type="line"/>
      <point x="531" y="141" type="line" smooth="yes"/>
      <point x="531" y="272"/>
      <point x="505" y="355"/>
      <point x="382" y="355" type="curve" smooth="yes"/>
      <point x="263" y="355"/>
      <point x="234" y="275"/>
      <point x="234" y="141" type="curve" smooth="yes"/>
    </contour>
  </outline>
</glyph>
<glyph name="uni1572" format="2">
  <advance width="682"/>
  <unicode hex="1572"/>
  <note>
uni1572
</note>
  <outline>
    <contour>
      <point x="49" y="0" type="line"/>
      <point x="195" y="0" type="line" smooth="yes"/>
      <point x="502" y="0"/>
      <point x="613" y="67"/>
      <point x="613" y="357" type="curve" smooth="yes"/>
      <point x="613" y="648"/>
      <point x="500" y="714"/>
      <point x="195" y="714" type="curve" smooth="yes"/>
      <point x="49" y="714" type="line"/>
      <point x="49" y="643" type="line"/>
      <point x="195" y="643" type="line" smooth="yes"/>
      <point x="455" y="643"/>
      <point x="533" y="603"/>
      <point x="533" y="357" type="curve" smooth="yes"/>
      <point x="533" y="111"/>
      <point x="463" y="71"/>
      <point x="195" y="71" type="curve" smooth="yes"/>
      <point x="49" y="71" type="line"/>
    </contour>
    <contour>
      <point x="49" y="190" type="line"/>
      <point x="107" y="190" type="line" smooth="yes"/>
      <point x="268" y="190"/>
      <point x="344" y="219"/>
      <point x="344" y="363" type="curve" smooth="yes"/>
      <point x="344" y="477"/>
      <point x="281" y="525"/>
      <point x="116" y="525" type="curve" smooth="yes"/>
      <point x="49" y="525" type="line"/>
      <point x="49" y="458" type="line"/>
      <point x="118" y="458" type="line" smooth="yes"/>
      <point x="241" y="458"/>
      <point x="269" y="428"/>
      <point x="269" y="363" type="curve" smooth="yes"/>
      <point x="269" y="259"/>
      <point x="209" y="257"/>
      <point x="99" y="257" type="curve" smooth="yes"/>
      <point x="49" y="257" type="line"/>
    </contour>
  </outline>
</glyph>
<glyph name="uni1573" format="2">
  <advance width="682"/>
  <unicode hex="1573"/>
  <note>
uni1573
</note>
  <outline>
    <contour>
      <point x="487" y="0" type="curve" smooth="yes"/>
      <point x="633" y="0" type="line"/>
      <point x="633" y="71" type="line"/>
      <point x="487" y="71" type="line" smooth="yes"/>
      <point x="223" y="71"/>
      <point x="149" y="112"/>
      <point x="149" y="357" type="curve" smooth="yes"/>
      <point x="149" y="602"/>
      <point x="227" y="643"/>
      <point x="487" y="643" type="curve" smooth="yes"/>
      <point x="633" y="643" type="line"/>
      <point x="633" y="714" type="line"/>
      <point x="487" y="714" type="line" smooth="yes"/>
      <point x="186" y="714"/>
      <point x="68" y="647"/>
      <point x="68" y="357" type="curve" smooth="yes"/>
      <point x="68" y="65"/>
      <point x="182" y="0"/>
    </contour>
    <contour>
      <point x="575" y="190" type="curve" smooth="yes"/>
      <point x="633" y="190" type="line"/>
      <point x="633" y="257" type="line"/>
      <point x="583" y="257" type="line" smooth="yes"/>
      <point x="467" y="257"/>
      <point x="413" y="262"/>
      <point x="413" y="363" type="curve" smooth="yes"/>
      <point x="413" y="428"/>
      <point x="441" y="458"/>
      <point x="564" y="458" type="curve" smooth="yes"/>
      <point x="633" y="458" type="line"/>
      <point x="633" y="525" type="line"/>
      <point x="565" y="525" type="line" smooth="yes"/>
      <point x="400" y="525"/>
      <point x="338" y="477"/>
      <point x="338" y="363" type="curve" smooth="yes"/>
      <point x="338" y="218"/>
      <point x="412" y="190"/>
    </contour>
  </outline>
</glyph>
<glyph name="uni1574" format="2">
  <advance width="812"/>
  <unicode hex="1574"/>
  <note>
uni1574
</note>
  <outline>
    <contour>
      <point x="445" y="0" type="line"/>
      <point x="523" y="0" type="line"/>
      <point x="523" y="458" type="line" smooth="yes"/>
      <point x="523" y="635"/>
      <point x="443" y="726"/>
      <point x="291" y="726" type="curve" smooth="yes"/>
      <point x="142" y="726"/>
      <point x="59" y="633"/>
      <point x="59" y="472" type="curve" smooth="yes"/>
      <point x="59" y="315"/>
      <point x="148" y="213"/>
      <point x="292" y="213" type="curve" smooth="yes"/>
      <point x="353" y="213"/>
      <point x="400" y="227"/>
      <point x="445" y="260" type="curve"/>
    </contour>
    <contour>
      <point x="302" y="284" type="curve" smooth="yes"/>
      <point x="194" y="284"/>
      <point x="137" y="354"/>
      <point x="137" y="476" type="curve" smooth="yes"/>
      <point x="137" y="587"/>
      <point x="193" y="655"/>
      <point x="292" y="655" type="curve" smooth="yes"/>
      <point x="383" y="655"/>
      <point x="445" y="585"/>
      <point x="445" y="492" type="curve" smooth="yes"/>
      <point x="445" y="440" type="line" smooth="yes"/>
      <point x="445" y="351"/>
      <point x="381" y="284"/>
    </contour>
    <contour>
      <point x="523" y="0" type="line"/>
      <point x="783" y="195" type="line"/>
      <point x="737" y="256" type="line"/>
      <point x="510" y="80" type="line"/>
    </contour>
  </outline>
</glyph>
<glyph name="uni1575" format="2">
  <advance width="813"/>
  <unicode hex="1575"/>
  <note>
uni1575
</note>
  <outline>
    <contour>
      <point x="289" y="0" type="line"/>
      <point x="367" y="0" type="line"/>
      <point x="367" y="260" type="line"/>
      <point x="412" y="226"/>
      <point x="460" y="213"/>
      <point x="520" y="213" type="curve" smooth="yes"/>
      <point x="663" y="213"/>
      <point x="754" y="313"/>
      <point x="754" y="472" type="curve" smooth="yes"/>
      <point x="754" y="633"/>
      <point x="671" y="726"/>
      <point x="522" y="726" type="curve" smooth="yes"/>
      <point x="371" y="726"/>
      <point x="289" y="636"/>
      <point x="289" y="458" type="curve" smooth="yes"/>
    </contour>
    <contour>
      <point x="289" y="0" type="line"/>
      <point x="302" y="80" type="line"/>
      <point x="75" y="256" type="line"/>
      <point x="29" y="195" type="line"/>
    </contour>
    <contour>
      <point x="511" y="284" type="curve" smooth="yes"/>
      <point x="430" y="284"/>
      <point x="367" y="352"/>
      <point x="367" y="440" type="curve" smooth="yes"/>
      <point x="367" y="492" type="line" smooth="yes"/>
      <point x="367" y="584"/>
      <point x="429" y="655"/>
      <point x="520" y="655" type="curve" smooth="yes"/>
      <point x="619" y="655"/>
      <point x="676" y="588"/>
      <point x="676" y="476" type="curve" smooth="yes"/>
      <point x="676" y="354"/>
      <point x="618" y="284"/>
    </contour>
  </outline>
</glyph>
<glyph name="uni1577" format="2">
  <advance width="812"/>
  <unicode hex="1577"/>
  <note>
uni1577
</note>
  <outline>
    <contour>
      <point x="291" y="-12" type="curve" smooth="yes"/>
      <point x="442" y="-12"/>
      <point x="523" y="78"/>
      <point x="523" y="255" type="curve" smooth="yes"/>
      <point x="523" y="714" type="line"/>
      <point x="445" y="714" type="line"/>
      <point x="445" y="454" type="line"/>
      <point x="400" y="488"/>
      <point x="353" y="500"/>
      <point x="292" y="500" type="curve" smooth="yes"/>
      <point x="149" y="500"/>
      <point x="59" y="401"/>
      <point x="59" y="242" type="curve" smooth="yes"/>
      <point x="59" y="81"/>
      <point x="142" y="-12"/>
    </contour>
    <contour>
      <point x="292" y="59" type="curve" smooth="yes"/>
      <point x="193" y="59"/>
      <point x="137" y="127"/>
      <point x="137" y="238" type="curve" smooth="yes"/>
      <point x="137" y="360"/>
      <point x="195" y="430"/>
      <point x="302" y="430" type="curve" smooth="yes"/>
      <point x="382" y="430"/>
      <point x="445" y="362"/>
      <point x="445" y="273" type="curve" smooth="yes"/>
      <point x="445" y="222" type="line" smooth="yes"/>
      <point x="445" y="130"/>
      <point x="384" y="59"/>
    </contour>
    <contour>
      <point x="737" y="458" type="line"/>
      <point x="783" y="519" type="line"/>
      <point x="523" y="714" type="line"/>
      <point x="510" y="634" type="line"/>
    </contour>
  </outline>
</glyph>
<glyph name="uni1579" format="2">
  <advance width="813"/>
  <unicode hex="1579"/>
  <note>
uni1579
</note>
  <outline>
    <contour>
      <point x="522" y="-12" type="curve" smooth="yes"/>
      <point x="671" y="-12"/>
      <point x="754" y="81"/>
      <point x="754" y="242" type="curve" smooth="yes"/>
      <point x="754" y="399"/>
      <point x="665" y="500"/>
      <point x="520" y="500" type="curve" smooth="yes"/>
      <point x="460" y="500"/>
      <point x="412" y="488"/>
      <point x="367" y="454" type="curve"/>
      <point x="367" y="714" type="line"/>
      <point x="289" y="714" type="line"/>
      <point x="289" y="255" type="line" smooth="yes"/>
      <point x="289" y="79"/>
      <point x="370" y="-12"/>
    </contour>
    <contour>
      <point x="520" y="59" type="curve" smooth="yes"/>
      <point x="430" y="59"/>
      <point x="367" y="129"/>
      <point x="367" y="222" type="curve" smooth="yes"/>
      <point x="367" y="273" type="line" smooth="yes"/>
      <point x="367" y="362"/>
      <point x="430" y="430"/>
      <point x="511" y="430" type="curve" smooth="yes"/>
      <point x="618" y="430"/>
      <point x="676" y="360"/>
      <point x="676" y="238" type="curve" smooth="yes"/>
      <point x="676" y="126"/>
      <point x="619" y="59"/>
    </contour>
    <contour>
      <point x="75" y="458" type="line"/>
      <point x="302" y="634" type="line"/>
      <point x="289" y="714" type="line"/>
      <point x="29" y="519" type="line"/>
    </contour>
  </outline>
</glyph>
<glyph name="uni157B" format="2">
  <advance width="502"/>
  <unicode hex="157B"/>
  <note>
uni157B
</note>
  <outline>
    <contour>
      <point x="322" y="334" type="curve" smooth="yes"/>
      <point x="410" y="334"/>
      <point x="463" y="389"/>
      <point x="463" y="474" type="curve" smooth="yes"/>
      <point x="463" y="556"/>
      <point x="408" y="608"/>
      <point x="321" y="608" type="curve" smooth="yes"/>
      <point x="294" y="608"/>
      <point x="270" y="602"/>
      <point x="250" y="591" type="curve"/>
      <point x="250" y="714" type="line"/>
      <point x="187" y="714" type="line"/>
      <point x="39" y="605" type="line"/>
      <point x="77" y="556" type="line"/>
      <point x="175" y="630" type="line"/>
      <point x="175" y="493" type="line" smooth="yes"/>
      <point x="175" y="392"/>
      <point x="227" y="334"/>
    </contour>
    <contour>
      <point x="321" y="402" type="curve" smooth="yes"/>
      <point x="280" y="402"/>
      <point x="250" y="430"/>
      <point x="250" y="468" type="curve" smooth="yes"/>
      <point x="250" y="514"/>
      <point x="278" y="541"/>
      <point x="316" y="541" type="curve" smooth="yes"/>
      <point x="365" y="541"/>
      <point x="391" y="516"/>
      <point x="391" y="472" type="curve" smooth="yes"/>
      <point x="391" y="429"/>
      <point x="363" y="402"/>
    </contour>
  </outline>
</glyph>
<glyph name="uni157C" format="2">
  <advance width="657"/>
  <unicode hex="157C"/>
  <note>
uni157C
</note>
  <outline>
    <contour>
      <point x="68" y="0" type="line"/>
      <point x="146" y="0" type="line"/>
      <point x="146" y="359" type="line"/>
      <point x="511" y="359" type="line"/>
      <point x="511" y="0" type="line"/>
      <point x="589" y="0" type="line"/>
      <point x="589" y="714" type="line"/>
      <point x="511" y="714" type="line"/>
      <point x="511" y="430" type="line"/>
      <point x="146" y="430" type="line"/>
      <point x="146" y="714" type="line"/>
      <point x="68" y="714" type="line"/>
    </contour>
  </outline>
</glyph>
<glyph name="uni157D" format="2">
  <advance width="398"/>
  <unicode hex="157D"/>
  <note>
uni157D
</note>
  <outline>
    <contour>
      <point x="276" y="391" type="line"/>
      <point x="359" y="391" type="line"/>
      <point x="123" y="714" type="line"/>
      <point x="39" y="714" type="line"/>
    </contour>
    <contour>
      <point x="39" y="391" type="line"/>
      <point x="122" y="391" type="line"/>
      <point x="359" y="714" type="line"/>
      <point x="275" y="714" type="line"/>
    </contour>
  </outline>
</glyph>
<glyph name="uni1586" format="2">
  <advance width="592"/>
  <unicode hex="1586"/>
  <note>
uni1586
</note>
  <outline>
    <contour>
      <point x="445" y="0" type="line"/>
      <point x="523" y="0" type="line"/>
      <point x="523" y="458" type="line" smooth="yes"/>
      <point x="523" y="635"/>
      <point x="443" y="726"/>
      <point x="291" y="726" type="curve" smooth="yes"/>
      <point x="143" y="726"/>
      <point x="59" y="642"/>
      <point x="59" y="496" type="curve" smooth="yes"/>
      <point x="59" y="352"/>
      <point x="149" y="262"/>
      <point x="280" y="262" type="curve" smooth="yes"/>
      <point x="344" y="262"/>
      <point x="388" y="267"/>
      <point x="445" y="309" type="curve"/>
    </contour>
    <contour>
      <point x="302" y="333" type="curve" smooth="yes"/>
      <point x="189" y="333"/>
      <point x="137" y="395"/>
      <point x="137" y="500" type="curve" smooth="yes"/>
      <point x="137" y="598"/>
      <point x="195" y="655"/>
      <point x="292" y="655" type="curve" smooth="yes"/>
      <point x="390" y="655"/>
      <point x="445" y="593"/>
      <point x="445" y="489" type="curve" smooth="yes"/>
      <point x="445" y="390"/>
      <point x="394" y="333"/>
    </contour>
    <contour>
      <point x="98" y="0" type="line"/>
      <point x="173" y="0" type="line"/>
      <point x="308" y="284" type="line"/>
      <point x="231" y="284" type="line"/>
    </contour>
  </outline>
</glyph>
<glyph name="uni1587" format="2">
  <advance width="592"/>
  <unicode hex="1587"/>
  <note>
uni1587
</note>
  <outline>
    <contour>
      <point x="69" y="0" type="line"/>
      <point x="147" y="0" type="line"/>
      <point x="147" y="309" type="line"/>
      <point x="204" y="267"/>
      <point x="248" y="262"/>
      <point x="312" y="262" type="curve" smooth="yes"/>
      <point x="443" y="262"/>
      <point x="533" y="352"/>
      <point x="533" y="496" type="curve" smooth="yes"/>
      <point x="533" y="642"/>
      <point x="449" y="726"/>
      <point x="301" y="726" type="curve" smooth="yes"/>
      <point x="149" y="726"/>
      <point x="69" y="635"/>
      <point x="69" y="458" type="curve" smooth="yes"/>
    </contour>
    <contour>
      <point x="419" y="0" type="line"/>
      <point x="494" y="0" type="line"/>
      <point x="361" y="284" type="line"/>
      <point x="284" y="284" type="line"/>
    </contour>
    <contour>
      <point x="290" y="333" type="curve" smooth="yes"/>
      <point x="198" y="333"/>
      <point x="147" y="390"/>
      <point x="147" y="489" type="curve" smooth="yes"/>
      <point x="147" y="593"/>
      <point x="202" y="655"/>
      <point x="300" y="655" type="curve" smooth="yes"/>
      <point x="397" y="655"/>
      <point x="455" y="598"/>
      <point x="455" y="500" type="curve" smooth="yes"/>
      <point x="455" y="395"/>
      <point x="403" y="333"/>
    </contour>
  </outline>
</glyph>
<glyph name="uni1588" format="2">
  <advance width="592"/>
  <unicode hex="1588"/>
  <note>
uni1588
</note>
  <outline>
    <contour>
      <point x="291" y="-12" type="curve" smooth="yes"/>
      <point x="443" y="-12"/>
      <point x="523" y="79"/>
      <point x="523" y="256" type="curve" smooth="yes"/>
      <point x="523" y="714" type="line"/>
      <point x="445" y="714" type="line"/>
      <point x="445" y="405" type="line"/>
      <point x="388" y="447"/>
      <point x="344" y="452"/>
      <point x="280" y="452" type="curve" smooth="yes"/>
      <point x="149" y="452"/>
      <point x="59" y="362"/>
      <point x="59" y="218" type="curve" smooth="yes"/>
      <point x="59" y="72"/>
      <point x="143" y="-12"/>
    </contour>
    <contour>
      <point x="292" y="59" type="curve" smooth="yes"/>
      <point x="195" y="59"/>
      <point x="137" y="116"/>
      <point x="137" y="214" type="curve" smooth="yes"/>
      <point x="137" y="319"/>
      <point x="189" y="381"/>
      <point x="302" y="381" type="curve" smooth="yes"/>
      <point x="394" y="381"/>
      <point x="445" y="324"/>
      <point x="445" y="225" type="curve" smooth="yes"/>
      <point x="445" y="121"/>
      <point x="390" y="59"/>
    </contour>
    <contour>
      <point x="231" y="430" type="line"/>
      <point x="308" y="430" type="line"/>
      <point x="173" y="714" type="line"/>
      <point x="98" y="714" type="line"/>
    </contour>
  </outline>
</glyph>
<glyph name="uni1589" format="2">
  <advance width="592"/>
  <unicode hex="1589"/>
  <note>
uni1589
</note>
  <outline>
    <contour>
      <point x="301" y="-12" type="curve" smooth="yes"/>
      <point x="449" y="-12"/>
      <point x="533" y="72"/>
      <point x="533" y="218" type="curve" smooth="yes"/>
      <point x="533" y="362"/>
      <point x="443" y="452"/>
      <point x="312" y="452" type="curve" smooth="yes"/>
      <point x="248" y="452"/>
      <point x="204" y="447"/>
      <point x="147" y="405" type="curve"/>
      <point x="147" y="714" type="line"/>
      <point x="69" y="714" type="line"/>
      <point x="69" y="256" type="line" smooth="yes"/>
      <point x="69" y="79"/>
      <point x="149" y="-12"/>
    </contour>
    <contour>
      <point x="300" y="59" type="curve" smooth="yes"/>
      <point x="202" y="59"/>
      <point x="147" y="121"/>
      <point x="147" y="225" type="curve" smooth="yes"/>
      <point x="147" y="324"/>
      <point x="198" y="381"/>
      <point x="290" y="381" type="curve" smooth="yes"/>
      <point x="403" y="381"/>
      <point x="455" y="319"/>
      <point x="455" y="214" type="curve" smooth="yes"/>
      <point x="455" y="116"/>
      <point x="397" y="59"/>
    </contour>
    <contour>
      <point x="284" y="430" type="line"/>
      <point x="361" y="430" type="line"/>
      <point x="494" y="714" type="line"/>
      <point x="419" y="714" type="line"/>
    </contour>
  </outline>
</glyph>
<glyph name="uni158A" format="2">
  <advance width="851"/>
  <unicode hex="158A"/>
  <note>
uni158A
</note>
  <outline>
    <contour>
      <point x="486" y="0" type="line"/>
      <point x="564" y="0" type="line"/>
      <point x="564" y="378" type="line" smooth="yes"/>
      <point x="564" y="606"/>
      <point x="517" y="726"/>
      <point x="313" y="726" type="curve" smooth="yes"/>
      <point x="118" y="726"/>
      <point x="63" y="633"/>
      <point x="59" y="433" type="curve" smooth="yes"/>
      <point x="59" y="411" type="line"/>
      <point x="137" y="411" type="line"/>
      <point x="137" y="433" type="line" smooth="yes"/>
      <point x="137" y="585"/>
      <point x="169" y="655"/>
      <point x="313" y="655" type="curve" smooth="yes"/>
      <point x="456" y="655"/>
      <point x="486" y="567"/>
      <point x="486" y="405" type="curve" smooth="yes"/>
    </contour>
    <contour>
      <point x="564" y="0" type="line"/>
      <point x="822" y="195" type="line"/>
      <point x="776" y="256" type="line"/>
      <point x="551" y="81" type="line"/>
    </contour>
  </outline>
</glyph>
<glyph name="uni158B" format="2">
  <advance width="851"/>
  <unicode hex="158B"/>
  <note>
uni158B
</note>
  <outline>
    <contour>
      <point x="287" y="0" type="line"/>
      <point x="365" y="0" type="line"/>
      <point x="365" y="405" type="line" smooth="yes"/>
      <point x="365" y="567"/>
      <point x="395" y="655"/>
      <point x="538" y="655" type="curve" smooth="yes"/>
      <point x="682" y="655"/>
      <point x="714" y="585"/>
      <point x="714" y="433" type="curve" smooth="yes"/>
      <point x="714" y="411" type="line"/>
      <point x="792" y="411" type="line"/>
      <point x="792" y="433" type="line"/>
      <point x="788" y="633"/>
      <point x="733" y="726"/>
      <point x="538" y="726" type="curve" smooth="yes"/>
      <point x="334" y="726"/>
      <point x="287" y="606"/>
      <point x="287" y="378" type="curve" smooth="yes"/>
    </contour>
    <contour>
      <point x="287" y="0" type="line"/>
      <point x="300" y="81" type="line"/>
      <point x="75" y="256" type="line"/>
      <point x="29" y="195" type="line"/>
    </contour>
  </outline>
</glyph>
<glyph name="uni158C" format="2">
  <advance width="851"/>
  <unicode hex="158C"/>
  <note>
uni158C
</note>
  <outline>
    <contour>
      <point x="313" y="-12" type="curve" smooth="yes"/>
      <point x="517" y="-12"/>
      <point x="564" y="108"/>
      <point x="564" y="336" type="curve" smooth="yes"/>
      <point x="564" y="714" type="line"/>
      <point x="486" y="714" type="line"/>
      <point x="486" y="309" type="line" smooth="yes"/>
      <point x="486" y="147"/>
      <point x="456" y="59"/>
      <point x="313" y="59" type="curve" smooth="yes"/>
      <point x="169" y="59"/>
      <point x="137" y="129"/>
      <point x="137" y="281" type="curve" smooth="yes"/>
      <point x="137" y="303" type="line"/>
      <point x="59" y="303" type="line"/>
      <point x="59" y="281" type="line" smooth="yes"/>
      <point x="59" y="81"/>
      <point x="118" y="-12"/>
    </contour>
    <contour>
      <point x="776" y="458" type="line"/>
      <point x="822" y="519" type="line"/>
      <point x="564" y="714" type="line"/>
      <point x="551" y="633" type="line"/>
    </contour>
  </outline>
</glyph>
<glyph name="uni158D" format="2">
  <advance width="851"/>
  <unicode hex="158D"/>
  <note>
uni158D
</note>
  <outline>
    <contour>
      <point x="538" y="-12" type="curve" smooth="yes"/>
      <point x="733" y="-12"/>
      <point x="792" y="81"/>
      <point x="792" y="281" type="curve" smooth="yes"/>
      <point x="792" y="303" type="line"/>
      <point x="714" y="303" type="line"/>
      <point x="714" y="281" type="line" smooth="yes"/>
      <point x="714" y="129"/>
      <point x="682" y="59"/>
      <point x="538" y="59" type="curve" smooth="yes"/>
      <point x="395" y="59"/>
      <point x="365" y="147"/>
      <point x="365" y="309" type="curve" smooth="yes"/>
      <point x="365" y="714" type="line"/>
      <point x="287" y="714" type="line"/>
      <point x="287" y="336" type="line" smooth="yes"/>
      <point x="287" y="108"/>
      <point x="334" y="-12"/>
    </contour>
    <contour>
      <point x="75" y="458" type="line"/>
      <point x="300" y="633" type="line"/>
      <point x="287" y="714" type="line"/>
      <point x="29" y="519" type="line"/>
    </contour>
  </outline>
</glyph>
<glyph name="uni1591" format="2">
  <advance width="917"/>
  <unicode hex="1591"/>
  <note>
uni1591
</note>
  <outline>
    <contour>
      <point x="597" y="-12" type="curve" smooth="yes"/>
      <point x="798" y="-12"/>
      <point x="848" y="107"/>
      <point x="848" y="336" type="curve" smooth="yes"/>
      <point x="848" y="714" type="line"/>
      <point x="770" y="714" type="line"/>
      <point x="770" y="309" type="line" smooth="yes"/>
      <point x="770" y="153"/>
      <point x="741" y="59"/>
      <point x="597" y="59" type="curve" smooth="yes"/>
      <point x="476" y="59"/>
      <point x="433" y="98"/>
      <point x="424" y="225" type="curve"/>
      <point x="345" y="225" type="line"/>
      <point x="353" y="57"/>
      <point x="432" y="-12"/>
    </contour>
    <contour>
      <point x="167" y="565" type="curve" smooth="yes"/>
      <point x="140" y="565"/>
      <point x="119" y="587"/>
      <point x="119" y="614" type="curve" smooth="yes"/>
      <point x="119" y="643"/>
      <point x="140" y="663"/>
      <point x="167" y="663" type="curve" smooth="yes"/>
      <point x="198" y="663"/>
      <point x="213" y="646"/>
      <point x="213" y="613" type="curve" smooth="yes"/>
      <point x="213" y="586"/>
      <point x="194" y="565"/>
    </contour>
    <contour>
      <point x="417" y="313" type="curve" smooth="yes"/>
      <point x="499" y="313"/>
      <point x="539" y="352"/>
      <point x="539" y="444" type="curve" smooth="yes"/>
      <point x="539" y="459" type="line"/>
      <point x="469" y="459" type="line"/>
      <point x="469" y="444" type="line" smooth="yes"/>
      <point x="469" y="398"/>
      <point x="452" y="376"/>
      <point x="419" y="376" type="curve" smooth="yes"/>
      <point x="379" y="376"/>
      <point x="373" y="423"/>
      <point x="373" y="474" type="curve" smooth="yes"/>
      <point x="373" y="564" type="line"/>
      <point x="267" y="564" type="line"/>
      <point x="278" y="579"/>
      <point x="284" y="597"/>
      <point x="284" y="619" type="curve" smooth="yes"/>
      <point x="284" y="680"/>
      <point x="235" y="726"/>
      <point x="167" y="726" type="curve" smooth="yes"/>
      <point x="101" y="726"/>
      <point x="49" y="678"/>
      <point x="49" y="619" type="curve" smooth="yes"/>
      <point x="49" y="542"/>
      <point x="97" y="500"/>
      <point x="182" y="500" type="curve" smooth="yes"/>
      <point x="302" y="500" type="line"/>
      <point x="302" y="456" type="line" smooth="yes"/>
      <point x="302" y="354"/>
      <point x="340" y="313"/>
    </contour>
  </outline>
</glyph>
<glyph name="uni1595" format="2">
  <advance width="588"/>
  <unicode hex="1595"/>
  <note>
uni1595
</note>
  <outline>
    <contour>
      <point x="417" y="322" type="curve" smooth="yes"/>
      <point x="499" y="322"/>
      <point x="539" y="361"/>
      <point x="539" y="454" type="curve" smooth="yes"/>
      <point x="539" y="469" type="line"/>
      <point x="469" y="469" type="line"/>
      <point x="469" y="454" type="line" smooth="yes"/>
      <point x="469" y="408"/>
      <point x="452" y="386"/>
      <point x="419" y="386" type="curve" smooth="yes"/>
      <point x="379" y="386"/>
      <point x="373" y="433"/>
      <point x="373" y="484" type="curve" smooth="yes"/>
      <point x="373" y="564" type="line"/>
      <point x="267" y="564" type="line"/>
      <point x="278" y="579"/>
      <point x="284" y="597"/>
      <point x="284" y="619" type="curve" smooth="yes"/>
      <point x="284" y="680"/>
      <point x="235" y="726"/>
      <point x="167" y="726" type="curve" smooth="yes"/>
      <point x="101" y="726"/>
      <point x="49" y="678"/>
      <point x="49" y="619" type="curve" smooth="yes"/>
      <point x="49" y="542"/>
      <point x="97" y="500"/>
      <point x="182" y="500" type="curve" smooth="yes"/>
      <point x="302" y="500" type="line"/>
      <point x="302" y="466" type="line" smooth="yes"/>
      <point x="302" y="364"/>
      <point x="340" y="322"/>
    </contour>
    <contour>
      <point x="167" y="565" type="curve" smooth="yes"/>
      <point x="140" y="565"/>
      <point x="119" y="587"/>
      <point x="119" y="614" type="curve" smooth="yes"/>
      <point x="119" y="643"/>
      <point x="140" y="663"/>
      <point x="167" y="663" type="curve" smooth="yes"/>
      <point x="198" y="663"/>
      <point x="213" y="646"/>
      <point x="213" y="613" type="curve" smooth="yes"/>
      <point x="213" y="586"/>
      <point x="194" y="565"/>
    </contour>
  </outline>
</glyph>
<glyph name="uni1596" format="2">
  <advance width="862"/>
  <unicode hex="1596"/>
  <note>
uni1596
</note>
  <outline>
    <contour>
      <point x="691" y="322" type="curve" smooth="yes"/>
      <point x="773" y="322"/>
      <point x="813" y="361"/>
      <point x="813" y="454" type="curve" smooth="yes"/>
      <point x="813" y="469" type="line"/>
      <point x="743" y="469" type="line"/>
      <point x="743" y="454" type="line" smooth="yes"/>
      <point x="743" y="408"/>
      <point x="727" y="386"/>
      <point x="693" y="386" type="curve" smooth="yes"/>
      <point x="656" y="386"/>
      <point x="647" y="428"/>
      <point x="647" y="484" type="curve" smooth="yes"/>
      <point x="647" y="564" type="line"/>
      <point x="542" y="564" type="line"/>
      <point x="553" y="579"/>
      <point x="558" y="597"/>
      <point x="558" y="619" type="curve" smooth="yes"/>
      <point x="558" y="680"/>
      <point x="509" y="726"/>
      <point x="441" y="726" type="curve" smooth="yes"/>
      <point x="375" y="726"/>
      <point x="323" y="678"/>
      <point x="323" y="619" type="curve" smooth="yes"/>
      <point x="323" y="598"/>
      <point x="327" y="579"/>
      <point x="334" y="564" type="curve"/>
      <point x="267" y="564" type="line"/>
      <point x="278" y="579"/>
      <point x="284" y="597"/>
      <point x="284" y="619" type="curve" smooth="yes"/>
      <point x="284" y="680"/>
      <point x="235" y="726"/>
      <point x="167" y="726" type="curve" smooth="yes"/>
      <point x="101" y="726"/>
      <point x="49" y="678"/>
      <point x="49" y="619" type="curve" smooth="yes"/>
      <point x="49" y="542"/>
      <point x="97" y="500"/>
      <point x="182" y="500" type="curve" smooth="yes"/>
      <point x="577" y="500" type="line"/>
      <point x="577" y="466" type="line" smooth="yes"/>
      <point x="577" y="364"/>
      <point x="614" y="322"/>
    </contour>
    <contour>
      <point x="167" y="565" type="curve" smooth="yes"/>
      <point x="140" y="565"/>
      <point x="119" y="587"/>
      <point x="119" y="614" type="curve" smooth="yes"/>
      <point x="119" y="643"/>
      <point x="140" y="663"/>
      <point x="167" y="663" type="curve" smooth="yes"/>
      <point x="198" y="663"/>
      <point x="213" y="646"/>
      <point x="213" y="613" type="curve" smooth="yes"/>
      <point x="213" y="586"/>
      <point x="194" y="565"/>
    </contour>
    <contour>
      <point x="441" y="565" type="curve" smooth="yes"/>
      <point x="414" y="565"/>
      <point x="394" y="587"/>
      <point x="394" y="614" type="curve" smooth="yes"/>
      <point x="394" y="643"/>
      <point x="414" y="663"/>
      <point x="441" y="663" type="curve" smooth="yes"/>
      <point x="472" y="663"/>
      <point x="487" y="646"/>
      <point x="487" y="613" type="curve" smooth="yes"/>
      <point x="487" y="586"/>
      <point x="469" y="565"/>
    </contour>
  </outline>
</glyph>
<glyph name="uni1597" format="2">
  <advance width="592"/>
  <unicode hex="1597"/>
  <note>
uni1597
</note>
  <outline>
    <contour>
      <point x="445" y="0" type="line"/>
      <point x="523" y="0" type="line"/>
      <point x="523" y="459" type="line" smooth="yes"/>
      <point x="523" y="637"/>
      <point x="437" y="726"/>
      <point x="290" y="726" type="curve" smooth="yes"/>
      <point x="138" y="726"/>
      <point x="59" y="631"/>
      <point x="59" y="490" type="curve" smooth="yes"/>
      <point x="59" y="361"/>
      <point x="125" y="280"/>
      <point x="227" y="280" type="curve" smooth="yes"/>
      <point x="321" y="280"/>
      <point x="384" y="348"/>
      <point x="392" y="457" type="curve"/>
      <point x="314" y="467" type="line"/>
      <point x="305" y="390"/>
      <point x="277" y="351"/>
      <point x="227" y="351" type="curve" smooth="yes"/>
      <point x="170" y="351"/>
      <point x="137" y="402"/>
      <point x="137" y="492" type="curve" smooth="yes"/>
      <point x="137" y="601"/>
      <point x="186" y="655"/>
      <point x="285" y="655" type="curve" smooth="yes"/>
      <point x="406" y="655"/>
      <point x="445" y="575"/>
      <point x="445" y="460" type="curve" smooth="yes"/>
    </contour>
  </outline>
</glyph>
<glyph name="uni1598" format="2">
  <advance width="592"/>
  <unicode hex="1598"/>
  <note>
uni1598
</note>
  <outline>
    <contour>
      <point x="69" y="0" type="line"/>
      <point x="147" y="0" type="line"/>
      <point x="147" y="460" type="line" smooth="yes"/>
      <point x="147" y="575"/>
      <point x="186" y="655"/>
      <point x="307" y="655" type="curve" smooth="yes"/>
      <point x="406" y="655"/>
      <point x="455" y="601"/>
      <point x="455" y="492" type="curve" smooth="yes"/>
      <point x="455" y="402"/>
      <point x="422" y="351"/>
      <point x="365" y="351" type="curve" smooth="yes"/>
      <point x="315" y="351"/>
      <point x="287" y="390"/>
      <point x="278" y="467" type="curve"/>
      <point x="200" y="457" type="line"/>
      <point x="208" y="348"/>
      <point x="271" y="280"/>
      <point x="365" y="280" type="curve" smooth="yes"/>
      <point x="467" y="280"/>
      <point x="533" y="361"/>
      <point x="533" y="490" type="curve" smooth="yes"/>
      <point x="533" y="631"/>
      <point x="454" y="726"/>
      <point x="302" y="726" type="curve" smooth="yes"/>
      <point x="155" y="726"/>
      <point x="69" y="637"/>
      <point x="69" y="459" type="curve" smooth="yes"/>
    </contour>
  </outline>
</glyph>
<glyph name="uni1599" format="2">
  <advance width="592"/>
  <unicode hex="1599"/>
  <note>
uni1599
</note>
  <outline>
    <contour>
      <point x="290" y="-12" type="curve" smooth="yes"/>
      <point x="437" y="-12"/>
      <point x="523" y="77"/>
      <point x="523" y="255" type="curve" smooth="yes"/>
      <point x="523" y="714" type="line"/>
      <point x="445" y="714" type="line"/>
      <point x="445" y="254" type="line" smooth="yes"/>
      <point x="445" y="139"/>
      <point x="406" y="59"/>
      <point x="285" y="59" type="curve" smooth="yes"/>
      <point x="186" y="59"/>
      <point x="137" y="113"/>
      <point x="137" y="222" type="curve" smooth="yes"/>
      <point x="137" y="312"/>
      <point x="170" y="363"/>
      <point x="227" y="363" type="curve" smooth="yes"/>
      <point x="277" y="363"/>
      <point x="305" y="324"/>
      <point x="314" y="247" type="curve"/>
      <point x="392" y="257" type="line"/>
      <point x="384" y="366"/>
      <point x="321" y="434"/>
      <point x="227" y="434" type="curve" smooth="yes"/>
      <point x="125" y="434"/>
      <point x="59" y="353"/>
      <point x="59" y="224" type="curve" smooth="yes"/>
      <point x="59" y="83"/>
      <point x="138" y="-12"/>
    </contour>
  </outline>
</glyph>
<glyph name="uni159A" format="2">
  <advance width="592"/>
  <unicode hex="159A"/>
  <note>
uni159A
</note>
  <outline>
    <contour>
      <point x="302" y="-12" type="curve" smooth="yes"/>
      <point x="454" y="-12"/>
      <point x="533" y="83"/>
      <point x="533" y="224" type="curve" smooth="yes"/>
      <point x="533" y="353"/>
      <point x="467" y="434"/>
      <point x="365" y="434" type="curve" smooth="yes"/>
      <point x="271" y="434"/>
      <point x="208" y="366"/>
      <point x="200" y="257" type="curve"/>
      <point x="278" y="247" type="line"/>
      <point x="287" y="324"/>
      <point x="315" y="363"/>
      <point x="365" y="363" type="curve" smooth="yes"/>
      <point x="422" y="363"/>
      <point x="455" y="312"/>
      <point x="455" y="222" type="curve" smooth="yes"/>
      <point x="455" y="113"/>
      <point x="406" y="59"/>
      <point x="307" y="59" type="curve" smooth="yes"/>
      <point x="186" y="59"/>
      <point x="147" y="139"/>
      <point x="147" y="254" type="curve" smooth="yes"/>
      <point x="147" y="714" type="line"/>
      <point x="69" y="714" type="line"/>
      <point x="69" y="255" type="line" smooth="yes"/>
      <point x="69" y="77"/>
      <point x="155" y="-12"/>
    </contour>
  </outline>
</glyph>
<glyph name="uni159B" format="2">
  <advance width="905"/>
  <unicode hex="159B"/>
  <note>
uni159B
</note>
  <outline>
    <contour>
      <point x="594" y="-12" type="curve" smooth="yes"/>
      <point x="748" y="-12"/>
      <point x="846" y="88"/>
      <point x="846" y="246" type="curve" smooth="yes"/>
      <point x="846" y="404"/>
      <point x="743" y="500"/>
      <point x="584" y="500" type="curve" smooth="yes"/>
      <point x="49" y="500" type="line"/>
      <point x="49" y="430" type="line"/>
      <point x="410" y="430" type="line"/>
      <point x="360" y="374"/>
      <point x="340" y="326"/>
      <point x="340" y="233" type="curve" smooth="yes"/>
      <point x="340" y="91"/>
      <point x="447" y="-12"/>
    </contour>
    <contour>
      <point x="598" y="59" type="curve" smooth="yes"/>
      <point x="497" y="59"/>
      <point x="418" y="129"/>
      <point x="418" y="235" type="curve" smooth="yes"/>
      <point x="418" y="354"/>
      <point x="484" y="430"/>
      <point x="593" y="430" type="curve" smooth="yes"/>
      <point x="692" y="430"/>
      <point x="768" y="359"/>
      <point x="768" y="248" type="curve" smooth="yes"/>
      <point x="768" y="133"/>
      <point x="699" y="59"/>
    </contour>
    <contour>
      <point x="49" y="608" type="line"/>
      <point x="804" y="608" type="line"/>
      <point x="804" y="679" type="line"/>
      <point x="49" y="679" type="line"/>
    </contour>
  </outline>
</glyph>
<glyph name="uni159D" format="2">
  <advance width="905"/>
  <unicode hex="159D"/>
  <note>
uni159D
</note>
  <outline>
    <contour>
      <point x="49" y="0" type="line"/>
      <point x="584" y="0" type="line" smooth="yes"/>
      <point x="743" y="0"/>
      <point x="846" y="96"/>
      <point x="846" y="254" type="curve" smooth="yes"/>
      <point x="846" y="412"/>
      <point x="748" y="513"/>
      <point x="594" y="513" type="curve" smooth="yes"/>
      <point x="447" y="513"/>
      <point x="340" y="410"/>
      <point x="340" y="268" type="curve" smooth="yes"/>
      <point x="340" y="178"/>
      <point x="359" y="129"/>
      <point x="410" y="71" type="curve"/>
      <point x="49" y="71" type="line"/>
    </contour>
    <contour>
      <point x="593" y="71" type="curve" smooth="yes"/>
      <point x="484" y="71"/>
      <point x="418" y="147"/>
      <point x="418" y="266" type="curve" smooth="yes"/>
      <point x="418" y="371"/>
      <point x="497" y="442"/>
      <point x="598" y="442" type="curve" smooth="yes"/>
      <point x="701" y="442"/>
      <point x="768" y="366"/>
      <point x="768" y="253" type="curve" smooth="yes"/>
      <point x="768" y="142"/>
      <point x="692" y="71"/>
    </contour>
    <contour>
      <point x="49" y="608" type="line"/>
      <point x="804" y="608" type="line"/>
      <point x="804" y="679" type="line"/>
      <point x="49" y="679" type="line"/>
    </contour>
  </outline>
</glyph>
<glyph name="uni159E" format="2">
  <advance width="904"/>
  <unicode hex="159E"/>
  <note>
uni159E
</note>
  <outline>
    <contour>
      <point x="320" y="0" type="curve" smooth="yes"/>
      <point x="855" y="0" type="line"/>
      <point x="855" y="71" type="line"/>
      <point x="495" y="71" type="line"/>
      <point x="545" y="128"/>
      <point x="564" y="175"/>
      <point x="564" y="268" type="curve" smooth="yes"/>
      <point x="564" y="410"/>
      <point x="458" y="513"/>
      <point x="311" y="513" type="curve" smooth="yes"/>
      <point x="157" y="513"/>
      <point x="59" y="412"/>
      <point x="59" y="254" type="curve" smooth="yes"/>
      <point x="59" y="96"/>
      <point x="161" y="0"/>
    </contour>
    <contour>
      <point x="311" y="71" type="curve" smooth="yes"/>
      <point x="212" y="71"/>
      <point x="137" y="142"/>
      <point x="137" y="253" type="curve" smooth="yes"/>
      <point x="137" y="368"/>
      <point x="205" y="442"/>
      <point x="307" y="442" type="curve" smooth="yes"/>
      <point x="408" y="442"/>
      <point x="486" y="371"/>
      <point x="486" y="266" type="curve" smooth="yes"/>
      <point x="486" y="147"/>
      <point x="420" y="71"/>
    </contour>
    <contour>
      <point x="101" y="608" type="line"/>
      <point x="855" y="608" type="line"/>
      <point x="855" y="679" type="line"/>
      <point x="101" y="679" type="line"/>
    </contour>
  </outline>
</glyph>
<glyph name="uni159F" format="2">
  <advance width="594"/>
  <unicode hex="159F"/>
  <note>
uni159F
</note>
  <outline>
    <contour>
      <point x="194" y="391" type="curve" smooth="yes"/>
      <point x="555" y="391" type="line"/>
      <point x="555" y="458" type="line"/>
      <point x="327" y="458" type="line"/>
      <point x="348" y="487"/>
      <point x="358" y="520"/>
      <point x="358" y="558" type="curve" smooth="yes"/>
      <point x="358" y="647"/>
      <point x="289" y="719"/>
      <point x="199" y="719" type="curve" smooth="yes"/>
      <point x="109" y="719"/>
      <point x="39" y="647"/>
      <point x="39" y="558" type="curve" smooth="yes"/>
      <point x="39" y="468"/>
      <point x="108" y="391"/>
    </contour>
    <contour>
      <point x="199" y="466" type="curve" smooth="yes"/>
      <point x="152" y="466"/>
      <point x="114" y="507"/>
      <point x="114" y="560" type="curve" smooth="yes"/>
      <point x="114" y="611"/>
      <point x="151" y="651"/>
      <point x="199" y="651" type="curve" smooth="yes"/>
      <point x="247" y="651"/>
      <point x="283" y="610"/>
      <point x="283" y="560" type="curve" smooth="yes"/>
      <point x="283" y="508"/>
      <point x="246" y="466"/>
    </contour>
    <contour>
      <point x="51" y="775" type="line"/>
      <point x="555" y="775" type="line"/>
      <point x="555" y="843" type="line"/>
      <point x="51" y="843" type="line"/>
    </contour>
  </outline>
</glyph>
<glyph name="uni15A0" format="2">
  <advance width="885"/>
  <unicode hex="15A0"/>
  <note>
uni15A0
</note>
  <outline>
    <contour>
      <point x="311" y="0" type="curve" smooth="yes"/>
      <point x="410" y="0" type="line"/>
      <point x="410" y="71" type="line"/>
      <point x="307" y="71" type="line" smooth="yes"/>
      <point x="204" y="71"/>
      <point x="137" y="143"/>
      <point x="137" y="250" type="curve" smooth="yes"/>
      <point x="137" y="375"/>
      <point x="204" y="430"/>
      <point x="344" y="430" type="curve" smooth="yes"/>
      <point x="836" y="430" type="line"/>
      <point x="836" y="500" type="line"/>
      <point x="333" y="500" type="line" smooth="yes"/>
      <point x="150" y="500"/>
      <point x="59" y="417"/>
      <point x="59" y="249" type="curve" smooth="yes"/>
      <point x="59" y="99"/>
      <point x="160" y="0"/>
    </contour>
    <contour>
      <point x="749" y="487" type="line"/>
      <point x="836" y="500" type="line"/>
      <point x="638" y="768" type="line"/>
      <point x="577" y="727" type="line"/>
    </contour>
  </outline>
</glyph>
<glyph name="uni15A2" format="2">
  <advance width="885"/>
  <unicode hex="15A2"/>
  <note>
uni15A2
</note>
  <outline>
    <contour>
      <point x="49" y="0" type="line"/>
      <point x="551" y="0" type="line" smooth="yes"/>
      <point x="734" y="0"/>
      <point x="826" y="84"/>
      <point x="826" y="252" type="curve" smooth="yes"/>
      <point x="826" y="402"/>
      <point x="725" y="500"/>
      <point x="574" y="500" type="curve" smooth="yes"/>
      <point x="475" y="500" type="line"/>
      <point x="475" y="430" type="line"/>
      <point x="578" y="430" type="line" smooth="yes"/>
      <point x="681" y="430"/>
      <point x="748" y="357"/>
      <point x="748" y="250" type="curve" smooth="yes"/>
      <point x="748" y="126"/>
      <point x="681" y="71"/>
      <point x="541" y="71" type="curve" smooth="yes"/>
      <point x="49" y="71" type="line"/>
    </contour>
    <contour>
      <point x="247" y="-267" type="line"/>
      <point x="308" y="-226" type="line"/>
      <point x="136" y="13" type="line"/>
      <point x="49" y="0" type="line"/>
    </contour>
  </outline>
</glyph>
<glyph name="uni15A4" format="2">
  <advance width="885"/>
  <unicode hex="15A4"/>
  <note>
uni15A4
</note>
  <outline>
    <contour>
      <point x="334" y="0" type="curve" smooth="yes"/>
      <point x="836" y="0" type="line"/>
      <point x="836" y="71" type="line"/>
      <point x="344" y="71" type="line" smooth="yes"/>
      <point x="204" y="71"/>
      <point x="137" y="126"/>
      <point x="137" y="250" type="curve" smooth="yes"/>
      <point x="137" y="357"/>
      <point x="204" y="430"/>
      <point x="307" y="430" type="curve" smooth="yes"/>
      <point x="410" y="430" type="line"/>
      <point x="410" y="500" type="line"/>
      <point x="311" y="500" type="line" smooth="yes"/>
      <point x="160" y="500"/>
      <point x="59" y="402"/>
      <point x="59" y="252" type="curve" smooth="yes"/>
      <point x="59" y="84"/>
      <point x="151" y="0"/>
    </contour>
    <contour>
      <point x="638" y="-267" type="line"/>
      <point x="836" y="0" type="line"/>
      <point x="749" y="13" type="line"/>
      <point x="577" y="-226" type="line"/>
    </contour>
  </outline>
</glyph>
<glyph name="uni15A6" format="2">
  <advance width="567"/>
  <unicode hex="15A6"/>
  <note>
uni15A6
</note>
  <outline>
    <contour>
      <point x="210" y="391" type="curve" smooth="yes"/>
      <point x="528" y="391" type="line"/>
      <point x="528" y="458" type="line"/>
      <point x="211" y="458" type="line" smooth="yes"/>
      <point x="150" y="458"/>
      <point x="114" y="496"/>
      <point x="114" y="557" type="curve" smooth="yes"/>
      <point x="114" y="609"/>
      <point x="152" y="646"/>
      <point x="208" y="646" type="curve" smooth="yes"/>
      <point x="230" y="646" type="line"/>
      <point x="230" y="714" type="line"/>
      <point x="204" y="714" type="line" smooth="yes"/>
      <point x="106" y="714"/>
      <point x="39" y="651"/>
      <point x="39" y="557" type="curve" smooth="yes"/>
      <point x="39" y="452"/>
      <point x="104" y="391"/>
    </contour>
    <contour>
      <point x="425" y="241" type="line"/>
      <point x="528" y="391" type="line"/>
      <point x="455" y="404" type="line"/>
      <point x="362" y="283" type="line"/>
    </contour>
  </outline>
</glyph>
<glyph name="uni15A7" format="2">
  <advance width="611"/>
  <unicode hex="15A7"/>
  <note>
uni15A7
</note>
  <outline>
    <contour>
      <point x="425" y="0" type="line"/>
      <point x="503" y="0" type="line"/>
      <point x="503" y="335" type="line"/>
      <point x="165" y="335" type="line"/>
      <point x="448" y="682" type="line"/>
      <point x="392" y="726" type="line"/>
      <point x="39" y="292" type="line"/>
      <point x="39" y="265" type="line"/>
      <point x="425" y="265" type="line"/>
    </contour>
    <contour>
      <point x="165" y="101" type="line"/>
      <point x="562" y="101" type="line"/>
      <point x="562" y="172" type="line"/>
      <point x="165" y="172" type="line"/>
    </contour>
  </outline>
</glyph>
<glyph name="uni15A8" format="2">
  <advance width="611"/>
  <unicode hex="15A8"/>
  <note>
uni15A8
</note>
  <outline>
    <contour>
      <point x="108" y="0" type="line"/>
      <point x="186" y="0" type="line"/>
      <point x="186" y="265" type="line"/>
      <point x="572" y="265" type="line"/>
      <point x="572" y="292" type="line"/>
      <point x="219" y="726" type="line"/>
      <point x="163" y="682" type="line"/>
      <point x="446" y="335" type="line"/>
      <point x="108" y="335" type="line"/>
    </contour>
    <contour>
      <point x="49" y="101" type="line"/>
      <point x="446" y="101" type="line"/>
      <point x="446" y="172" type="line"/>
      <point x="49" y="172" type="line"/>
    </contour>
  </outline>
</glyph>
<glyph name="uni15AA" format="2">
  <advance width="611"/>
  <unicode hex="15AA"/>
  <note>
uni15AA
</note>
  <outline>
    <contour>
      <point x="392" y="-12" type="line"/>
      <point x="448" y="32" type="line"/>
      <point x="165" y="378" type="line"/>
      <point x="503" y="378" type="line"/>
      <point x="503" y="714" type="line"/>
      <point x="425" y="714" type="line"/>
      <point x="425" y="449" type="line"/>
      <point x="39" y="449" type="line"/>
      <point x="39" y="422" type="line"/>
    </contour>
    <contour>
      <point x="165" y="542" type="line"/>
      <point x="562" y="542" type="line"/>
      <point x="562" y="613" type="line"/>
      <point x="165" y="613" type="line"/>
    </contour>
  </outline>
</glyph>
<glyph name="uni15AC" format="2">
  <advance width="611"/>
  <unicode hex="15AC"/>
  <note>
uni15AC
</note>
  <outline>
    <contour>
      <point x="219" y="-12" type="line"/>
      <point x="572" y="422" type="line"/>
      <point x="572" y="449" type="line"/>
      <point x="186" y="449" type="line"/>
      <point x="186" y="714" type="line"/>
      <point x="108" y="714" type="line"/>
      <point x="108" y="378" type="line"/>
      <point x="446" y="378" type="line"/>
      <point x="163" y="32" type="line"/>
    </contour>
    <contour>
      <point x="49" y="542" type="line"/>
      <point x="446" y="542" type="line"/>
      <point x="446" y="613" type="line"/>
      <point x="49" y="613" type="line"/>
    </contour>
  </outline>
</glyph>
<glyph name="uni15AE" format="2">
  <advance width="370"/>
  <unicode hex="15AE"/>
  <note>
uni15AE
</note>
  <outline>
    <contour>
      <point x="143" y="326" type="line"/>
      <point x="331" y="552" type="line"/>
      <point x="331" y="582" type="line"/>
      <point x="150" y="582" type="line"/>
      <point x="150" y="714" type="line"/>
      <point x="75" y="714" type="line"/>
      <point x="75" y="514" type="line"/>
      <point x="205" y="514" type="line"/>
      <point x="85" y="370" type="line"/>
    </contour>
    <contour>
      <point x="39" y="627" type="line"/>
      <point x="274" y="627" type="line"/>
      <point x="274" y="684" type="line"/>
      <point x="39" y="684" type="line"/>
    </contour>
  </outline>
</glyph>
<glyph name="uni15AF" format="2">
  <advance width="593"/>
  <unicode hex="15AF"/>
  <note>
uni15AF
</note>
  <outline>
    <contour>
      <point x="302" y="-12" type="curve" smooth="yes"/>
      <point x="445" y="-12"/>
      <point x="534" y="101"/>
      <point x="534" y="242" type="curve" smooth="yes"/>
      <point x="534" y="395"/>
      <point x="440" y="500"/>
      <point x="300" y="500" type="curve" smooth="yes"/>
      <point x="239" y="500"/>
      <point x="183" y="477"/>
      <point x="147" y="438" type="curve"/>
      <point x="147" y="714" type="line"/>
      <point x="69" y="714" type="line"/>
      <point x="69" y="0" type="line"/>
      <point x="147" y="0" type="line"/>
      <point x="147" y="55" type="line"/>
      <point x="188" y="10"/>
      <point x="239" y="-12"/>
    </contour>
    <contour>
      <point x="300" y="59" type="curve" smooth="yes"/>
      <point x="214" y="59"/>
      <point x="147" y="138"/>
      <point x="147" y="222" type="curve" smooth="yes"/>
      <point x="147" y="264" type="line" smooth="yes"/>
      <point x="147" y="353"/>
      <point x="216" y="430"/>
      <point x="296" y="430" type="curve" smooth="yes"/>
      <point x="395" y="430"/>
      <point x="456" y="355"/>
      <point x="456" y="238" type="curve" smooth="yes"/>
      <point x="456" y="130"/>
      <point x="396" y="59"/>
    </contour>
  </outline>
</glyph>
<glyph name="uni15B0" format="2">
  <advance width="521"/>
  <unicode hex="15B0"/>
  <note>
uni15B0
</note>
  <outline>
    <contour>
      <point x="69" y="0" type="line"/>
      <point x="147" y="0" type="line"/>
      <point x="147" y="412" type="line"/>
      <point x="179" y="383"/>
      <point x="223" y="369"/>
      <point x="278" y="369" type="curve" smooth="yes"/>
      <point x="393" y="369"/>
      <point x="462" y="438"/>
      <point x="462" y="542" type="curve" smooth="yes"/>
      <point x="462" y="655"/>
      <point x="393" y="726"/>
      <point x="278" y="726" type="curve" smooth="yes"/>
      <point x="225" y="726"/>
      <point x="181" y="711"/>
      <point x="147" y="682" type="curve"/>
      <point x="147" y="714" type="line"/>
      <point x="69" y="714" type="line"/>
    </contour>
  </outline>
</glyph>
<glyph name="uni15B1" format="2">
  <advance width="521"/>
  <unicode hex="15B1"/>
  <note>
uni15B1
</note>
  <outline>
    <contour>
      <point x="243" y="-12" type="curve" smooth="yes"/>
      <point x="296" y="-12"/>
      <point x="340" y="2"/>
      <point x="374" y="32" type="curve"/>
      <point x="374" y="0" type="line"/>
      <point x="452" y="0" type="line"/>
      <point x="452" y="714" type="line"/>
      <point x="374" y="714" type="line"/>
      <point x="374" y="302" type="line"/>
      <point x="342" y="331"/>
      <point x="298" y="345"/>
      <point x="243" y="345" type="curve" smooth="yes"/>
      <point x="128" y="345"/>
      <point x="59" y="276"/>
      <point x="59" y="172" type="curve" smooth="yes"/>
      <point x="59" y="59"/>
      <point x="128" y="-12"/>
    </contour>
  </outline>
</glyph>
<glyph name="uni15B2" format="2">
  <advance width="521"/>
  <unicode hex="15B2"/>
  <note>
uni15B2
</note>
  <outline>
    <contour>
      <point x="278" y="-12" type="curve" smooth="yes"/>
      <point x="392" y="-12"/>
      <point x="462" y="58"/>
      <point x="462" y="172" type="curve" smooth="yes"/>
      <point x="462" y="276"/>
      <point x="393" y="345"/>
      <point x="278" y="345" type="curve" smooth="yes"/>
      <point x="223" y="345"/>
      <point x="179" y="331"/>
      <point x="147" y="302" type="curve"/>
      <point x="147" y="714" type="line"/>
      <point x="69" y="714" type="line"/>
      <point x="69" y="0" type="line"/>
      <point x="147" y="0" type="line"/>
      <point x="147" y="32" type="line"/>
      <point x="181" y="2"/>
      <point x="225" y="-12"/>
    </contour>
  </outline>
</glyph>
<glyph name="uni15B3" format="2">
  <advance width="521"/>
  <unicode hex="15B3"/>
  <note>
uni15B3
</note>
  <outline>
    <contour>
      <point x="374" y="0" type="line"/>
      <point x="452" y="0" type="line"/>
      <point x="452" y="714" type="line"/>
      <point x="374" y="714" type="line"/>
      <point x="374" y="682" type="line"/>
      <point x="340" y="711"/>
      <point x="296" y="726"/>
      <point x="243" y="726" type="curve" smooth="yes"/>
      <point x="129" y="726"/>
      <point x="59" y="656"/>
      <point x="59" y="542" type="curve" smooth="yes"/>
      <point x="59" y="438"/>
      <point x="128" y="369"/>
      <point x="243" y="369" type="curve" smooth="yes"/>
      <point x="298" y="369"/>
      <point x="342" y="383"/>
      <point x="374" y="412" type="curve"/>
    </contour>
  </outline>
</glyph>
<glyph name="uni15B5" format="2">
  <advance width="560"/>
  <unicode hex="15B5"/>
  <note>
uni15B5
</note>
  <outline>
    <contour>
      <point x="49" y="0" type="line"/>
      <point x="491" y="0" type="line"/>
      <point x="491" y="714" type="line"/>
      <point x="413" y="714" type="line"/>
      <point x="413" y="355" type="line"/>
      <point x="49" y="355" type="line"/>
      <point x="49" y="284" type="line"/>
      <point x="413" y="284" type="line"/>
      <point x="413" y="71" type="line"/>
      <point x="49" y="71" type="line"/>
    </contour>
  </outline>
</glyph>
<glyph name="uni15B7" format="2">
  <advance width="560"/>
  <unicode hex="15B7"/>
  <note>
uni15B7
</note>
  <outline>
    <contour>
      <point x="413" y="0" type="line"/>
      <point x="491" y="0" type="line"/>
      <point x="491" y="714" type="line"/>
      <point x="49" y="714" type="line"/>
      <point x="49" y="643" type="line"/>
      <point x="413" y="643" type="line"/>
      <point x="413" y="430" type="line"/>
      <point x="49" y="430" type="line"/>
      <point x="49" y="359" type="line"/>
      <point x="413" y="359" type="line"/>
    </contour>
  </outline>
</glyph>
<glyph name="uni15B8" format="2">
  <advance width="685"/>
  <unicode hex="15B8"/>
  <note>
uni15B8
</note>
  <outline>
    <contour>
      <point x="404" y="419" type="curve" smooth="yes"/>
      <point x="553" y="419"/>
      <point x="636" y="510"/>
      <point x="636" y="668" type="curve" smooth="yes"/>
      <point x="636" y="714" type="line"/>
      <point x="558" y="714" type="line"/>
      <point x="558" y="665" type="line" smooth="yes"/>
      <point x="558" y="555"/>
      <point x="502" y="490"/>
      <point x="403" y="490" type="curve" smooth="yes"/>
      <point x="311" y="490"/>
      <point x="263" y="555"/>
      <point x="263" y="667" type="curve" smooth="yes"/>
      <point x="263" y="714" type="line"/>
      <point x="184" y="714" type="line"/>
      <point x="184" y="663" type="line" smooth="yes"/>
      <point x="184" y="510"/>
      <point x="265" y="419"/>
    </contour>
    <contour>
      <point x="69" y="0" type="line"/>
      <point x="147" y="0" type="line"/>
      <point x="147" y="643" type="line"/>
      <point x="218" y="643" type="line"/>
      <point x="218" y="714" type="line"/>
      <point x="69" y="714" type="line"/>
    </contour>
  </outline>
</glyph>
<glyph name="uni15B9" format="2">
  <advance width="685"/>
  <unicode hex="15B9"/>
  <note>
uni15B9
</note>
  <outline>
    <contour>
      <point x="49" y="0" type="line"/>
      <point x="127" y="0" type="line"/>
      <point x="127" y="49" type="line" smooth="yes"/>
      <point x="127" y="159"/>
      <point x="183" y="224"/>
      <point x="282" y="224" type="curve" smooth="yes"/>
      <point x="374" y="224"/>
      <point x="422" y="159"/>
      <point x="422" y="47" type="curve" smooth="yes"/>
      <point x="422" y="0" type="line"/>
      <point x="501" y="0" type="line"/>
      <point x="501" y="51" type="line" smooth="yes"/>
      <point x="501" y="204"/>
      <point x="420" y="295"/>
      <point x="281" y="295" type="curve" smooth="yes"/>
      <point x="132" y="295"/>
      <point x="49" y="204"/>
      <point x="49" y="46" type="curve" smooth="yes"/>
    </contour>
    <contour>
      <point x="467" y="0" type="line"/>
      <point x="616" y="0" type="line"/>
      <point x="616" y="714" type="line"/>
      <point x="538" y="714" type="line"/>
      <point x="538" y="71" type="line"/>
      <point x="467" y="71" type="line"/>
    </contour>
  </outline>
</glyph>
<glyph name="uni15BA" format="2">
  <advance width="685"/>
  <unicode hex="15BA"/>
  <note>
uni15BA
</note>
  <outline>
    <contour>
      <point x="184" y="0" type="line"/>
      <point x="263" y="0" type="line"/>
      <point x="263" y="47" type="line" smooth="yes"/>
      <point x="263" y="159"/>
      <point x="311" y="224"/>
      <point x="403" y="224" type="curve" smooth="yes"/>
      <point x="502" y="224"/>
      <point x="558" y="159"/>
      <point x="558" y="49" type="curve" smooth="yes"/>
      <point x="558" y="0" type="line"/>
      <point x="636" y="0" type="line"/>
      <point x="636" y="46" type="line" smooth="yes"/>
      <point x="636" y="204"/>
      <point x="553" y="295"/>
      <point x="404" y="295" type="curve" smooth="yes"/>
      <point x="265" y="295"/>
      <point x="184" y="204"/>
      <point x="184" y="51" type="curve" smooth="yes"/>
    </contour>
    <contour>
      <point x="69" y="0" type="line"/>
      <point x="218" y="0" type="line"/>
      <point x="218" y="71" type="line"/>
      <point x="147" y="71" type="line"/>
      <point x="147" y="714" type="line"/>
      <point x="69" y="714" type="line"/>
    </contour>
  </outline>
</glyph>
<glyph name="uni15BB" format="2">
  <advance width="685"/>
  <unicode hex="15BB"/>
  <note>
uni15BB
</note>
  <outline>
    <contour>
      <point x="281" y="419" type="curve" smooth="yes"/>
      <point x="420" y="419"/>
      <point x="501" y="510"/>
      <point x="501" y="663" type="curve" smooth="yes"/>
      <point x="501" y="714" type="line"/>
      <point x="422" y="714" type="line"/>
      <point x="422" y="667" type="line" smooth="yes"/>
      <point x="422" y="555"/>
      <point x="374" y="490"/>
      <point x="282" y="490" type="curve" smooth="yes"/>
      <point x="183" y="490"/>
      <point x="127" y="555"/>
      <point x="127" y="665" type="curve" smooth="yes"/>
      <point x="127" y="714" type="line"/>
      <point x="49" y="714" type="line"/>
      <point x="49" y="668" type="line" smooth="yes"/>
      <point x="49" y="510"/>
      <point x="132" y="419"/>
    </contour>
    <contour>
      <point x="538" y="0" type="line"/>
      <point x="616" y="0" type="line"/>
      <point x="616" y="714" type="line"/>
      <point x="467" y="714" type="line"/>
      <point x="467" y="643" type="line"/>
      <point x="538" y="643" type="line"/>
    </contour>
  </outline>
</glyph>
<glyph name="uni15BC" format="2">
  <advance width="675"/>
  <unicode hex="15BC"/>
  <note>
uni15BC
</note>
  <outline>
    <contour>
      <point x="68" y="0" type="line"/>
      <point x="146" y="0" type="line"/>
      <point x="146" y="643" type="line"/>
      <point x="362" y="279" type="line"/>
      <point x="379" y="279" type="line"/>
      <point x="636" y="714" type="line"/>
      <point x="550" y="714" type="line"/>
      <point x="370" y="402" type="line"/>
      <point x="190" y="714" type="line"/>
      <point x="68" y="714" type="line"/>
    </contour>
  </outline>
</glyph>
<glyph name="uni15BD" format="2">
  <advance width="675"/>
  <unicode hex="15BD"/>
  <note>
uni15BD
</note>
  <outline>
    <contour>
      <point x="39" y="0" type="line"/>
      <point x="125" y="0" type="line"/>
      <point x="305" y="312" type="line"/>
      <point x="485" y="0" type="line"/>
      <point x="607" y="0" type="line"/>
      <point x="607" y="714" type="line"/>
      <point x="529" y="714" type="line"/>
      <point x="529" y="71" type="line"/>
      <point x="313" y="435" type="line"/>
      <point x="296" y="435" type="line"/>
    </contour>
  </outline>
</glyph>
<glyph name="uni15BE" format="2">
  <advance width="675"/>
  <unicode hex="15BE"/>
  <note>
uni15BE
</note>
  <outline>
    <contour>
      <point x="68" y="0" type="line"/>
      <point x="190" y="0" type="line"/>
      <point x="370" y="312" type="line"/>
      <point x="550" y="0" type="line"/>
      <point x="636" y="0" type="line"/>
      <point x="379" y="435" type="line"/>
      <point x="362" y="435" type="line"/>
      <point x="146" y="71" type="line"/>
      <point x="146" y="714" type="line"/>
      <point x="68" y="714" type="line"/>
    </contour>
  </outline>
</glyph>
<glyph name="uni15BF" format="2">
  <advance width="675"/>
  <unicode hex="15BF"/>
  <note>
uni15BF
</note>
  <outline>
    <contour>
      <point x="529" y="0" type="line"/>
      <point x="607" y="0" type="line"/>
      <point x="607" y="714" type="line"/>
      <point x="485" y="714" type="line"/>
      <point x="305" y="402" type="line"/>
      <point x="125" y="714" type="line"/>
      <point x="39" y="714" type="line"/>
      <point x="296" y="279" type="line"/>
      <point x="313" y="279" type="line"/>
      <point x="529" y="643" type="line"/>
    </contour>
  </outline>
</glyph>
<glyph name="uni15C0" format="2">
	<advance width="761"/>
	<unicode hex="15C0"/>
	<note>
		uni15C0
	</note>
	<outline>
		<contour>
			<point x="511" y="273" type="curve" smooth="yes"/>
			<point x="577" y="0" type="line"/>
			<point x="693" y="0" type="line"/>
			<point x="693" y="714" type="line"/>
			<point x="615" y="714" type="line"/>
			<point x="615" y="149" type="line"/>
			<point x="563" y="360" type="line" smooth="yes"/>
			<point x="498" y="624"/>
			<point x="418" y="726"/>
			<point x="274" y="726" type="curve" smooth="yes"/>
			<point x="137" y="726"/>
			<point x="64" y="646"/>
			<point x="64" y="496" type="curve" smooth="yes"/>
			<point x="64" y="426"/>
			<point x="86" y="340"/>
			<point x="117" y="292" type="curve"/>
			<point x="187" y="318" type="line"/>
			<point x="187" y="319"/>
			<point x="142" y="398"/>
			<point x="142" y="496" type="curve" smooth="yes"/>
			<point x="142" y="599"/>
			<point x="189" y="655"/>
			<point x="274" y="655" type="curve" smooth="yes"/>
			<point x="384" y="655"/>
			<point x="442" y="561"/>
		</contour>
	</outline>
</glyph>
<glyph name="uni15C1" format="2">
	<advance width="761"/>
	<unicode hex="15C1"/>
	<note>
		uni15C1
	</note>
	<outline>
		<contour>
			<point x="250" y="273" type="line" smooth="yes"/>
			<point x="319" y="561"/>
			<point x="377" y="655"/>
			<point x="487" y="655" type="curve" smooth="yes"/>
			<point x="572" y="655"/>
			<point x="619" y="599"/>
			<point x="619" y="496" type="curve" smooth="yes"/>
			<point x="619" y="398"/>
			<point x="574" y="319"/>
			<point x="574" y="318" type="curve"/>
			<point x="644" y="292" type="line"/>
			<point x="675" y="340"/>
			<point x="697" y="426"/>
			<point x="697" y="496" type="curve" smooth="yes"/>
			<point x="697" y="646"/>
			<point x="624" y="726"/>
			<point x="487" y="726" type="curve" smooth="yes"/>
			<point x="343" y="726"/>
			<point x="263" y="624"/>
			<point x="198" y="360" type="curve" smooth="yes"/>
			<point x="146" y="149" type="line"/>
			<point x="146" y="714" type="line"/>
			<point x="68" y="714" type="line"/>
			<point x="68" y="0" type="line"/>
			<point x="184" y="0" type="line"/>
		</contour>
	</outline>
</glyph>
<glyph name="uni15C2" format="2">
	<advance width="761"/>
	<unicode hex="15C2"/>
	<note>
		uni15C2
	</note>
	<outline>
		<contour>
			<point x="511" y="441" type="line" smooth="yes"/>
			<point x="442" y="153"/>
			<point x="384" y="59"/>
			<point x="274" y="59" type="curve" smooth="yes"/>
			<point x="189" y="59"/>
			<point x="142" y="115"/>
			<point x="142" y="218" type="curve" smooth="yes"/>
			<point x="142" y="316"/>
			<point x="187" y="395"/>
			<point x="187" y="396" type="curve"/>
			<point x="117" y="422" type="line"/>
			<point x="86" y="374"/>
			<point x="64" y="288"/>
			<point x="64" y="218" type="curve" smooth="yes"/>
			<point x="64" y="68"/>
			<point x="137" y="-12"/>
			<point x="274" y="-12" type="curve" smooth="yes"/>
			<point x="418" y="-12"/>
			<point x="498" y="90"/>
			<point x="563" y="354" type="curve" smooth="yes"/>
			<point x="615" y="565" type="line"/>
			<point x="615" y="0" type="line"/>
			<point x="693" y="0" type="line"/>
			<point x="693" y="714" type="line"/>
			<point x="577" y="714" type="line"/>
		</contour>
	</outline>
</glyph>
<glyph name="uni15C3" format="2">
	<advance width="761"/>
	<unicode hex="15C3"/>
	<note>
		uni15C3
	</note>
	<outline>
		<contour>
			<point x="250" y="441" type="curve" smooth="yes"/>
			<point x="184" y="714" type="line"/>
			<point x="68" y="714" type="line"/>
			<point x="68" y="0" type="line"/>
			<point x="146" y="0" type="line"/>
			<point x="146" y="565" type="line"/>
			<point x="198" y="354" type="line" smooth="yes"/>
			<point x="263" y="90"/>
			<point x="343" y="-12"/>
			<point x="487" y="-12" type="curve" smooth="yes"/>
			<point x="624" y="-12"/>
			<point x="697" y="68"/>
			<point x="697" y="218" type="curve" smooth="yes"/>
			<point x="697" y="288"/>
			<point x="675" y="374"/>
			<point x="644" y="422" type="curve"/>
			<point x="574" y="396" type="line"/>
			<point x="574" y="395"/>
			<point x="619" y="316"/>
			<point x="619" y="218" type="curve" smooth="yes"/>
			<point x="619" y="115"/>
			<point x="572" y="59"/>
			<point x="487" y="59" type="curve" smooth="yes"/>
			<point x="377" y="59"/>
			<point x="319" y="153"/>
		</contour>
	</outline>
</glyph>
<glyph name="uni15C4" format="2">
	<advance width="818"/>
	<unicode hex="15C4"/>
	<note>
		uni15C4
	</note>
	<outline>
		<contour>
			<point x="409" y="134" type="line"/>
			<point x="132" y="714" type="line"/>
			<point x="49" y="714" type="line"/>
			<point x="49" y="704" type="line"/>
			<point x="399" y="-10" type="line"/>
			<point x="419" y="-10" type="line"/>
			<point x="769" y="704" type="line"/>
			<point x="769" y="714" type="line"/>
			<point x="685" y="714" type="line"/>
		</contour>
		<contour>
			<point x="578" y="361" type="line"/>
			<point x="602" y="432" type="line"/>
			<point x="210" y="432" type="line"/>
			<point x="240" y="361" type="line"/>
		</contour>
	</outline>
</glyph>
<glyph name="uni15C5" format="2">
	<advance width="818"/>
	<unicode hex="15C5"/>
	<note>
		uni15C5
	</note>
	<outline>
		<contour>
			<point x="409" y="580" type="line"/>
			<point x="685" y="0" type="line"/>
			<point x="769" y="0" type="line"/>
			<point x="769" y="10" type="line"/>
			<point x="419" y="724" type="line"/>
			<point x="399" y="724" type="line"/>
			<point x="49" y="10" type="line"/>
			<point x="49" y="0" type="line"/>
			<point x="132" y="0" type="line"/>
		</contour>
		<contour>
			<point x="578" y="353" type="line"/>
			<point x="240" y="353" type="line"/>
			<point x="210" y="282" type="line"/>
			<point x="602" y="282" type="line"/>
		</contour>
	</outline>
</glyph>
<glyph name="uni15C6" format="2">
  <advance width="711"/>
  <unicode hex="15C6"/>
  <note>
uni15C6
</note>
  <outline>
    <contour>
      <point x="49" y="-10" type="line"/>
      <point x="59" y="-10" type="line"/>
      <point x="672" y="350" type="line"/>
      <point x="672" y="364" type="line"/>
      <point x="59" y="725" type="line"/>
      <point x="49" y="725" type="line"/>
      <point x="49" y="641" type="line"/>
      <point x="547" y="357" type="line"/>
      <point x="49" y="74" type="line"/>
    </contour>
    <contour>
      <point x="236" y="164" type="line"/>
      <point x="314" y="164" type="line"/>
      <point x="314" y="550" type="line"/>
      <point x="236" y="550" type="line"/>
    </contour>
  </outline>
</glyph>
<glyph name="uni15C7" format="2">
	<advance width="714"/>
	<unicode hex="15C7"/>
	<note>
		uni15C7
	</note>
	<outline>
		<contour>
			<point x="169" y="265" type="line"/>
			<point x="169" y="464" type="line"/>
			<point x="103" y="464" type="line"/>
			<point x="103" y="265" type="line"/>
		</contour>
		<contour>
			<point x="579" y="355" type="line"/>
			<point x="49" y="74" type="line"/>
			<point x="49" y="-10" type="line"/>
			<point x="59" y="-10" type="line"/>
			<point x="675" y="331" type="line"/>
			<point x="675" y="386" type="line"/>
			<point x="59" y="727" type="line"/>
			<point x="49" y="727" type="line"/>
			<point x="49" y="643" type="line"/>
			<point x="579" y="361" type="line"/>
		</contour>
		<contour>
			<point x="344" y="188" type="line"/>
			<point x="344" y="523" type="line"/>
			<point x="272" y="552" type="line"/>
			<point x="272" y="154" type="line"/>
		</contour>
	</outline>
</glyph>
<glyph name="uni15C8" format="2">
	<advance width="714"/>
	<unicode hex="15C8"/>
	<note>
		uni15C8
	</note>
	<outline>
		<contour>
			<point x="579" y="355" type="line"/>
			<point x="49" y="74" type="line"/>
			<point x="49" y="-10" type="line"/>
			<point x="59" y="-10" type="line"/>
			<point x="675" y="331" type="line"/>
			<point x="675" y="386" type="line"/>
			<point x="59" y="727" type="line"/>
			<point x="49" y="727" type="line"/>
			<point x="49" y="643" type="line"/>
			<point x="579" y="361" type="line"/>
		</contour>
		<contour>
			<point x="344" y="188" type="line"/>
			<point x="344" y="523" type="line"/>
			<point x="272" y="552" type="line"/>
			<point x="272" y="154" type="line"/>
		</contour>
		<contour>
			<point x="141" y="312" type="curve" smooth="yes"/>
			<point x="168" y="312"/>
			<point x="192" y="335"/>
			<point x="192" y="363" type="curve" smooth="yes"/>
			<point x="192" y="391"/>
			<point x="168" y="414"/>
			<point x="141" y="414" type="curve" smooth="yes"/>
			<point x="112" y="414"/>
			<point x="89" y="391"/>
			<point x="89" y="363" type="curve" smooth="yes"/>
			<point x="89" y="335"/>
			<point x="112" y="312"/>
		</contour>
	</outline>
</glyph>
<glyph name="uni15C9" format="2">
  <advance width="711"/>
  <unicode hex="15C9"/>
  <note>
uni15C9
</note>
  <outline>
    <contour>
      <point x="653" y="-10" type="line"/>
      <point x="663" y="-10" type="line"/>
      <point x="663" y="74" type="line"/>
      <point x="165" y="357" type="line"/>
      <point x="663" y="641" type="line"/>
      <point x="663" y="725" type="line"/>
      <point x="653" y="725" type="line"/>
      <point x="39" y="364" type="line"/>
      <point x="39" y="350" type="line"/>
    </contour>
    <contour>
      <point x="397" y="164" type="line"/>
      <point x="476" y="164" type="line"/>
      <point x="476" y="550" type="line"/>
      <point x="397" y="550" type="line"/>
    </contour>
  </outline>
</glyph>
<glyph name="uni15CA" format="2">
	<advance width="818"/>
	<unicode hex="15CA"/>
	<note>
		uni15CA
	</note>
	<outline>
		<contour>
			<point x="409" y="134" type="line"/>
			<point x="132" y="714" type="line"/>
			<point x="49" y="714" type="line"/>
			<point x="49" y="704" type="line"/>
			<point x="399" y="-10" type="line"/>
			<point x="419" y="-10" type="line"/>
			<point x="769" y="704" type="line"/>
			<point x="769" y="714" type="line"/>
			<point x="685" y="714" type="line"/>
		</contour>
		<contour>
			<point x="648" y="537" type="line"/>
			<point x="672" y="608" type="line"/>
			<point x="140" y="608" type="line"/>
			<point x="170" y="537" type="line"/>
		</contour>
	</outline>
</glyph>
<glyph name="uni15CB" format="2">
	<advance width="818"/>
	<unicode hex="15CB"/>
	<note>
		uni15CB
	</note>
	<outline>
		<contour>
			<point x="409" y="580" type="line"/>
			<point x="685" y="0" type="line"/>
			<point x="769" y="0" type="line"/>
			<point x="769" y="10" type="line"/>
			<point x="419" y="724" type="line"/>
			<point x="399" y="724" type="line"/>
			<point x="49" y="10" type="line"/>
			<point x="49" y="0" type="line"/>
			<point x="132" y="0" type="line"/>
		</contour>
		<contour>
			<point x="648" y="177" type="line"/>
			<point x="170" y="177" type="line"/>
			<point x="140" y="106" type="line"/>
			<point x="672" y="106" type="line"/>
		</contour>
	</outline>
</glyph>
<glyph name="uni15CC" format="2">
  <advance width="711"/>
  <unicode hex="15CC"/>
  <note>
uni15CC
</note>
  <outline>
    <contour>
      <point x="49" y="-10" type="line"/>
      <point x="59" y="-10" type="line"/>
      <point x="672" y="350" type="line"/>
      <point x="672" y="364" type="line"/>
      <point x="59" y="725" type="line"/>
      <point x="49" y="725" type="line"/>
      <point x="49" y="641" type="line"/>
      <point x="547" y="357" type="line"/>
      <point x="49" y="74" type="line"/>
    </contour>
    <contour>
      <point x="107" y="91" type="line"/>
      <point x="186" y="135" type="line"/>
      <point x="186" y="579" type="line"/>
      <point x="107" y="623" type="line"/>
    </contour>
  </outline>
</glyph>
<glyph name="uni15CD" format="2">
	<advance width="714"/>
	<unicode hex="15CD"/>
	<note>
		uni15CD
	</note>
	<outline>
		<contour>
			<point x="330" y="297" type="line"/>
			<point x="330" y="419" type="line"/>
			<point x="267" y="419" type="line"/>
			<point x="267" y="297" type="line"/>
		</contour>
		<contour>
			<point x="579" y="355" type="line"/>
			<point x="49" y="74" type="line"/>
			<point x="49" y="-10" type="line"/>
			<point x="59" y="-10" type="line"/>
			<point x="675" y="331" type="line"/>
			<point x="675" y="386" type="line"/>
			<point x="59" y="727" type="line"/>
			<point x="49" y="727" type="line"/>
			<point x="49" y="643" type="line"/>
			<point x="579" y="361" type="line"/>
		</contour>
		<contour>
			<point x="199" y="128" type="line"/>
			<point x="199" y="593" type="line"/>
			<point x="127" y="622" type="line"/>
			<point x="127" y="94" type="line"/>
		</contour>
	</outline>
</glyph>
